<svg width="16" height="302" viewBox="0 0 16 302" fill="none" xmlns="http://www.w3.org/2000/svg">
<path d="M8.70711 0.292893C8.31658 -0.0976311 7.68342 -0.0976311 7.29289 0.292893L0.928932 6.65685C0.538408 7.04738 0.538408 7.68054 0.928932 8.07107C1.31946 8.46159 1.95262 8.46159 2.34315 8.07107L8 2.41421L13.6569 8.07107C14.0474 8.46159 14.6805 8.46159 15.0711 8.07107C15.4616 7.68054 15.4616 7.04738 15.0711 6.65685L8.70711 0.292893ZM7.29288 301.707C7.6834 302.098 8.31657 302.098 8.70709 301.707L15.0711 295.343C15.4616 294.953 15.4616 294.319 15.0711 293.929C14.6805 293.538 14.0474 293.538 13.6568 293.929L7.99999 299.586L2.34313 293.929C1.95261 293.538 1.31944 293.538 0.928919 293.929C0.538395 294.319 0.538395 294.953 0.928919 295.343L7.29288 301.707ZM7 1L7 2.97368L9 2.97368L9 1L7 1ZM7 6.92105L7 10.8684L9 10.8684L9 6.92105L7 6.92105ZM7 14.8158L7 18.7632L9 18.7632L9 14.8158L7 14.8158ZM7 22.7105L7 26.6579L9 26.6579L9 22.7105L7 22.7105ZM7 30.6053L7 34.5526L9 34.5526L9 30.6053L7 30.6053ZM7 38.5L7 42.4474L9 42.4474L9 38.5L7 38.5ZM7 46.3947L7 50.3421L9 50.3421L9 46.3947L7 46.3947ZM7 54.2895L7 58.2368L9 58.2368L9 54.2895L7 54.2895ZM7 62.1842L7 66.1316L9 66.1316L9 62.1842L7 62.1842ZM7 70.0789L7 74.0263L9 74.0263L9 70.0789L7 70.0789ZM7 77.9737L7 81.921L9 81.921L9 77.9737L7 77.9737ZM7 85.8684L7 89.8158L9 89.8158L9 85.8684L7 85.8684ZM7 93.7631L7 97.7105L9 97.7105L9 93.7631L7 93.7631ZM7 101.658L7 105.605L9 105.605L9 101.658L7 101.658ZM7 109.553L7 113.5L9 113.5L9 109.553L7 109.553ZM6.99999 117.447L6.99999 121.395L8.99999 121.395L8.99999 117.447L6.99999 117.447ZM6.99999 125.342L6.99999 129.289L8.99999 129.289L8.99999 125.342L6.99999 125.342ZM6.99999 133.237L6.99999 137.184L8.99999 137.184L8.99999 133.237L6.99999 133.237ZM6.99999 141.132L6.99999 145.079L8.99999 145.079L8.99999 141.132L6.99999 141.132ZM6.99999 149.026L6.99999 152.974L8.99999 152.974L8.99999 149.026L6.99999 149.026ZM6.99999 156.921L6.99999 160.868L8.99999 160.868L8.99999 156.921L6.99999 156.921ZM6.99999 164.816L6.99999 168.763L8.99999 168.763L8.99999 164.816L6.99999 164.816ZM6.99999 172.711L6.99999 176.658L8.99999 176.658L8.99999 172.711L6.99999 172.711ZM6.99999 180.605L6.99999 184.553L8.99999 184.553L8.99999 180.605L6.99999 180.605ZM6.99999 188.5L6.99999 192.447L8.99999 192.447L8.99999 188.5L6.99999 188.5ZM6.99999 196.395L6.99999 200.342L8.99999 200.342L8.99999 196.395L6.99999 196.395ZM6.99999 204.289L6.99999 208.237L8.99999 208.237L8.99999 204.289L6.99999 204.289ZM6.99999 212.184L6.99999 216.132L8.99999 216.132L8.99999 212.184L6.99999 212.184ZM6.99999 220.079L6.99999 224.026L8.99999 224.026L8.99999 220.079L6.99999 220.079ZM6.99999 227.974L6.99999 231.921L8.99999 231.921L8.99999 227.974L6.99999 227.974ZM6.99999 235.868L6.99999 239.816L8.99999 239.816L8.99999 235.868L6.99999 235.868ZM6.99999 243.763L6.99999 247.711L8.99999 247.711L8.99999 243.763L6.99999 243.763ZM6.99999 251.658L6.99999 255.605L8.99999 255.605L8.99999 251.658L6.99999 251.658ZM6.99999 259.553L6.99999 263.5L8.99999 263.5L8.99999 259.553L6.99999 259.553ZM6.99999 267.447L6.99999 271.395L8.99999 271.395L8.99999 267.447L6.99999 267.447ZM6.99999 275.342L6.99999 279.289L8.99999 279.289L8.99999 275.342L6.99999 275.342ZM6.99999 283.237L6.99999 287.184L8.99999 287.184L8.99999 283.237L6.99999 283.237ZM6.99999 291.132L6.99999 295.079L8.99999 295.079L8.99999 291.132L6.99999 291.132ZM6.99999 299.026L6.99999 301L8.99999 301L8.99999 299.026L6.99999 299.026Z" fill="black" fill-opacity="0.5"/>
</svg>
