<svg width="48" height="48" viewBox="0 0 48 48" fill="none" xmlns="http://www.w3.org/2000/svg">
<g clip-path="url(#clip0_298_7)">
<path d="M40 36C40.5098 36.0006 41.0001 36.1958 41.3707 36.5457C41.7414 36.8956 41.9645 37.3739 41.9943 37.8828C42.0242 38.3917 41.8587 38.8928 41.5315 39.2837C41.2043 39.6746 40.7402 39.9258 40.234 39.986L40 40H8C7.49024 39.9994 6.99994 39.8042 6.62926 39.4543C6.25859 39.1044 6.03553 38.6261 6.00566 38.1172C5.97578 37.6083 6.14135 37.1072 6.46853 36.7163C6.79571 36.3254 7.25981 36.0742 7.766 36.014L8 36H40ZM40 22C40.5304 22 41.0391 22.2107 41.4142 22.5858C41.7893 22.9609 42 23.4696 42 24C42 24.5304 41.7893 25.0391 41.4142 25.4142C41.0391 25.7893 40.5304 26 40 26H8C7.46957 26 6.96086 25.7893 6.58579 25.4142C6.21071 25.0391 6 24.5304 6 24C6 23.4696 6.21071 22.9609 6.58579 22.5858C6.96086 22.2107 7.46957 22 8 22H40ZM40 8C40.5304 8 41.0391 8.21071 41.4142 8.58579C41.7893 8.96086 42 9.46957 42 10C42 10.5304 41.7893 11.0391 41.4142 11.4142C41.0391 11.7893 40.5304 12 40 12H8C7.46957 12 6.96086 11.7893 6.58579 11.4142C6.21071 11.0391 6 10.5304 6 10C6 9.46957 6.21071 8.96086 6.58579 8.58579C6.96086 8.21071 7.46957 8 8 8H40Z" fill="#060606"/>
</g>
<defs>
<clipPath id="clip0_298_7">
<rect width="48" height="48" fill="white"/>
</clipPath>
</defs>
</svg>
