<svg width="460" height="96" viewBox="0 0 460 96" fill="none" xmlns="http://www.w3.org/2000/svg">
<g clip-path="url(#clip0_99_6)">
<path d="M394 -0.340135H412.811L427.815 27.2963L418.41 44.5306L394 -0.340135Z" fill="white"/>
<path d="M427.815 68.0576L414.348 96H395.537L418.41 49.8095L427.815 68.0576Z" fill="white"/>
<path d="M443.545 29.6309L459.333 -1L461 -1L436.129 47.1701L461 95.3402H459.333L443.545 64.7093L434.462 47.1701L443.545 29.6309Z" fill="white"/>
<path d="M439.226 29.6309L455.014 -1L456.681 -1L431.81 47.1701L456.681 95.3402H455.014L439.226 64.7093L430.143 47.1701L439.226 29.6309Z" fill="white"/>
<path d="M434.615 29.6309L450.403 -1L452.07 -1L427.199 47.1701L452.07 95.3402H450.403L434.615 64.7093L425.532 47.1701L434.615 29.6309Z" fill="white"/>
<path d="M430.004 29.6309L445.792 -1L447.459 -1L422.588 47.1701L447.459 95.3402H445.792L430.004 64.7093L420.921 47.1701L430.004 29.6309Z" fill="white"/>
<path d="M58.527 2.02083H74.0272L51.5785 94.3056H22.4487L0 2.02083H15.5003L33.673 81.1028H40.3542L58.527 2.02083ZM85.4854 94.3056V26.9444H100.05V94.3056H85.4854ZM85.4854 15.4931V0H100.05V15.4931H85.4854ZM164.084 40.8208C153.572 39.3838 145.955 38.6653 141.234 38.6653C136.513 38.6653 133.217 39.249 131.346 40.4167C129.565 41.4944 128.674 43.2458 128.674 45.6708C128.674 48.0958 129.654 49.8024 131.614 50.7903C133.662 51.7782 138.384 52.9458 145.778 54.2931C153.26 55.5504 158.561 57.5713 161.679 60.3556C164.796 63.1399 166.356 68.0796 166.356 75.175C166.356 82.2704 164.084 87.4796 159.541 90.8028C155.087 94.126 148.54 95.7875 139.898 95.7875C134.464 95.7875 127.605 95.024 119.32 93.4972L115.178 92.8236L115.712 80.5639C126.402 82.001 134.108 82.7195 138.829 82.7195C143.55 82.7195 146.891 82.1357 148.851 80.9681C150.899 79.8004 151.924 77.8694 151.924 75.175C151.924 72.4806 150.945 70.6393 148.985 69.6514C147.114 68.5736 142.526 67.451 135.221 66.2833C128.006 65.026 122.705 63.0949 119.32 60.4903C115.935 57.8857 114.243 53.1254 114.243 46.2097C114.243 39.294 116.559 34.1296 121.191 30.7167C125.912 27.3038 131.925 25.5972 139.23 25.5972C144.932 25.5972 151.924 26.3157 160.209 27.7528L164.351 28.5611L164.084 40.8208ZM180.353 94.3056V26.9444H194.917V94.3056H180.353ZM180.353 15.4931V0H194.917V15.4931H180.353ZM216.192 34.2194C220.824 28.3815 228.485 25.4625 239.175 25.4625C249.865 25.4625 257.481 28.3815 262.024 34.2194C266.657 40.0574 268.973 48.8143 268.973 60.4903C268.973 72.1663 266.747 80.9681 262.292 86.8958C257.838 92.8236 250.132 95.7875 239.175 95.7875C228.218 95.7875 220.513 92.8236 216.058 86.8958C211.604 80.9681 209.377 72.1663 209.377 60.4903C209.377 48.8143 211.648 40.0574 216.192 34.2194ZM227.149 78.0042C229.199 81.5968 233.207 83.3931 239.175 83.3931C245.144 83.3931 249.152 81.5968 251.201 78.0042C253.251 74.4115 254.274 68.5288 254.274 60.3556C254.274 52.1824 253.161 46.3893 250.934 42.9764C248.796 39.5635 244.877 37.8569 239.175 37.8569C233.474 37.8569 229.51 39.5635 227.282 42.9764C225.144 46.3893 224.075 52.1824 224.075 60.3556C224.075 68.5288 225.1 74.4115 227.149 78.0042ZM298.006 94.3056H283.441V26.9444H297.873V31.1208C304.375 27.3486 310.522 25.4625 316.313 25.4625C325.22 25.4625 331.279 28.0222 334.486 33.1417C337.781 38.1713 339.43 46.524 339.43 58.2V94.3056H324.998V58.6042C324.998 51.3292 324.197 46.1649 322.593 43.1111C321.078 40.0574 317.916 38.5306 313.106 38.5306C308.563 38.5306 304.197 39.4288 300.011 41.225L298.006 42.0333V94.3056ZM353.717 64.6667V51.3292H393.67V64.6667H353.717Z" fill="white"/>
</g>
<defs>
<clipPath id="clip0_99_6">
<rect width="460" height="96" fill="white"/>
</clipPath>
</defs>
</svg>
