<svg width="92" height="45" viewBox="0 0 92 45" fill="none" xmlns="http://www.w3.org/2000/svg">
<g clip-path="url(#clip0_303_231)">
<path d="M70.3677 32.4134H63.5817C62.803 32.4134 62.0344 32.1445 61.3973 31.6496L50.7278 23.3123C49.9491 22.6991 48.867 22.7206 48.0984 23.3446L44.4778 26.303C43.0721 27.454 41.0495 27.3357 39.7651 26.0233C39.0976 25.3455 38.7437 24.4203 38.7437 23.4414C38.7437 22.4624 39.128 21.548 39.7954 20.8702L46.4499 14.2112C48.1287 12.1672 53.6101 12.9202 56.2496 13.9422C58.8083 14.9319 63.3289 13.9099 63.3795 13.8992L64.2593 13.6948L70.3576 32.4026L70.3677 32.4134ZM49.4434 20.7196C50.3233 20.7196 51.2031 21.0101 51.9414 21.5803L62.6109 29.9176C62.894 30.1435 63.2379 30.2618 63.5918 30.2618H67.536L62.9446 16.1906C61.3467 16.4703 57.9386 16.8899 55.5923 15.9754C52.5179 14.7921 48.5535 14.8997 48.0074 15.6419L47.9163 15.7495L41.2113 22.4517C40.9483 22.7206 40.7966 23.0756 40.7966 23.4629C40.7966 23.8502 40.9382 24.2159 41.2012 24.4849C41.7675 25.0658 42.6575 25.1088 43.2744 24.614L46.8949 21.6556C47.6433 21.0424 48.5535 20.7304 49.4637 20.7304L49.4434 20.7196Z" fill="white"/>
<path d="M70.4487 34.6188C69.5891 34.6188 68.78 34.0486 68.4867 33.1342L62.2974 14.2327C62.1154 13.6733 62.1457 13.0709 62.3885 12.5437C62.6312 12.0166 63.0559 11.6078 63.5717 11.4142L68.9418 9.42398C70.0239 9.02594 71.2173 9.63913 71.5915 10.7795L77.7808 29.681C78.155 30.8321 77.5886 32.0907 76.5065 32.4995L71.1364 34.4897C70.9139 34.5758 70.6813 34.608 70.4588 34.608L70.4487 34.6188ZM69.6801 11.5002L64.2392 13.4582L70.3981 32.435L75.8391 30.477C75.8391 30.477 75.8795 30.434 75.8694 30.4017L69.6801 11.5002Z" fill="white"/>
<path d="M80.7338 35.6406C78.9235 35.6406 77.2346 34.4357 76.6076 32.5209L69.2452 10.0477C68.8609 8.87515 68.9317 7.61648 69.4373 6.49767C69.943 5.37885 70.833 4.53974 71.9353 4.13094L78.8325 1.57058C81.108 0.731469 83.606 2.01165 84.3948 4.43216L91.7572 26.9053C92.1415 28.0779 92.0707 29.3365 91.5651 30.4553C91.0594 31.5742 90.1694 32.4133 89.0671 32.8221L82.1699 35.3824C81.6946 35.5546 81.2091 35.6406 80.7338 35.6406ZM80.2686 3.47472C80.0057 3.47472 79.7427 3.51775 79.4899 3.61457L72.5927 6.17493C72.0061 6.39009 71.5207 6.84192 71.2476 7.44435C70.9745 8.04679 70.9341 8.72454 71.1465 9.34849L78.5089 31.8216C78.9336 33.1233 80.2686 33.8118 81.4923 33.36L88.3895 30.7996C88.9761 30.5844 89.4615 30.1326 89.7245 29.5302C89.9874 28.9277 90.038 28.25 89.8256 27.626L82.4632 5.15294C82.2609 4.52898 81.8361 4.01261 81.2698 3.72215C80.9462 3.56078 80.6023 3.47472 80.2484 3.47472H80.2686Z" fill="white"/>
<path d="M78.074 14.835C75.8895 14.835 74.1096 12.9416 74.1096 10.6179C74.1096 8.29426 75.8895 6.40088 78.074 6.40088C80.2585 6.40088 82.0384 8.29426 82.0384 10.6179C82.0384 12.9416 80.2585 14.835 78.074 14.835ZM78.074 8.5632C77.002 8.5632 76.1323 9.48838 76.1323 10.6287C76.1323 11.769 77.002 12.6942 78.074 12.6942C79.146 12.6942 80.0157 11.769 80.0157 10.6287C80.0157 9.48838 79.146 8.5632 78.074 8.5632Z" fill="white"/>
<path d="M81.3103 21.8275C80.8856 21.8275 80.481 21.5371 80.3496 21.0852L78.1651 13.8882C77.9932 13.3181 78.2865 12.7156 78.8225 12.5328C79.3585 12.3499 79.9248 12.6619 80.0967 13.232L82.2812 20.429C82.4531 20.9992 82.1598 21.6016 81.6238 21.7845C81.5227 21.8168 81.4115 21.8383 81.3103 21.8383V21.8275Z" fill="white"/>
<path d="M21.2176 34.2207C20.9749 34.2207 20.722 34.1776 20.4894 34.0808L15.1598 31.9723C14.644 31.7679 14.2293 31.3591 13.9967 30.8212C13.7641 30.2833 13.7439 29.6809 13.9361 29.1322L20.5096 10.3813C20.7018 9.83266 21.0861 9.39159 21.5918 9.14416C22.0974 8.89673 22.6638 8.87522 23.1795 9.07962L28.5092 11.1882C29.025 11.3925 29.4396 11.8013 29.6722 12.3392C29.9048 12.8771 29.9251 13.4796 29.7329 14.0282L23.1593 32.7791C22.9672 33.3278 22.5829 33.7688 22.0772 34.0163C21.8041 34.1454 21.5109 34.2207 21.2176 34.2207ZM22.4615 11.0806C22.4615 11.0806 22.4514 11.0806 22.4413 11.0806L15.8373 29.8637L21.1973 32.0476L27.8417 13.2644L22.4817 11.0698C22.4817 11.0698 22.4817 11.0698 22.4615 11.0698V11.0806Z" fill="white"/>
<path d="M11.2054 34.307C10.6997 34.307 10.1839 34.2101 9.6884 34.0165L2.84175 31.3055C0.586499 30.4126 -0.566408 27.7339 0.27299 25.3242L8.09051 3.0232C8.49504 1.86135 9.3041 0.936179 10.366 0.419804C11.4279 -0.0965721 12.6111 -0.139603 13.7034 0.29071L20.55 3.00168C22.8053 3.89458 23.9582 6.58404 23.1188 8.98304L15.3012 31.284C14.6439 33.1559 12.9752 34.307 11.2054 34.307ZM12.1763 2.15181C11.8425 2.15181 11.5088 2.22712 11.2054 2.37773C10.639 2.65743 10.2042 3.15229 9.98168 3.77625L2.17428 26.0772C1.71918 27.3682 2.3462 28.8097 3.54967 29.2831L10.3963 31.994C11.6099 32.4781 12.9651 31.8111 13.4101 30.531L21.2276 8.22999C21.6827 6.93905 21.0557 5.4975 19.8522 5.02415L13.0055 2.31318C12.7426 2.2056 12.4594 2.15181 12.1864 2.15181H12.1763Z" fill="white"/>
<path d="M8.83896 29.0676C7.91866 29.0676 7.03881 28.7341 6.32077 28.0994C5.5016 27.3787 5.00605 26.3674 4.90492 25.2486C4.80378 24.1298 5.12741 23.0325 5.79488 22.1719C7.19051 20.3861 9.68847 20.1386 11.3673 21.6125C13.0461 23.097 13.2787 25.7542 11.8932 27.5508C11.2156 28.4222 10.2649 28.9493 9.21315 29.0569C9.09179 29.0676 8.96032 29.0784 8.83896 29.0784V29.0676ZM7.35232 23.5381C7.01858 23.9577 6.86688 24.4956 6.91745 25.0442C6.96801 25.5929 7.21073 26.0877 7.60515 26.4427C7.99956 26.7977 8.50522 26.9591 9.021 26.9053C9.53677 26.8515 10.002 26.5933 10.3357 26.1738C11.0133 25.3024 10.9021 23.9899 10.0829 23.2692C9.26372 22.5484 8.04002 22.6667 7.35232 23.5381Z" fill="white"/>
<path d="M9.79977 22.9572C9.67842 22.9572 9.54694 22.9357 9.42559 22.8819C8.90981 22.656 8.65698 22.0321 8.85925 21.4834L11.4988 14.4586C11.7112 13.9099 12.2977 13.641 12.8135 13.8561C13.3293 14.082 13.5821 14.706 13.3799 15.2546L10.7403 22.2795C10.5785 22.6991 10.2043 22.9572 9.79977 22.9572Z" fill="white"/>
<path d="M32.0993 17.191C29.8238 17.191 28.0135 16.8144 27.8618 16.7822L28.2562 14.6736C28.3169 14.6844 34.668 15.9861 37.9144 13.5871C41.99 10.5856 48.604 12.2101 49.5446 13.2321L48.1085 14.7489C47.4714 14.3186 42.2125 13.0492 39.0673 15.3621C37.0851 16.8144 34.3646 17.191 32.0891 17.191H32.0993Z" fill="white"/>
<path d="M28.2866 37.5556C27.5888 37.5556 26.8809 37.2867 26.3246 36.7381C25.1616 35.587 25.0908 33.6398 26.1729 32.4026L28.2866 29.9714C28.8125 29.3689 29.5204 29.0247 30.289 28.9924C31.0576 28.9601 31.7959 29.2506 32.3622 29.81C32.9286 30.3694 33.2522 31.1225 33.2825 31.9401C33.3129 32.7577 33.0398 33.543 32.5139 34.1454L30.4003 36.5767C29.8339 37.2329 29.0552 37.5556 28.2866 37.5556ZM27.7 35.1567C28.054 35.5009 28.59 35.4794 28.9136 35.1029L31.0273 32.6716C31.179 32.4887 31.2599 32.2628 31.2599 32.0154C31.2599 31.7679 31.1486 31.542 30.9868 31.3807C30.8149 31.2193 30.5924 31.144 30.3699 31.1332C30.1373 31.1332 29.9249 31.2516 29.7732 31.4237L27.6596 33.855C27.3359 34.2207 27.3562 34.8016 27.7101 35.1459L27.7 35.1567Z" fill="white"/>
<path d="M30.6027 41.665C29.7835 41.665 29.0149 41.3423 28.4081 40.7506C27.771 40.1266 27.4069 39.2768 27.3766 38.3624C27.3462 37.4479 27.6496 36.5658 28.2362 35.8988L33.5153 29.8314C34.7289 28.4436 36.7718 28.3576 38.0764 29.6485C38.7135 30.2725 39.0776 31.1223 39.1079 32.0368C39.1383 32.9512 38.8349 33.8333 38.2483 34.5003L32.9692 40.5677C32.3826 41.2347 31.5837 41.6327 30.7241 41.665C30.6836 41.665 30.6432 41.665 30.5926 41.665H30.6027ZM35.8818 30.8857C35.5582 30.8857 35.2346 31.0255 34.9918 31.2945L29.7127 37.3619C29.4902 37.6093 29.379 37.9428 29.3891 38.287C29.3992 38.6313 29.5408 38.9433 29.7734 39.1799C30.006 39.4166 30.3094 39.5457 30.6432 39.5242C30.9668 39.5134 31.2601 39.3628 31.4826 39.1154L36.7617 33.048C36.9841 32.8006 37.0954 32.4671 37.0853 32.1228C37.0752 31.7786 36.9336 31.4666 36.701 31.2299C36.4684 31.004 36.1751 30.8857 35.8818 30.8857Z" fill="white"/>
<path d="M35.4267 43.128C34.6378 43.128 33.8591 42.8268 33.2321 42.2136C32.595 41.5897 32.2309 40.7398 32.2006 39.8254C32.1702 38.911 32.4736 38.0288 33.0602 37.3618L37.1965 32.6069C37.7831 31.9399 38.582 31.5419 39.4416 31.5096C40.3114 31.4881 41.1305 31.8 41.7576 32.424C42.3947 33.048 42.7588 33.8978 42.7891 34.8122C42.8194 35.7267 42.516 36.6088 41.9295 37.2758L37.7932 42.02C37.156 42.7515 36.2964 43.1173 35.4267 43.1173V43.128ZM39.563 33.6612C39.563 33.6612 39.5326 33.6612 39.5124 33.6612C39.1888 33.6719 38.8955 33.8225 38.673 34.0699L34.5367 38.8249C34.3142 39.0723 34.203 39.4058 34.2131 39.7501C34.2232 40.0943 34.3648 40.4063 34.5974 40.643C35.0828 41.1271 35.8514 41.0948 36.3065 40.5677L40.4428 35.8235C40.6653 35.576 40.7766 35.2426 40.7665 34.8983C40.7563 34.554 40.6148 34.2421 40.3822 34.0054C40.1597 33.7795 39.8664 33.6612 39.563 33.6612Z" fill="white"/>
<path d="M39.7653 45C38.9765 45 38.1978 44.6988 37.5708 44.0856C36.2661 42.7946 36.1852 40.6215 37.3988 39.2338L40.5036 35.6729C41.7172 34.2852 43.76 34.1991 45.0646 35.4901C45.7018 36.114 46.0659 36.9639 46.0962 37.8783C46.1265 38.7927 45.8231 39.6749 45.2366 40.3418L42.1318 43.9027C41.4947 44.6342 40.6351 45 39.7653 45ZM38.9461 42.5042C39.4316 42.9883 40.2002 42.956 40.6452 42.4289L43.7499 38.868C43.9724 38.6206 44.0837 38.2871 44.0736 37.9428C44.0634 37.5986 43.9219 37.2866 43.6893 37.0499C43.2038 36.5658 42.4352 36.5981 41.9902 37.1145L38.8855 40.6753C38.4304 41.1917 38.4607 42.0093 38.9461 42.4827V42.5042Z" fill="white"/>
<path d="M27.3564 33.5752C25.3641 33.3492 22.6537 31.6065 22.3503 31.4021L23.4122 29.5732C24.1303 30.0466 26.2642 31.2945 27.5587 31.4343L27.3463 33.5752H27.3564Z" fill="white"/>
<path d="M60.6895 36.6733C60.0321 36.6733 59.3646 36.4689 58.7781 36.0601L49.0491 29.1213C48.5839 28.7878 48.4626 28.1208 48.7761 27.626C49.0896 27.1311 49.7166 27.002 50.1818 27.3355L59.9108 34.2743C60.558 34.7369 61.4378 34.554 61.8626 33.8655C62.2874 33.1878 62.1458 32.2734 61.539 31.7893L60.8715 31.2514C60.4265 30.8964 60.3355 30.2186 60.6794 29.7453C61.0131 29.2719 61.6502 29.1751 62.0952 29.5409L62.7627 30.0788C64.219 31.2621 64.5628 33.446 63.5414 35.0704C62.884 36.1139 61.7918 36.6841 60.6895 36.6841V36.6733Z" fill="white"/>
<path d="M57.251 40.3096C56.6138 40.3096 55.9565 40.116 55.3901 39.7072L45.5904 32.7253C45.1252 32.3918 45.0038 31.7248 45.3173 31.23C45.6309 30.7351 46.2579 30.606 46.7231 30.9395L56.5228 37.9214C57.1296 38.3517 57.9589 38.1795 58.3735 37.5341L58.505 37.3297C58.859 36.7703 58.7174 36.0065 58.1915 35.6299C57.7263 35.2964 57.6049 34.6295 57.9184 34.1346C58.2319 33.6397 58.859 33.5106 59.3242 33.8441C60.7704 34.8876 61.1648 36.9854 60.1838 38.5346L60.0523 38.7389C59.4051 39.7609 58.3432 40.3204 57.2611 40.3204L57.251 40.3096Z" fill="white"/>
<path d="M53.9438 42.8807C53.3977 42.8807 52.8617 42.7086 52.3965 42.3644L47.4107 38.7175C46.9455 38.384 46.8342 37.7062 47.1477 37.2221C47.4613 36.7273 48.0984 36.6089 48.5535 36.9424L53.5393 40.5893C53.7011 40.7077 53.8933 40.7507 54.0854 40.7077C54.2776 40.6646 54.4394 40.557 54.5506 40.3849C54.854 39.9008 54.7327 39.2338 54.2776 38.9111L53.7921 38.5668C53.3269 38.2334 53.2056 37.5664 53.509 37.0715C53.8225 36.5766 54.4495 36.4476 54.9147 36.7703L55.4001 37.1145C56.7856 38.1043 57.1497 40.1052 56.2294 41.579C55.8148 42.2353 55.1878 42.6763 54.4697 42.8162C54.2978 42.8485 54.1158 42.87 53.9438 42.87V42.8807Z" fill="white"/>
<path d="M49.2312 44.5481C48.6143 44.5481 47.9974 44.3545 47.4513 43.9564L43.4565 41.0303L44.6094 39.2553L48.6042 42.1814C49.0795 42.5364 49.7267 42.4396 50.1009 41.9662C50.2627 41.7511 50.3436 41.4821 50.3032 41.2132C50.2627 40.9443 50.1313 40.6968 49.9189 40.5462L49.7571 40.4279L50.8999 38.6528L51.0617 38.7712C51.7393 39.266 52.1944 40.0514 52.3056 40.9227C52.4169 41.7941 52.1843 42.6763 51.6483 43.354C51.0313 44.1501 50.1414 44.5589 49.2413 44.5589L49.2312 44.5481Z" fill="white"/>
</g>
<defs>
<clipPath id="clip0_303_231">
<rect width="92" height="45" fill="white"/>
</clipPath>
</defs>
</svg>
