<svg width="48" height="48" viewBox="0 0 48 48" fill="none" xmlns="http://www.w3.org/2000/svg">
<path d="M27.7662 10.0139L27.8822 10.0039H28.1182L28.2342 10.0139L28.3542 10.0319L28.4582 10.0519L28.6742 10.1159L28.8082 10.1699L29.0722 10.3099L29.2522 10.4399L29.4142 10.5859L29.5802 10.7739L29.6882 10.9279L29.7962 11.1199L29.8302 11.1919L29.8842 11.3259L29.9482 11.5419L29.9682 11.6479L29.9882 11.7679L29.9962 11.8819L30.0002 11.9999V35.9999C30.0002 37.7039 28.0282 38.5939 26.7542 37.5659L26.5862 37.4139L14.5862 25.4139C14.2419 25.0695 14.035 24.6113 14.0044 24.1253C13.9739 23.6392 14.1217 23.1587 14.4202 22.7739L14.5862 22.5859L26.5862 10.5859L26.7742 10.4199L26.9282 10.3119L27.1202 10.2039L27.1922 10.1699L27.3262 10.1159L27.5422 10.0519L27.6482 10.0319L27.7682 10.0119L27.7662 10.0139Z" fill="black"/>
</svg>
