<svg width="100" height="20" viewBox="0 0 100 20" fill="none" xmlns="http://www.w3.org/2000/svg">
<g clip-path="url(#clip0_127_737)">
<path d="M85.6522 -0.0707801H89.7415L93.0033 5.68681L90.9586 9.2773L85.6522 -0.0707801Z" fill="black"/>
<path d="M93.0033 14.1788L90.0757 20.0001H85.9863L90.9586 10.3771L93.0033 14.1788Z" fill="black"/>
<path d="M96.4228 6.17319L99.8549 -0.208252L100.217 -0.208252L94.8107 9.82718L100.217 19.8626H99.8549L96.4228 13.4812L94.4482 9.82718L96.4228 6.17319Z" fill="black"/>
<path d="M95.484 6.17319L98.9161 -0.208252L99.2786 -0.208252L93.8718 9.82718L99.2786 19.8626H98.9161L95.484 13.4812L93.5094 9.82718L95.484 6.17319Z" fill="black"/>
<path d="M94.4816 6.17319L97.9137 -0.208252L98.2761 -0.208252L92.8694 9.82718L98.2761 19.8626H97.9137L94.4816 13.4812L92.507 9.82718L94.4816 6.17319Z" fill="black"/>
<path d="M93.4792 6.17319L96.9112 -0.208252L97.2737 -0.208252L91.867 9.82718L97.2737 19.8626H96.9112L93.4792 13.4812L91.5045 9.82718L93.4792 6.17319Z" fill="black"/>
<path d="M12.7233 0.421005H16.0929L11.2127 19.647H4.88015L0 0.421005H3.36963L7.32023 16.8964H8.77265L12.7233 0.421005ZM18.5838 19.647V5.61343H21.7501V19.647H18.5838ZM18.5838 3.22772V0H21.7501V3.22772H18.5838ZM35.6704 8.50434C33.3852 8.20495 31.7294 8.05527 30.7031 8.05527C29.6768 8.05527 28.9602 8.17688 28.5536 8.42014C28.1663 8.64468 27.9726 9.00955 27.9726 9.51476C27.9726 10.02 28.1856 10.3755 28.6117 10.5813C29.0569 10.7871 30.0835 11.0304 31.6908 11.3111C33.3175 11.573 34.4698 11.994 35.1475 12.5741C35.8252 13.1541 36.1642 14.1832 36.1642 15.6615C36.1642 17.1397 35.6704 18.2249 34.6828 18.9172C33.7146 19.6096 32.2912 19.9557 30.4126 19.9557C29.2312 19.9557 27.7402 19.7967 25.9392 19.4786L25.0387 19.3383L25.1549 16.7841C27.4788 17.0835 29.154 17.2332 30.1803 17.2332C31.2065 17.2332 31.9327 17.1116 32.3589 16.8683C32.8042 16.6251 33.027 16.2228 33.027 15.6615C33.027 15.1001 32.8141 14.7165 32.3879 14.5107C31.9813 14.2862 30.984 14.0523 29.3959 13.809C27.8273 13.5471 26.6751 13.1448 25.9392 12.6021C25.2033 12.0595 24.8354 11.0678 24.8354 9.62703C24.8354 8.18626 25.3388 7.11033 26.3459 6.39931C27.3722 5.68828 28.6794 5.33276 30.2674 5.33276C31.5069 5.33276 33.027 5.48244 34.828 5.78183L35.7285 5.95023L35.6704 8.50434ZM39.2071 19.647V5.61343H42.3734V19.647H39.2071ZM39.2071 3.22772V0H42.3734V3.22772H39.2071ZM46.9982 7.12905C48.0053 5.91282 49.6706 5.30469 51.9945 5.30469C54.3184 5.30469 55.9742 5.91282 56.9618 7.12905C57.9689 8.34528 58.4723 10.1696 58.4723 12.6021C58.4723 15.0346 57.9884 16.8683 57.0199 18.1033C56.0517 19.3383 54.3765 19.9557 51.9945 19.9557C49.6125 19.9557 47.9376 19.3383 46.9691 18.1033C46.0009 16.8683 45.5167 15.0346 45.5167 12.6021C45.5167 10.1696 46.0105 8.34528 46.9982 7.12905ZM49.3802 16.2509C49.8258 16.9993 50.6972 17.3736 51.9945 17.3736C53.2921 17.3736 54.1636 16.9993 54.6089 16.2509C55.0545 15.5024 55.277 14.2768 55.277 12.5741C55.277 10.8713 55.035 9.66444 54.5508 8.95341C54.086 8.24239 53.234 7.88686 51.9945 7.88686C50.7553 7.88686 49.8934 8.24239 49.4092 8.95341C48.9444 9.66444 48.712 10.8713 48.712 12.5741C48.712 14.2768 48.9348 15.5024 49.3802 16.2509ZM64.784 19.647H61.6177V5.61343H64.755V6.48351C66.1685 5.69763 67.5047 5.30469 68.7637 5.30469C70.7 5.30469 72.0171 5.83796 72.7143 6.90451C73.4306 7.95234 73.7891 9.69251 73.7891 12.125V19.647H70.6518V12.2092C70.6518 10.6936 70.4775 9.61768 70.1289 8.98148C69.7995 8.34528 69.1122 8.0272 68.0665 8.0272C67.0788 8.0272 66.1298 8.21432 65.2197 8.58854L64.784 8.75695V19.647ZM76.895 13.4722V10.6936H85.5805V13.4722H76.895Z" fill="black"/>
</g>
<defs>
<clipPath id="clip0_127_737">
<rect width="100" height="20" fill="white"/>
</clipPath>
</defs>
</svg>
