<svg width="76" height="52" viewBox="0 0 76 52" fill="none" xmlns="http://www.w3.org/2000/svg">
<g clip-path="url(#clip0_303_199)">
<path d="M45.7235 6.95987C45.7235 6.95987 45.7332 6.95987 45.7428 6.96957C45.5211 6.75602 45.2993 6.54247 45.0679 6.33862C45.2896 6.55218 45.5114 6.75602 45.7139 6.95987H45.7235Z" fill="white"/>
<path d="M48.4136 14.1623H50.9206C50.5638 13.4149 50.1685 12.6869 49.7346 11.9686C48.5871 11.1629 47.4397 10.464 46.543 9.93981C46.2344 10.0951 45.7909 10.1242 45.2702 9.6486H45.2606L45.087 9.46417C45.087 9.46417 45.0774 9.45446 45.0677 9.44475C45.0195 9.39622 44.9424 9.30886 44.8652 9.2312C45.0774 9.45446 45.2895 9.68743 45.5016 9.92039C46.6394 11.2211 47.6036 12.648 48.4136 14.1526V14.1623Z" fill="white"/>
<path d="M51.1424 24.9467C51.1424 31.1106 48.645 36.993 44.2578 41.2641L29.6884 26.5969V2.26165C34.8374 2.51403 39.726 4.55249 43.5636 7.97903C42.6186 7.086 41.4905 6.04736 40.9312 5.53289L40.2177 4.88253L40.7577 4.07685C40.9023 3.8633 41.0566 3.66916 41.2109 3.48473C37.4215 1.22301 33.0728 -0.00976562 28.5796 -0.00976562H27.4707V27.5094L44.1807 44.3315L44.9617 43.6423C50.2938 38.9053 53.3601 32.091 53.3601 24.937C53.3601 24.0246 53.2926 23.1218 53.1962 22.2191H50.9592C51.0652 23.1218 51.1424 24.0246 51.1424 24.937V24.9467Z" fill="white"/>
<path d="M9.17946 46.4574L9.21803 46.4186C8.94804 46.1954 8.66842 45.9915 8.39844 45.7585L9.17946 46.4477V46.4574Z" fill="white"/>
<path d="M19.0337 36.5368L24.7708 30.7515L19.0337 36.5368Z" fill="white"/>
<path d="M25.8797 28.7131V2.10645H24.7709C17.6646 2.10645 10.8957 5.18354 6.19031 10.5612C2.19843 15.1234 0 20.9767 0 27.0532C0 33.8093 2.72875 40.2644 7.53058 44.9528L24.7709 27.5968L25.8797 28.7131ZM23.662 28.7131L9.09262 43.3803C4.7054 39.1092 2.20807 33.2171 2.20807 27.063C2.20807 21.53 4.21365 16.2009 7.84877 12.056C11.8889 7.44525 17.5971 4.68849 23.662 4.38757V28.7228V28.7131Z" fill="white"/>
<path d="M7.51123 44.9723L8.39832 45.7586C8.09941 45.4965 7.81978 45.2247 7.54016 44.9529L7.52087 44.9723H7.51123Z" fill="white"/>
<path d="M25.8798 29.6352L24.7709 30.7515L38.7714 44.8557C34.7892 48.0299 29.862 49.7674 24.7709 49.7674C19.6798 49.7674 14.743 48.0299 10.7704 44.8557L19.0338 36.5369L9.21802 46.4185C13.6245 50.0101 19.1013 51.9903 24.7806 51.9903C30.8166 51.9903 36.6309 49.7771 41.1627 45.7584L42.0498 44.9722L25.8991 28.7034V29.6255L25.8798 29.6352Z" fill="white"/>
<path d="M24.7708 30.7514L25.8797 29.6351V28.713L24.7708 27.5967L7.53052 44.9527C7.81014 45.2245 8.09941 45.4962 8.38868 45.7583C8.64902 45.9913 8.92864 46.1951 9.20826 46.4184L19.024 36.5368L24.7708 30.7514Z" fill="white"/>
<path d="M43.2069 4.60104C45.2028 2.57229 48.0955 3.08676 48.2787 3.12559L65.8082 5.68821V3.5721C65.8082 3.5721 65.8179 3.48474 65.8179 3.43621L48.6451 0.922113C48.4522 0.883285 44.0458 0.0679036 41.2109 3.49445C42.5801 4.30983 43.8722 5.26111 45.0678 6.33858C44.4218 5.72704 43.7179 5.07668 43.1972 4.59133L43.2069 4.60104Z" fill="white"/>
<path d="M60.9872 19.773C60.7847 19.9186 60.5436 19.9962 60.2833 19.9962H52.8491C52.9938 20.7339 53.1095 21.4814 53.1962 22.2288H60.2833C60.9872 22.2288 61.6621 22.0153 62.2406 21.6173L65.7986 19.142V16.4241L60.9872 19.773Z" fill="white"/>
<path d="M44.5568 18.4625C44.5568 17.3268 45.4728 16.3949 46.6106 16.3949H49.4647C49.1562 15.6281 48.7994 14.8904 48.4137 14.1624H46.6106C44.2579 14.1624 42.3391 16.0843 42.3391 18.4625C42.3391 20.5398 44.0169 22.2191 46.0707 22.2191H50.9593C50.8725 21.462 50.7375 20.7242 50.5736 19.9865H46.0707C45.2318 19.9865 44.5568 19.2973 44.5568 18.4625Z" fill="white"/>
<path d="M44.8749 9.2409C44.4603 8.80409 44.0264 8.38669 43.5732 7.979C44.1132 8.49347 44.5857 8.93999 44.8749 9.2409Z" fill="white"/>
<path d="M51.8367 14.1721H50.9303C51.2774 14.9001 51.586 15.6475 51.856 16.4144C53.4373 16.5212 54.9318 16.4435 55.4332 15.3757C55.7514 14.6865 55.4525 14.0168 55.1343 13.6867C52.0295 10.1437 46.1092 7.15397 45.7524 6.97925C46.2442 7.45489 46.7263 7.94023 47.1795 8.46441C48.1437 9.56129 49.0019 10.7455 49.754 11.988C50.7182 12.6675 51.7017 13.4246 52.5502 14.2206C52.3477 14.2206 52.1163 14.2012 51.8463 14.1818L51.8367 14.1721ZM53.5048 15.201C53.5048 15.201 53.4855 15.1719 53.4759 15.1622C53.4855 15.1719 53.4951 15.1913 53.5048 15.201Z" fill="white"/>
<path d="M50.583 19.9866C50.7469 20.7243 50.8723 21.4717 50.9687 22.2192H53.2057C53.1286 21.4717 53.0128 20.7243 52.8586 19.9866H50.583Z" fill="white"/>
<path d="M48.4136 14.1623C48.7993 14.8903 49.156 15.628 49.4646 16.3949H51.7112C51.7112 16.3949 51.8076 16.3949 51.8558 16.3949C51.5762 15.6377 51.2773 14.8903 50.9302 14.1526H48.4232L48.4136 14.1623Z" fill="white"/>
<path d="M40.2178 4.88253L40.9313 5.5329C41.5002 6.04736 42.6187 7.08601 43.5636 7.97904C44.0072 8.37703 44.4507 8.79443 44.8653 9.24094C44.9425 9.3186 45.0292 9.40596 45.0678 9.4545C45.0678 9.4545 45.0775 9.4642 45.0871 9.47391L45.2607 9.66805H45.2703C45.791 10.1437 46.2345 10.1049 46.5431 9.94955C47.4398 10.464 48.5872 11.1726 49.7346 11.9783C48.9826 10.7358 48.134 9.56127 47.1602 8.45468C46.707 7.94022 46.2249 7.44516 45.7331 6.96952C45.7331 6.96952 45.7235 6.96952 45.7138 6.96952C45.5114 6.77538 45.2896 6.56183 45.0678 6.34828C43.8722 5.27081 42.5801 4.31953 41.2109 3.50415C41.0566 3.68858 40.9024 3.88272 40.7577 4.09627L40.2178 4.90195V4.88253Z" fill="white"/>
<path d="M72.4612 0H69.3372C67.4376 0 65.8852 1.52399 65.8177 3.42654L68.0258 3.74687V3.56244C68.0258 2.83442 68.614 2.23259 69.3468 2.23259H72.4709C73.1941 2.23259 73.7919 2.82472 73.7919 3.56244V19.2585C73.7919 19.9866 73.2037 20.5884 72.4709 20.5884H69.3468C68.6236 20.5884 68.0258 19.9963 68.0258 19.2585V17.5987L65.8081 19.1421V19.2585C65.8081 21.2193 67.3991 22.821 69.3468 22.821H72.4709C74.4186 22.821 76.0096 21.2193 76.0096 19.2585V3.56244C76.0096 1.60164 74.4186 0 72.4709 0H72.4612Z" fill="white"/>
<path d="M68.0163 3.74684L65.8082 3.42651C65.8082 3.42651 65.7986 3.51388 65.7986 3.56241V19.1323L68.0163 17.5889V3.74684Z" fill="white"/>
<path d="M20.2487 12.1336C20.8659 12.1336 21.3576 11.6288 21.3576 11.0173V6.92098C21.3576 6.30945 20.8659 5.80469 20.2487 5.80469C19.6316 5.80469 19.1399 6.30945 19.1399 6.92098V11.0173C19.1399 11.6288 19.6316 12.1336 20.2487 12.1336Z" fill="white"/>
<path d="M20.2487 19.6856C20.8659 19.6856 21.3576 19.1808 21.3576 18.5693V14.473C21.3576 13.8614 20.8659 13.3567 20.2487 13.3567C19.6316 13.3567 19.1399 13.8614 19.1399 14.473V18.5693C19.1399 19.1808 19.6316 19.6856 20.2487 19.6856Z" fill="white"/>
<path d="M20.2487 27.2376C20.8659 27.2376 21.3576 26.7328 21.3576 26.1213V22.025C21.3576 21.4135 20.8659 20.9087 20.2487 20.9087C19.6316 20.9087 19.1399 21.4135 19.1399 22.025V26.1213C19.1399 26.7328 19.6316 27.2376 20.2487 27.2376Z" fill="white"/>
</g>
<defs>
<clipPath id="clip0_303_199">
<rect width="76" height="52" fill="white"/>
</clipPath>
</defs>
</svg>
