<svg width="59" height="55" viewBox="0 0 59 55" fill="none" xmlns="http://www.w3.org/2000/svg">
<path fill-rule="evenodd" clip-rule="evenodd" d="M29.6378 11.8408C30.2271 12.0234 30.7903 12.2582 31.3275 12.5451L33.711 11.1105C33.9595 10.9609 34.2507 10.899 34.5382 10.9344C34.8258 10.9699 35.0933 11.1007 35.2982 11.3061L36.6211 12.6338C36.8258 12.8395 36.9561 13.1079 36.9913 13.3964C37.0265 13.6849 36.9646 13.977 36.8155 14.2263L35.3846 16.6169C35.6704 17.156 35.9042 17.7212 36.086 18.3124L38.7806 18.9893C39.0617 19.06 39.3112 19.2228 39.4894 19.452C39.6676 19.6813 39.7643 19.9637 39.7642 20.2544L39.7635 22.1299C39.7634 22.4207 39.6665 22.7031 39.4881 22.9323C39.3097 23.1615 39.0601 23.3244 38.779 23.395L36.0838 24.0719C35.9016 24.6632 35.6674 25.2283 35.3812 25.7674L36.8103 28.1581C36.9592 28.4073 37.0208 28.6994 36.9854 28.9879C36.95 29.2765 36.8195 29.5449 36.6147 29.7505L35.2908 31.0782C35.0857 31.2836 34.8181 31.4145 34.5305 31.4499C34.2429 31.4853 33.9518 31.4234 33.7034 31.2739L31.321 29.8392C30.7836 30.1262 30.2201 30.3609 29.6307 30.5435L28.955 33.2472C28.8845 33.5292 28.7221 33.7796 28.4935 33.9584C28.265 34.1373 27.9835 34.2345 27.6936 34.2345H25.8242C25.5344 34.2345 25.253 34.1373 25.0246 33.9584C24.7962 33.7796 24.6339 33.5292 24.5636 33.2472L23.8899 30.5435C23.3059 30.3624 22.7402 30.1266 22.2002 29.8392L19.8167 31.2739C19.5682 31.4234 19.2771 31.4853 18.9895 31.4499C18.7019 31.4145 18.4345 31.2836 18.2295 31.0782L16.9066 29.7505C16.702 29.5449 16.5717 29.2765 16.5364 28.9879C16.5012 28.6994 16.5631 28.4073 16.7122 28.1581L18.1431 25.7674C17.8569 25.2256 17.622 24.6579 17.4418 24.0719L14.7471 23.395C14.4662 23.3244 14.2169 23.1617 14.0387 22.9328C13.8605 22.7038 13.7637 22.4217 13.7635 22.1312L13.7642 20.2557C13.7643 19.965 13.8613 19.6826 14.0396 19.4534C14.218 19.2241 14.4676 19.0613 14.7488 18.9906L17.4439 18.3137C17.6262 17.7225 17.8604 17.1573 18.1466 16.6182L16.7175 14.2276C16.5685 13.9783 16.5069 13.6862 16.5423 13.3977C16.5778 13.1092 16.7083 12.8408 16.9131 12.6351L18.237 11.3061C18.4421 11.1007 18.7096 10.9699 18.9972 10.9344C19.2848 10.899 19.5759 10.9609 19.8244 11.1105L22.2067 12.5451C22.7442 12.2582 23.3076 12.0234 23.897 11.8408L24.5727 9.13715C24.6432 8.85533 24.8054 8.60515 25.0337 8.42629C25.262 8.24744 25.5432 8.15014 25.8328 8.14985H27.7022C27.992 8.14985 28.2735 8.24701 28.5019 8.42589C28.7303 8.60477 28.8925 8.85511 28.9628 9.13715L29.6378 11.8408ZM26.7619 26.4091C28.141 26.4091 29.4639 25.8594 30.4394 24.8811C31.415 23.9027 31.9634 22.5758 31.9639 21.1922C31.9644 19.8085 31.417 18.4816 30.4422 17.5032C29.4674 16.5249 28.145 15.9752 26.7658 15.9752C25.3867 15.9752 24.0639 16.5249 23.0883 17.5032C22.1127 18.4816 21.5644 19.8085 21.5639 21.1922C21.5633 22.5758 22.1107 23.9027 23.0855 24.8811C24.0603 25.8594 25.3828 26.4091 26.7619 26.4091Z" fill="white"/>
<path d="M37.1482 7.99889L37.2751 7.5553C37.3896 7.15488 37.6342 6.80435 37.9701 6.55938C38.0247 6.51951 38.0813 6.48282 38.1395 6.44937C35.2255 4.31778 31.6953 2.98375 27.8743 2.78279C25.2834 2.64205 22.6909 3.02714 20.2528 3.91489C17.8147 4.80263 15.5814 6.17467 13.6874 7.94839C11.7934 9.72212 10.2778 11.8609 9.23194 14.2358C8.18607 16.6108 7.63151 19.1729 7.60166 21.7679L2.35894 31.8432C2.3475 31.8638 2.33834 31.8844 2.32918 31.905C2.05312 32.5491 2.03352 33.2743 2.27439 33.9324C2.51526 34.5904 2.9984 35.1316 3.62498 35.4451L3.65474 35.4589L9.43318 38.1128V45.8112C9.43318 46.54 9.72262 47.2389 10.2378 47.7542C10.753 48.2695 11.4518 48.5591 12.1805 48.5591H23.1695C23.4124 48.5591 23.6454 48.4626 23.8171 48.2908C23.9888 48.119 24.0853 47.886 24.0853 47.6431C24.0853 47.4002 23.9888 47.1672 23.8171 46.9955C23.6454 46.8237 23.4124 46.7272 23.1695 46.7272H12.1805C11.9376 46.7272 11.7046 46.6307 11.5329 46.4589C11.3612 46.2871 11.2647 46.0542 11.2647 45.8112V37.5243C11.2647 37.3486 11.2142 37.1766 11.1193 37.0288C11.0243 36.881 10.8888 36.7637 10.729 36.6908L4.43314 33.8079C4.23294 33.7036 4.07828 33.5291 3.99885 33.3178C3.91942 33.1065 3.9208 32.8733 4.00273 32.663L9.33015 22.4228C9.3976 22.2909 9.4329 22.145 9.43318 21.9969C9.43572 17.8595 10.9119 13.8583 13.5971 10.711C16.2822 7.56378 20.0006 5.47631 24.0853 4.82304C24.4607 4.76269 25.3525 4.63745 25.9168 4.61924C26.5353 4.58704 27.155 4.58704 27.7735 4.61924C31.2692 4.80287 34.4955 6.03321 37.1482 7.99889Z" fill="white"/>
<path d="M44.2498 21.5492C44.3513 24.0133 43.8863 26.2228 42.956 28.5237C41.768 31.4619 39.7994 34.0193 37.2631 35.9191C37.1337 36.0161 37.0324 36.1455 36.9692 36.2943C36.9061 36.4431 36.8835 36.606 36.9036 36.7664L38.7352 51.4214C38.7632 51.6439 38.8719 51.8485 39.0407 51.9962C39.2095 52.1439 39.4266 52.2246 39.6509 52.2228H39.7654C39.8862 52.2089 40.0031 52.1712 40.1092 52.1117C40.2153 52.0521 40.3084 51.9721 40.3832 51.8762C40.458 51.7802 40.513 51.6703 40.5449 51.5529C40.5768 51.4355 40.5849 51.313 40.569 51.1924L38.7947 37.0572C41.1191 35.2049 42.9844 32.8408 44.2452 30.149C45.506 27.4573 45.8302 25.2511 46.0626 22.078V21.7737C45.6097 21.7737 45.0491 21.7413 44.6962 21.6398L44.2498 21.5492Z" fill="white"/>
<path fill-rule="evenodd" clip-rule="evenodd" d="M45.7722 4.43481C46.1977 4.32598 46.6267 4.25853 47.0592 4.23246L47.9758 2.47276C48.0714 2.28932 48.2254 2.14315 48.4131 2.05746C48.6009 1.97177 48.8118 1.95146 49.0123 1.99978L50.3072 2.31271C50.5076 2.36129 50.6861 2.47568 50.8143 2.63773C50.9424 2.79977 51.013 3.00018 51.0147 3.20713L51.0304 5.19216C51.4035 5.41292 51.7547 5.66891 52.0839 5.96013L53.9711 5.36648C54.168 5.30458 54.3798 5.31046 54.5729 5.38319C54.766 5.45592 54.9292 5.59132 55.0368 5.7679L55.7305 6.9069C55.8381 7.08348 55.8837 7.2911 55.8602 7.49678C55.8367 7.70246 55.7454 7.8944 55.6008 8.04212L54.2143 9.45794C54.3225 9.88487 54.3894 10.3154 54.4151 10.7494L56.1679 11.6681C56.3507 11.7639 56.4962 11.9183 56.5815 12.1067C56.6667 12.2951 56.6868 12.5067 56.6385 12.7079L56.3258 14.0077C56.2773 14.2088 56.1632 14.388 56.0016 14.5168C55.8401 14.6455 55.6403 14.7164 55.4341 14.7183L53.4561 14.7354C53.2359 15.11 52.9806 15.4626 52.6902 15.7932L53.2804 17.6867C53.342 17.8843 53.336 18.0968 53.2634 18.2906C53.1908 18.4845 53.0557 18.6484 52.8797 18.7565L51.7443 19.4534C51.5683 19.5615 51.3614 19.6074 51.1564 19.584C50.9515 19.5605 50.7603 19.469 50.6132 19.324L49.2033 17.9335C48.7816 18.0413 48.3507 18.1091 47.9164 18.1359L46.9997 19.8956C46.9041 20.079 46.7502 20.2252 46.5624 20.3109C46.3746 20.3966 46.1638 20.4169 45.9633 20.3686L44.6684 20.0556C44.4679 20.0071 44.2895 19.8927 44.1613 19.7306C44.0331 19.5686 43.9626 19.3682 43.9609 19.1612L43.9451 17.1762C43.5707 16.9539 43.218 16.6968 42.8916 16.4082L41.0044 17.0019C40.8077 17.0637 40.5961 17.0579 40.4031 16.9853C40.2101 16.9128 40.0469 16.7776 39.9392 16.6012L39.2455 15.4622C39.138 15.2857 39.0923 15.078 39.1158 14.8724C39.1393 14.6667 39.2307 14.4747 39.3753 14.327L40.7617 12.9112C40.6536 12.4843 40.5866 12.0538 40.5609 11.6198L38.8081 10.701C38.6254 10.6052 38.4798 10.4509 38.3946 10.2625C38.3093 10.0741 38.2892 9.86246 38.3375 9.66121L38.6497 8.36069C38.6983 8.15951 38.8124 7.98032 38.9739 7.85158C39.1355 7.72284 39.3352 7.65192 39.5414 7.65008L41.5194 7.63295C41.7397 7.25836 41.995 6.90576 42.2854 6.57515L41.6951 4.68163C41.6336 4.48424 41.6396 4.27185 41.712 4.07815C41.7845 3.88444 41.9193 3.72052 42.095 3.61237L43.2305 2.91541C43.4065 2.80736 43.6134 2.76142 43.8183 2.78488C44.0233 2.80833 44.2145 2.89984 44.3616 3.04487L45.7722 4.43481ZM49.4175 14.3525C50.2551 13.8383 50.8552 13.0114 51.0856 12.0536C51.316 11.0959 51.1579 10.0858 50.6461 9.24547C50.1343 8.40518 49.3108 7.80356 48.3566 7.57297C47.4024 7.34237 46.3957 7.50169 45.5581 8.01587C44.7204 8.53005 44.1204 9.35697 43.89 10.3147C43.6596 11.2725 43.8176 12.2826 44.3294 13.1229C44.8412 13.9632 45.6648 14.5648 46.619 14.7954C47.5732 15.026 48.5798 14.8667 49.4175 14.3525Z" fill="white"/>
<path d="M46.0626 21.7737C46.0629 21.7858 46.0624 22.0659 46.0626 22.078M46.0626 21.7737C45.6097 21.7737 45.0491 21.7413 44.6962 21.6398L44.2498 21.5492C44.3513 24.0133 43.8863 26.2228 42.956 28.5237C41.768 31.4619 39.7994 34.0193 37.2631 35.9191C37.1337 36.0161 37.0324 36.1455 36.9692 36.2943C36.9061 36.4431 36.8835 36.606 36.9036 36.7664L38.7352 51.4214C38.7632 51.6439 38.8719 51.8485 39.0407 51.9962C39.2095 52.1439 39.4266 52.2246 39.6509 52.2228H39.7654C39.8862 52.2089 40.0031 52.1712 40.1092 52.1117C40.2153 52.0521 40.3084 51.9721 40.3832 51.8762C40.458 51.7802 40.513 51.6703 40.5449 51.5529C40.5768 51.4355 40.5849 51.313 40.569 51.1924L38.7947 37.0572C41.1191 35.2049 42.9844 32.8408 44.2452 30.149C45.506 27.4573 45.8302 25.2511 46.0626 22.078M46.0626 21.7737V22.078M29.6378 11.8408C30.2271 12.0234 30.7903 12.2582 31.3275 12.5451L33.711 11.1105C33.9595 10.9609 34.2507 10.899 34.5382 10.9344C34.8258 10.9699 35.0933 11.1007 35.2982 11.3061L36.6211 12.6338C36.8258 12.8395 36.9561 13.1079 36.9913 13.3964C37.0265 13.6849 36.9646 13.977 36.8155 14.2263L35.3846 16.6169C35.6704 17.156 35.9042 17.7212 36.086 18.3124L38.7806 18.9893C39.0617 19.06 39.3112 19.2228 39.4894 19.452C39.6676 19.6813 39.7643 19.9637 39.7642 20.2544L39.7635 22.1299C39.7634 22.4207 39.6665 22.7031 39.4881 22.9323C39.3097 23.1615 39.0601 23.3244 38.779 23.395L36.0838 24.0719C35.9016 24.6632 35.6674 25.2283 35.3812 25.7674L36.8103 28.1581C36.9592 28.4073 37.0208 28.6994 36.9854 28.9879C36.95 29.2765 36.8195 29.5449 36.6147 29.7505L35.2908 31.0782C35.0857 31.2836 34.8181 31.4145 34.5305 31.4499C34.2429 31.4853 33.9518 31.4234 33.7034 31.2739L31.321 29.8392C30.7836 30.1262 30.2201 30.3609 29.6307 30.5435L28.955 33.2472C28.8845 33.5292 28.7221 33.7796 28.4935 33.9584C28.265 34.1373 27.9835 34.2345 27.6936 34.2345H25.8242C25.5344 34.2345 25.253 34.1373 25.0246 33.9584C24.7962 33.7796 24.6339 33.5292 24.5636 33.2472L23.8899 30.5435C23.3059 30.3624 22.7402 30.1266 22.2002 29.8392L19.8167 31.2739C19.5682 31.4234 19.2771 31.4853 18.9895 31.4499C18.7019 31.4145 18.4345 31.2836 18.2295 31.0782L16.9066 29.7505C16.702 29.5449 16.5717 29.2765 16.5364 28.9879C16.5012 28.6994 16.5631 28.4073 16.7122 28.1581L18.1431 25.7674C17.8569 25.2256 17.622 24.6579 17.4418 24.0719L14.7471 23.395C14.4662 23.3244 14.2169 23.1617 14.0387 22.9328C13.8605 22.7038 13.7637 22.4217 13.7635 22.1312L13.7642 20.2557C13.7643 19.965 13.8613 19.6826 14.0396 19.4534C14.218 19.2241 14.4676 19.0613 14.7488 18.9906L17.4439 18.3137C17.6262 17.7225 17.8604 17.1573 18.1466 16.6182L16.7175 14.2276C16.5685 13.9783 16.5069 13.6862 16.5423 13.3977C16.5778 13.1092 16.7083 12.8408 16.9131 12.6351L18.237 11.3061C18.4421 11.1007 18.7096 10.9699 18.9972 10.9344C19.2848 10.899 19.5759 10.9609 19.8244 11.1105L22.2067 12.5451C22.7442 12.2582 23.3076 12.0234 23.897 11.8408L24.5727 9.13715C24.6432 8.85533 24.8054 8.60515 25.0337 8.42629C25.262 8.24744 25.5432 8.15014 25.8328 8.14985H27.7022C27.992 8.14985 28.2735 8.24701 28.5019 8.42589C28.7303 8.60477 28.8925 8.85511 28.9628 9.13715L29.6378 11.8408ZM26.7619 26.4091C28.141 26.4091 29.4639 25.8594 30.4394 24.8811C31.415 23.9027 31.9634 22.5758 31.9639 21.1922C31.9644 19.8085 31.417 18.4816 30.4422 17.5032C29.4674 16.5249 28.145 15.9752 26.7658 15.9752C25.3867 15.9752 24.0639 16.5249 23.0883 17.5032C22.1127 18.4816 21.5644 19.8085 21.5639 21.1922C21.5633 22.5758 22.1107 23.9027 23.0855 24.8811C24.0603 25.8594 25.3828 26.4091 26.7619 26.4091ZM38.1395 6.44937C38.0813 6.48282 38.0247 6.51951 37.9701 6.55938C37.6342 6.80435 37.3896 7.15488 37.2751 7.5553L37.1482 7.99889C34.4955 6.03321 31.2692 4.80287 27.7735 4.61924C27.155 4.58704 26.5353 4.58704 25.9168 4.61924C25.3525 4.63745 24.4607 4.76269 24.0853 4.82304C20.0006 5.47631 16.2822 7.56378 13.5971 10.711C10.9119 13.8583 9.43572 17.8595 9.43318 21.9969C9.4329 22.145 9.3976 22.2909 9.33015 22.4228L4.00273 32.663C3.9208 32.8733 3.91942 33.1065 3.99885 33.3178C4.07828 33.5291 4.23294 33.7036 4.43314 33.8079L10.729 36.6908C10.8888 36.7637 11.0243 36.881 11.1193 37.0288C11.2142 37.1766 11.2647 37.3486 11.2647 37.5243V45.8112C11.2647 46.0542 11.3612 46.2871 11.5329 46.4589C11.7046 46.6307 11.9376 46.7272 12.1805 46.7272H23.1695C23.4124 46.7272 23.6454 46.8237 23.8171 46.9955C23.9888 47.1672 24.0853 47.4002 24.0853 47.6431C24.0853 47.886 23.9888 48.119 23.8171 48.2908C23.6454 48.4626 23.4124 48.5591 23.1695 48.5591H12.1805C11.4518 48.5591 10.753 48.2695 10.2378 47.7542C9.72262 47.2389 9.43318 46.54 9.43318 45.8112V38.1128L3.65474 35.4589L3.62498 35.4451C2.9984 35.1316 2.51526 34.5904 2.27439 33.9324C2.03352 33.2743 2.05312 32.5491 2.32918 31.905C2.33834 31.8844 2.3475 31.8638 2.35894 31.8432L7.60166 21.7679C7.63151 19.1729 8.18607 16.6108 9.23194 14.2358C10.2778 11.8609 11.7934 9.72212 13.6874 7.94839C15.5814 6.17467 17.8147 4.80263 20.2528 3.91489C22.6909 3.02714 25.2834 2.64205 27.8743 2.78279C31.6953 2.98375 35.2255 4.31778 38.1395 6.44937ZM45.7722 4.43481C46.1977 4.32598 46.6267 4.25853 47.0592 4.23246L47.9758 2.47276C48.0714 2.28932 48.2254 2.14315 48.4131 2.05746C48.6009 1.97177 48.8118 1.95146 49.0123 1.99978L50.3072 2.31271C50.5076 2.36129 50.6861 2.47568 50.8143 2.63773C50.9424 2.79977 51.013 3.00018 51.0147 3.20713L51.0304 5.19216C51.4035 5.41292 51.7547 5.66891 52.0839 5.96013L53.9711 5.36648C54.168 5.30458 54.3798 5.31046 54.5729 5.38319C54.766 5.45592 54.9292 5.59132 55.0368 5.7679L55.7305 6.9069C55.8381 7.08348 55.8837 7.2911 55.8602 7.49678C55.8367 7.70246 55.7454 7.8944 55.6008 8.04212L54.2143 9.45794C54.3225 9.88487 54.3894 10.3154 54.4151 10.7494L56.1679 11.6681C56.3507 11.7639 56.4962 11.9183 56.5815 12.1067C56.6667 12.2951 56.6868 12.5067 56.6385 12.7079L56.3258 14.0077C56.2773 14.2088 56.1632 14.388 56.0016 14.5168C55.8401 14.6455 55.6403 14.7164 55.4341 14.7183L53.4561 14.7354C53.2359 15.11 52.9806 15.4626 52.6902 15.7932L53.2804 17.6867C53.342 17.8843 53.336 18.0968 53.2634 18.2906C53.1908 18.4845 53.0557 18.6484 52.8797 18.7565L51.7443 19.4534C51.5683 19.5615 51.3614 19.6074 51.1564 19.584C50.9515 19.5605 50.7603 19.469 50.6132 19.324L49.2033 17.9335C48.7816 18.0413 48.3507 18.1091 47.9164 18.1359L46.9997 19.8956C46.9041 20.079 46.7502 20.2252 46.5624 20.3109C46.3746 20.3966 46.1638 20.4169 45.9633 20.3686L44.6684 20.0556C44.4679 20.0071 44.2895 19.8927 44.1613 19.7306C44.0331 19.5686 43.9626 19.3682 43.9609 19.1612L43.9451 17.1762C43.5707 16.9539 43.218 16.6968 42.8916 16.4082L41.0044 17.0019C40.8077 17.0637 40.5961 17.0579 40.4031 16.9853C40.2101 16.9128 40.0469 16.7776 39.9392 16.6012L39.2455 15.4622C39.138 15.2857 39.0923 15.078 39.1158 14.8724C39.1393 14.6667 39.2307 14.4747 39.3753 14.327L40.7617 12.9112C40.6536 12.4843 40.5866 12.0538 40.5609 11.6198L38.8081 10.701C38.6254 10.6052 38.4798 10.4509 38.3946 10.2625C38.3093 10.0741 38.2892 9.86246 38.3375 9.66121L38.6497 8.36069C38.6983 8.15951 38.8124 7.98032 38.9739 7.85158C39.1355 7.72284 39.3352 7.65192 39.5414 7.65008L41.5194 7.63295C41.7397 7.25836 41.995 6.90576 42.2854 6.57515L41.6951 4.68163C41.6336 4.48424 41.6396 4.27185 41.712 4.07815C41.7845 3.88444 41.9193 3.72052 42.095 3.61237L43.2305 2.91541C43.4065 2.80736 43.6134 2.76142 43.8183 2.78488C44.0233 2.80833 44.2145 2.89984 44.3616 3.04487L45.7722 4.43481ZM49.4175 14.3525C50.2551 13.8383 50.8552 13.0114 51.0856 12.0536C51.316 11.0959 51.1579 10.0858 50.6461 9.24547C50.1343 8.40518 49.3108 7.80356 48.3566 7.57297C47.4024 7.34237 46.3957 7.50169 45.5581 8.01587C44.7204 8.53005 44.1204 9.35697 43.89 10.3147C43.6596 11.2725 43.8176 12.2826 44.3294 13.1229C44.8412 13.9632 45.6648 14.5648 46.619 14.7954C47.5732 15.026 48.5798 14.8667 49.4175 14.3525Z" stroke="white" stroke-width="0.4"/>
</svg>
