<svg width="48" height="48" viewBox="0 0 48 48" fill="none" xmlns="http://www.w3.org/2000/svg">
<path d="M20.2338 37.9861L20.1178 37.9961L19.8818 37.9961L19.7658 37.9861L19.6458 37.9681L19.5418 37.9481L19.3258 37.8841L19.1918 37.8301L18.9278 37.6901L18.7478 37.5601L18.5858 37.4141L18.4198 37.2261L18.3118 37.0721L18.2038 36.8801L18.1698 36.8081L18.1158 36.6741L18.0518 36.4581L18.0318 36.3521L18.0118 36.2321L18.0038 36.1181L17.9998 36.0001L17.9998 12.0001C17.9998 10.2961 19.9718 9.40609 21.2458 10.4341L21.4138 10.5861L33.4138 22.5861C33.7581 22.9305 33.965 23.3887 33.9956 23.8747C34.0261 24.3608 33.8783 24.8413 33.5798 25.2261L33.4138 25.4141L21.4138 37.4141L21.2258 37.5801L21.0718 37.6881L20.8798 37.7961L20.8078 37.8301L20.6738 37.8841L20.4578 37.9481L20.3518 37.9681L20.2318 37.9881L20.2338 37.9861Z" fill="black"/>
</svg>
