<svg width="50" height="50" viewBox="0 0 50 50" fill="none" xmlns="http://www.w3.org/2000/svg">
<path fill-rule="evenodd" clip-rule="evenodd" d="M18.055 24.7423C23.805 18.974 29.425 13.3457 34.915 7.85734C35.2024 7.55525 35.3626 7.15427 35.3626 6.73734C35.3626 6.32041 35.2024 5.91942 34.915 5.61734C34.1375 4.75234 32.9075 4.82734 32.3475 5.41734C26.6575 11.1223 20.705 17.0848 14.49 23.3048C13.9967 23.7098 13.75 24.1882 13.75 24.7398C13.75 25.2915 13.9967 25.7848 14.49 26.2198L33.1975 44.4848C33.5566 44.8144 34.03 44.9911 34.5172 44.9775C35.0044 44.964 35.4672 44.7613 35.8075 44.4123C36.7025 43.5148 36.3575 42.6298 35.9525 42.2098C29.9773 36.3953 24.0106 30.5719 18.0525 24.7398" fill="white"/>
</svg>
