<!--?xml version="1.0" encoding="utf-8"?-->
<!-- Generator: Adobe Illustrator 24.1.2, SVG Export Plug-In . SVG Version: 6.00 Build 0)  -->
<svg version="1.1" id="Layer_1" xmlns="http://www.w3.org/2000/svg" xmlns:xlink="http://www.w3.org/1999/xlink" x="0px" y="0px" viewBox="0 0 987.9 191.8" style="" xml:space="preserve">
<style type="text/css">
	.st0{fill:none;stroke:#3B3DC8;stroke-width:2;stroke-miterlimit:10;}
</style>
<g>
	<path class="st0 MybdreCX_0" d="M608.8,142.5v-0.5c-0.2-1.6-0.7-3-1.6-4.2c-0.9-1.3-2.1-2.3-3.5-3c-1.4-0.7-2.9-1.1-4.6-1.1
		c-2.6,0-4.8,0.5-6.6,1.5c-1.8,1-3.2,2.4-4.2,4.3c-0.4,0.9-0.7,1.9-1,3H608.8z"></path>
	<path class="st0 MybdreCX_1" d="M479.6,53.7c1.4-1.6,2.5-3.5,3.3-5.8c0.8-2.3,1.2-4.9,1.2-7.7s-0.4-5.4-1.2-7.6c-0.7-2.3-1.8-4.2-3.3-5.8
		s-3.2-2.8-5.3-3.7c-2-0.9-4.3-1.3-7-1.3h-11.8v36.8h11.8c2.6,0,5-0.4,7-1.3S478.2,55.2,479.6,53.7z"></path>
	<path class="st0 MybdreCX_2" d="M650.1,49.8c-1.4,0-2.7,0.1-3.8,0.4c-1.1,0.3-2.1,0.7-2.9,1.2c-0.8,0.5-1.4,1.2-1.8,1.9
		c-0.4,0.7-0.6,1.5-0.6,2.6c0,1.1,0.3,2,0.8,2.8c0.5,0.7,1.3,1.3,2.2,1.8c0.9,0.4,2,0.6,3.2,0.6c1.8,0,3.4-0.3,5-0.9
		c1.6-0.6,3-1.4,4.2-2.5c0.6-0.5,1.1-1.1,1.6-1.7v-6.3H650.1z"></path>
	<path class="st0 MybdreCX_3" d="M792.9,135.5c-1.8-1.1-3.9-1.7-6.2-1.7c-2.3,0-4.4,0.6-6.2,1.8c-1.8,1.1-3.2,2.7-4.2,4.7c-1,2-1.5,4.2-1.5,6.7
		c0,2.5,0.5,4.8,1.5,6.8c1,2,2.4,3.5,4.2,4.7c1.9,1.1,3.9,1.7,6.2,1.7c2.3,0,4.3-0.6,6.2-1.7c1.8-1.2,3.2-2.7,4.2-4.7
		c1.1-2,1.6-4.3,1.5-6.8c0.1-2.6-0.5-4.8-1.5-6.8C796.1,138.2,794.7,136.6,792.9,135.5z"></path>
	<path class="st0 MybdreCX_4" d="M557.4,40.1c-1-2-2.5-3.6-4.3-4.7c-1.8-1.1-3.9-1.7-6.4-1.7c-2.3,0-4.5,0.6-6.3,1.8c-1.8,1.1-3.3,2.7-4.3,4.7
		c-1,2-1.5,4.2-1.5,6.8s0.5,4.8,1.5,6.8c1.1,2,2.5,3.5,4.3,4.6c1.9,1.1,4,1.7,6.3,1.7c2.5,0,4.6-0.6,6.5-1.7s3.3-2.7,4.3-4.6
		s1.5-4.2,1.5-6.8C559,44.4,558.4,42.1,557.4,40.1z"></path>
	<path class="st0 MybdreCX_5" d="M788.1,49.8c-1.4,0-2.7,0.1-3.8,0.4c-1.1,0.3-2.1,0.7-2.9,1.2c-0.8,0.5-1.4,1.2-1.8,1.9
		c-0.4,0.7-0.6,1.5-0.6,2.6c0,1.1,0.3,2,0.8,2.8c0.5,0.7,1.3,1.3,2.2,1.8c0.9,0.4,2,0.6,3.2,0.6c1.8,0,3.4-0.3,5-0.9
		c1.6-0.6,3-1.4,4.2-2.5c0.6-0.5,1.1-1.1,1.6-1.7v-6.3H788.1z"></path>
	<path class="st0 MybdreCX_6" d="M162.9,26.7c-1.4-1.6-3.2-2.8-5.3-3.7c-2-0.9-4.3-1.3-7-1.3h-11.8v36.8h11.8c2.6,0,5-0.4,7-1.3
		s3.8-2.1,5.2-3.6c1.4-1.6,2.5-3.5,3.3-5.8c0.8-2.3,1.2-4.9,1.2-7.7s-0.4-5.4-1.2-7.6C165.4,30.2,164.4,28.3,162.9,26.7z"></path>
	<path class="st0 MybdreCX_7" d="M397.9,40c-1-2-2.3-3.6-4.1-4.8c-1.8-1.2-3.8-1.8-6.1-1.8c-2.3,0-4.4,0.6-6.2,1.8c-1.7,1.2-3.1,2.8-4.1,4.8
		c-1,2-1.5,4.4-1.5,7s0.5,5,1.5,7.1c1,2,2.4,3.6,4.1,4.8c1.8,1.1,3.8,1.7,6.2,1.7c2.3,0,4.3-0.6,6.1-1.7c1.8-1.2,3.1-2.8,4.1-4.8
		c1-2.1,1.5-4.5,1.5-7.1S398.9,42,397.9,40z"></path>
	<path class="st0 MybdreCX_8" d="M94.2,135.5c-1.8-1.1-3.9-1.7-6.2-1.7c-2.3,0-4.4,0.6-6.2,1.8c-1.8,1.1-3.2,2.7-4.2,4.7c-1,2-1.5,4.2-1.5,6.7
		c0,2.5,0.5,4.8,1.5,6.8c1,2,2.4,3.5,4.2,4.7c1.9,1.1,3.9,1.7,6.2,1.7c2.3,0,4.3-0.6,6.2-1.7c1.8-1.2,3.2-2.7,4.2-4.7
		c1.1-2,1.6-4.3,1.5-6.8c0.1-2.6-0.5-4.8-1.5-6.8C97.4,138.2,96,136.6,94.2,135.5z"></path>
	<path class="st0 MybdreCX_9" d="M277.6,58.5c1.9,1.1,3.9,1.7,6.2,1.7c2.3,0,4.3-0.6,6.2-1.7c1.8-1.2,3.2-2.7,4.2-4.7c1.1-2,1.6-4.3,1.5-6.8
		c0.1-2.6-0.5-4.8-1.5-6.8c-1-2-2.4-3.6-4.2-4.7c-1.8-1.1-3.9-1.7-6.2-1.7c-2.3,0-4.4,0.6-6.2,1.8c-1.8,1.1-3.2,2.7-4.2,4.7
		c-1,2-1.5,4.2-1.5,6.7s0.5,4.8,1.5,6.8C274.4,55.8,275.8,57.4,277.6,58.5z"></path>
	<path class="st0 MybdreCX_10" d="M443.3,135.5c-1.8-1.1-3.9-1.7-6.2-1.7c-2.3,0-4.4,0.6-6.2,1.8c-1.8,1.1-3.2,2.7-4.2,4.7c-1,2-1.5,4.2-1.5,6.7
		c0,2.5,0.5,4.8,1.5,6.8c1,2,2.4,3.5,4.2,4.7c1.9,1.1,3.9,1.7,6.2,1.7c2.3,0,4.3-0.6,6.2-1.7c1.8-1.2,3.2-2.7,4.2-4.7
		c1.1-2,1.6-4.3,1.5-6.8c0.1-2.6-0.5-4.8-1.5-6.8C446.5,138.2,445.1,136.6,443.3,135.5z"></path>
	<path class="st0 MybdreCX_11" d="M863.4,135.5c-1.8-1.1-3.9-1.7-6.2-1.7c-2.3,0-4.4,0.6-6.2,1.8c-1.8,1.1-3.2,2.7-4.2,4.7c-1,2-1.5,4.2-1.5,6.7
		c0,2.5,0.5,4.8,1.5,6.8c1,2,2.4,3.5,4.2,4.7c1.9,1.1,3.9,1.7,6.2,1.7c2.3,0,4.3-0.6,6.2-1.7c1.8-1.2,3.2-2.7,4.2-4.7
		c1.1-2,1.6-4.3,1.5-6.8c0.1-2.6-0.5-4.8-1.5-6.8C866.7,138.2,865.3,136.6,863.4,135.5z"></path>
	<path class="st0 MybdreCX_12" d="M917.9,140.1c-1-2-2.5-3.6-4.3-4.7c-1.8-1.1-3.9-1.7-6.4-1.7c-2.3,0-4.5,0.6-6.3,1.8c-1.8,1.1-3.3,2.7-4.3,4.7
		c-1,2-1.5,4.2-1.5,6.8s0.5,4.8,1.5,6.8c1.1,2,2.5,3.5,4.3,4.6c1.9,1.1,4,1.7,6.3,1.7c2.5,0,4.6-0.6,6.5-1.7s3.3-2.7,4.3-4.6
		s1.5-4.2,1.5-6.8C919.5,144.4,919,142.1,917.9,140.1z"></path>
	<path class="st0 MybdreCX_13" d="M579.6,112.1L536.9,112.1L536.9,121.7L552.9,121.7L552.9,168.1L563.2,168.1L563.2,121.7L579.6,121.7Z"></path>
	<path class="st0 MybdreCX_14" d="M557.2,72.6c-1,1.8-2.4,3.2-4.3,4.1c-1.9,0.9-4.2,1.4-7,1.4c-2.3,0-4.7-0.4-7-1.1c-2.3-0.7-4.2-1.7-5.8-2.9
		l-3.5,7.4c1.9,1.5,4.4,2.7,7.5,3.7c3.1,1,6.3,1.4,9.4,1.4c3.5,0,6.6-0.5,9.3-1.4c2.7-1,5-2.3,7-4.2c1.9-1.8,3.4-4,4.3-6.6
		c1-2.6,1.5-5.6,1.5-9V26h-9.5l-0.1,5.4c-0.5-0.6-1.1-1.2-1.8-1.8c-1-0.9-2.1-1.6-3.4-2.3c-1.3-0.7-2.7-1.2-4.2-1.6
		c-1.5-0.4-3-0.6-4.6-0.6c-3.8,0-7.3,1-10.4,2.9c-3.1,1.9-5.5,4.5-7.3,7.8c-1.8,3.3-2.6,7-2.6,11.2s0.9,7.9,2.6,11.2
		c1.8,3.3,4.3,5.8,7.4,7.7c3.1,1.8,6.6,2.7,10.6,2.7c2.3,0,4.5-0.5,6.7-1.4c2.2-0.9,4-2.1,5.4-3.6c0.5-0.5,0.9-1,1.3-1.5v4
		C558.7,68.7,558.2,70.9,557.2,72.6z M553.1,58.5c-1.9,1.1-4,1.7-6.5,1.7c-2.3,0-4.5-0.6-6.3-1.7c-1.8-1.1-3.3-2.7-4.3-4.6
		c-1-2-1.5-4.2-1.5-6.8s0.5-4.8,1.5-6.8c1.1-2,2.5-3.6,4.3-4.7c1.9-1.2,4-1.8,6.3-1.8c2.5,0,4.6,0.6,6.4,1.7
		c1.9,1.1,3.3,2.7,4.3,4.7c1.1,2,1.6,4.3,1.6,6.9c0,2.6-0.5,4.8-1.5,6.8S555,57.3,553.1,58.5z"></path>
	<path class="st0 MybdreCX_15" d="M612.9,131c-1.8-1.9-3.8-3.3-6.2-4.4c-2.3-1.1-4.9-1.6-7.8-1.6c-3.1,0-6,0.6-8.6,1.7c-2.6,1.1-4.9,2.6-6.8,4.6
		c-1.9,2-3.4,4.3-4.5,7c-1.1,2.7-1.6,5.7-1.6,9c0,4.2,0.9,7.9,2.8,11.2c1.9,3.2,4.6,5.7,7.9,7.6c3.4,1.8,7.3,2.7,11.8,2.7
		c2,0,4-0.3,6-0.8c2-0.5,3.9-1.3,5.8-2.2c1.9-1,3.5-2.1,5-3.4l-4.8-6.7c-1.9,1.7-3.7,2.8-5.4,3.4c-1.7,0.6-3.5,1-5.4,1
		c-2.8,0-5.3-0.6-7.4-1.7c-2.1-1.1-3.8-2.7-5-4.7c-0.7-1.3-1.2-2.8-1.5-4.5h31.1l0.1-3.5c0.1-3-0.4-5.7-1.4-8.2
		C616,135,614.7,132.8,612.9,131z M592.4,135.3c1.8-1,4-1.5,6.6-1.5c1.7,0,3.3,0.4,4.6,1.1c1.4,0.7,2.6,1.7,3.5,3
		c0.9,1.2,1.4,2.6,1.6,4.2v0.5h-21.5c0.2-1.1,0.5-2.1,1-3C589.2,137.7,590.5,136.2,592.4,135.3z"></path>
	<path class="st0 MybdreCX_16" d="M509.9,5.7c-1.9,0-3.4,0.5-4.6,1.6c-1.1,1-1.7,2.4-1.7,4.1c0,1.8,0.5,3.2,1.6,4.2c1.1,1,2.7,1.4,4.6,1.4
		c1.9,0,3.4-0.5,4.6-1.6c1.1-1.1,1.7-2.4,1.7-4.1c0-1.8-0.6-3.2-1.7-4.2C513.4,6.2,511.9,5.7,509.9,5.7z"></path>
	<path class="st0 MybdreCX_17" width="9.8" height="42.2" d="M505.1 26 L514.9 26 L514.9 68.2 L505.1 68.2 Z"></path>
	<path class="st0 MybdreCX_18" d="M639.6,135.6c1.9-1.2,4-1.8,6.4-1.8c1.3,0,2.7,0.3,4.1,0.8c1.4,0.5,2.8,1.3,4,2.2c1.2,0.9,2.2,1.9,3,3l5.4-6.6
		c-1.7-2.5-4.1-4.5-7.2-5.9c-3.1-1.5-6.5-2.2-10.2-2.2c-3.9,0-7.5,1-10.6,2.9c-3.1,1.9-5.6,4.5-7.4,7.8c-1.8,3.3-2.7,7-2.7,11.2
		c0,4.2,0.9,7.9,2.7,11.2c1.8,3.3,4.3,5.9,7.4,7.8c3.1,1.9,6.7,2.9,10.6,2.9c3.5,0,6.8-0.7,10-2.2s5.7-3.4,7.4-5.8l-5.4-6.6
		c-1,1.3-2.1,2.3-3.4,3.2c-1.2,0.9-2.4,1.5-3.7,2c-1.3,0.4-2.6,0.6-4.1,0.6c-2.3,0-4.4-0.6-6.2-1.8c-1.9-1.2-3.4-2.7-4.5-4.7
		c-1.1-2-1.6-4.2-1.6-6.7c0-2.5,0.5-4.7,1.6-6.7C636.4,138.3,637.8,136.7,639.6,135.6z"></path>
	<path class="st0 MybdreCX_19" width="9.8" height="42.2" d="M395.7 126 L405.5 126 L405.5 168.2 L395.7 168.2 Z"></path>
	<path class="st0 MybdreCX_20" d="M400.5,105.7c-1.9,0-3.4,0.5-4.6,1.6c-1.1,1-1.7,2.4-1.7,4.1c0,1.8,0.5,3.2,1.6,4.2c1.1,1,2.7,1.4,4.6,1.4
		c1.9,0,3.4-0.5,4.6-1.6c1.1-1.1,1.7-2.4,1.7-4.1c0-1.8-0.6-3.2-1.7-4.2C404,106.2,402.5,105.7,400.5,105.7z"></path>
	<path class="st0 MybdreCX_21" d="M498.9,127c-2.1-1.3-4.8-1.9-8-1.9c-2.3,0-4.5,0.5-6.6,1.5c-2.1,1-4,2.2-5.5,3.8c-0.5,0.5-0.9,1.1-1.3,1.6
		l-0.1-6.1h-9.5v42.2c0.7,0,1.4,0,2.2,0c0.9,0,1.7,0,2.6,0h4.9v-25.4c0-1.3,0.2-2.5,0.7-3.5c0.5-1.1,1.2-2.1,2.1-2.9
		c0.9-0.9,2-1.5,3.2-1.9c1.2-0.5,2.6-0.7,4-0.7c1.8-0.1,3.3,0.2,4.5,0.9c1.2,0.6,2.1,1.7,2.7,3.1c0.6,1.4,0.9,3.2,0.9,5.4v25h9.8
		v-25.8c0-3.8-0.5-7-1.6-9.6C502.7,130.2,501.1,128.3,498.9,127z"></path>
	<path class="st0 MybdreCX_22" d="M448.3,128c-3.3-1.9-7-2.9-11.2-2.9c-4.2,0-8,1-11.3,2.9c-3.3,1.9-5.9,4.5-7.8,7.8c-1.9,3.3-2.8,7.1-2.8,11.3
		s0.9,8,2.8,11.3c1.9,3.3,4.5,5.9,7.8,7.8c3.3,1.9,7.1,2.8,11.3,2.8c4.2,0,7.9-0.9,11.2-2.8c3.3-1.9,5.9-4.5,7.8-7.8
		c1.9-3.3,2.9-7.1,2.9-11.3s-1-8-2.9-11.3C454.2,132.4,451.6,129.8,448.3,128z M447.5,153.8c-1,2-2.4,3.5-4.2,4.7
		c-1.8,1.1-3.9,1.7-6.2,1.7c-2.3,0-4.4-0.6-6.2-1.7c-1.8-1.2-3.2-2.7-4.2-4.7c-1-2-1.5-4.3-1.5-6.8c0-2.5,0.5-4.7,1.5-6.7
		c1-2,2.4-3.6,4.2-4.7c1.9-1.2,3.9-1.8,6.2-1.8c2.3,0,4.3,0.6,6.2,1.7c1.8,1.1,3.2,2.7,4.2,4.7c1.1,2,1.6,4.2,1.5,6.8
		C449.1,149.5,448.6,151.8,447.5,153.8z"></path>
	<path class="st0 MybdreCX_23" d="M399.1,30.8c-0.7-0.7-1.5-1.4-2.4-2.1c-1.5-1.1-3.2-2-5.1-2.6c-1.9-0.6-3.8-1-5.8-1c-3.7,0-7.1,1-10.1,2.9
		c-2.9,1.9-5.3,4.5-7,7.8c-1.7,3.3-2.6,7.1-2.6,11.3c0,4.3,0.9,8.1,2.6,11.4c1.8,3.3,4.1,5.8,7,7.8c3,1.9,6.4,2.8,10.2,2.8
		c1.9,0,3.8-0.3,5.6-0.9c1.8-0.6,3.4-1.5,4.8-2.5c1.2-0.8,2.2-1.8,3-2.8l0.1,5.3h9.5V8.9h-9.8V30.8z M397.9,54.1
		c-1,2-2.3,3.6-4.1,4.8c-1.8,1.1-3.8,1.7-6.1,1.7c-2.3,0-4.4-0.6-6.2-1.7c-1.7-1.2-3.1-2.8-4.1-4.8c-1-2.1-1.5-4.5-1.5-7.1
		s0.5-5,1.5-7c1-2,2.4-3.6,4.1-4.8c1.8-1.2,3.8-1.8,6.2-1.8c2.3,0,4.3,0.6,6.1,1.8c1.8,1.2,3.1,2.8,4.1,4.8c1,2,1.5,4.4,1.5,7
		S398.9,52.1,397.9,54.1z"></path>
	<path class="st0 MybdreCX_24" d="M891.7,68.1V42.8c0-1.3,0.2-2.5,0.7-3.5c0.5-1.1,1.2-2.1,2.1-2.9c0.9-0.9,2-1.5,3.2-1.9c1.2-0.5,2.6-0.7,4-0.7
		c1.8-0.1,3.3,0.2,4.5,0.9c1.2,0.6,2.1,1.7,2.7,3.1c0.6,1.4,0.9,3.2,0.9,5.4v25h9.8V42.4c0-3.8-0.5-7-1.6-9.6
		c-1.1-2.6-2.7-4.5-4.9-5.8c-2.1-1.3-4.8-1.9-8-1.9c-2.3,0-4.5,0.5-6.6,1.5c-2.1,1-4,2.2-5.5,3.8c-0.5,0.5-0.9,1-1.3,1.5V8.9h-9.7
		v59.2c0.7,0,1.4,0,2.2,0c0.9,0,1.7,0,2.6,0H891.7z"></path>
	<path class="st0 MybdreCX_25" d="M868.5,128c-3.3-1.9-7-2.9-11.2-2.9c-4.2,0-8,1-11.3,2.9c-3.3,1.9-5.9,4.5-7.8,7.8c-1.9,3.3-2.8,7.1-2.8,11.3
		s0.9,8,2.8,11.3c1.9,3.3,4.5,5.9,7.8,7.8c3.3,1.9,7.1,2.8,11.3,2.8c4.2,0,7.9-0.9,11.2-2.8c3.3-1.9,5.9-4.5,7.8-7.8
		c1.9-3.3,2.9-7.1,2.9-11.3s-1-8-2.9-11.3C874.4,132.4,871.8,129.8,868.5,128z M867.7,153.8c-1,2-2.4,3.5-4.2,4.7
		c-1.8,1.1-3.9,1.7-6.2,1.7c-2.3,0-4.4-0.6-6.2-1.7c-1.8-1.2-3.2-2.7-4.2-4.7c-1-2-1.5-4.3-1.5-6.8c0-2.5,0.5-4.7,1.5-6.7
		c1-2,2.4-3.6,4.2-4.7c1.9-1.2,3.9-1.8,6.2-1.8c2.3,0,4.3,0.6,6.2,1.7c1.8,1.1,3.2,2.7,4.2,4.7c1.1,2,1.6,4.2,1.5,6.8
		C869.3,149.5,868.7,151.8,867.7,153.8z"></path>
	<path class="st0 MybdreCX_26" d="M659.5,26.7c-2.4-1.1-5.3-1.6-8.6-1.6c-3.5,0-6.8,0.7-9.8,2.1c-3,1.4-5.8,3.4-8.3,6.1l6.1,6.1
		c1.5-1.9,3.2-3.3,5-4.2c1.8-0.9,3.8-1.4,6.1-1.4c2.4,0,4.3,0.7,5.8,2c1.5,1.3,2.3,3.1,2.3,5.4v1.6h-7.4c-3.1,0-5.8,0.3-8.2,0.9
		c-2.3,0.5-4.3,1.4-5.9,2.5c-1.5,1.1-2.7,2.5-3.5,4.2c-0.8,1.7-1.2,3.6-1.2,5.8c0,2.6,0.6,4.8,1.8,6.7c1.3,1.9,3,3.3,5.1,4.4
		c2.1,1.1,4.6,1.6,7.3,1.6c2,0,4-0.4,5.8-1.2c1.9-0.8,3.7-1.9,5.3-3.3c0.3-0.3,0.6-0.5,0.9-0.8v4.5h9.1v-29c0-3-0.7-5.6-2-7.7
		C663.8,29.4,661.9,27.8,659.5,26.7z M656.4,57.7c-1.2,1.1-2.6,1.9-4.2,2.5c-1.5,0.6-3.2,0.9-5,0.9c-1.2,0-2.3-0.2-3.2-0.6
		c-0.9-0.4-1.6-1-2.2-1.8c-0.5-0.8-0.8-1.7-0.8-2.8c0-1,0.2-1.9,0.6-2.6c0.4-0.7,1-1.4,1.8-1.9c0.8-0.5,1.8-0.9,2.9-1.2
		c1.1-0.3,2.4-0.4,3.8-0.4h7.9v6.3C657.6,56.7,657,57.2,656.4,57.7z"></path>
	<path class="st0 MybdreCX_27" d="M840.1,36.6l2.6-10.7c-0.5-0.2-1.2-0.4-2.1-0.6c-0.8-0.2-1.7-0.2-2.6-0.2c-2,0-4,0.5-5.9,1.5
		c-1.9,1-3.5,2.3-5,4c-0.7,0.8-1.3,1.8-1.8,2.7l-0.1-7.3h-9.6v42.2h9.8V45.6c0-1.4,0.3-2.7,0.8-3.9c0.5-1.2,1.2-2.3,2.1-3.2
		c0.9-0.9,1.9-1.6,3.1-2.1c1.2-0.5,2.5-0.8,3.9-0.8c0.9,0,1.7,0.1,2.5,0.3C838.7,36.1,839.4,36.3,840.1,36.6z"></path>
	<path class="st0 MybdreCX_28" d="M919.4,131.3c-0.5-0.6-1.1-1.2-1.8-1.8c-1-0.9-2.1-1.6-3.4-2.3c-1.3-0.7-2.7-1.2-4.2-1.6
		c-1.5-0.4-3-0.6-4.6-0.6c-3.8,0-7.3,1-10.4,2.9c-3.1,1.9-5.5,4.5-7.3,7.8c-1.8,3.3-2.6,7-2.6,11.2s0.9,7.9,2.6,11.2
		c1.8,3.3,4.3,5.8,7.4,7.7c3.1,1.8,6.6,2.7,10.6,2.7c2.3,0,4.5-0.5,6.7-1.4c2.2-0.9,4-2.1,5.4-3.6c0.5-0.5,0.9-1,1.3-1.5v4
		c0,2.6-0.5,4.8-1.4,6.6c-1,1.8-2.4,3.2-4.3,4.1c-1.9,0.9-4.2,1.4-7,1.4c-2.3,0-4.7-0.4-7-1.1c-2.3-0.7-4.2-1.7-5.8-2.9l-3.5,7.4
		c1.9,1.5,4.4,2.7,7.5,3.7c3.1,1,6.3,1.4,9.4,1.4c3.5,0,6.6-0.5,9.3-1.4c2.7-1,5-2.3,7-4.2c1.9-1.8,3.4-4,4.3-6.6
		c1-2.6,1.5-5.6,1.5-9V126h-9.5L919.4,131.3z M913.7,158.5c-1.9,1.1-4,1.7-6.5,1.7c-2.3,0-4.5-0.6-6.3-1.7c-1.8-1.1-3.3-2.7-4.3-4.6
		c-1-2-1.5-4.2-1.5-6.8s0.5-4.8,1.5-6.8c1.1-2,2.5-3.6,4.3-4.7c1.9-1.2,4-1.8,6.3-1.8c2.5,0,4.6,0.6,6.4,1.7
		c1.9,1.1,3.3,2.7,4.3,4.7c1.1,2,1.6,4.3,1.6,6.9c0,2.6-0.5,4.8-1.5,6.8S915.6,157.3,913.7,158.5z"></path>
	<path class="st0 MybdreCX_29" d="M970.4,126l-9.9,27.8c-0.4,1.1-0.8,2.2-1.2,3.3c-0.1-0.2-0.1-0.3-0.2-0.5c-0.4-1.2-0.7-2.1-1.1-2.8L946.3,126
		h-11.3l19.3,43.2l-7.5,17.3h10.2l7.1-18.4l17.5-42.2H970.4z"></path>
	<path class="st0 MybdreCX_30" d="M701.2,127c-2.1-1.3-4.8-1.9-8-1.9c-2.3,0-4.5,0.5-6.6,1.5c-2.1,1-4,2.2-5.5,3.8c-0.5,0.5-0.9,1-1.3,1.5v-23.1
		H670v59.2c0.7,0,1.4,0,2.2,0c0.9,0,1.7,0,2.6,0h4.9v-25.4c0-1.3,0.2-2.5,0.7-3.5c0.5-1.1,1.2-2.1,2.1-2.9c0.9-0.9,2-1.5,3.2-1.9
		c1.2-0.5,2.6-0.7,4-0.7c1.8-0.1,3.3,0.2,4.5,0.9c1.2,0.6,2.1,1.7,2.7,3.1c0.6,1.4,0.9,3.2,0.9,5.4v25h9.8v-25.8
		c0-3.8-0.5-7-1.6-9.6C705,130.2,703.3,128.3,701.2,127z"></path>
	<path class="st0 MybdreCX_31" d="M734.5,44.1L756.7,44.1L756.7,34.9L734.5,34.9L734.5,21.6L760.8,21.6L760.8,12.1L724.2,12.1L
		724.2,68.1L761.1,68.1L761.1,58.7L734.5,58.7Z"></path>
	<path class="st0 MybdreCX_32" d="M797.9,128c-3.3-1.9-7-2.9-11.2-2.9c-4.2,0-8,1-11.3,2.9c-3.3,1.9-5.9,4.5-7.8,7.8c-1.9,3.3-2.8,7.1-2.8,11.3
		s0.9,8,2.8,11.3c1.9,3.3,4.5,5.9,7.8,7.8c3.3,1.9,7.1,2.8,11.3,2.8c4.2,0,7.9-0.9,11.2-2.8c3.3-1.9,5.9-4.5,7.8-7.8
		c1.9-3.3,2.9-7.1,2.9-11.3s-1-8-2.9-11.3C803.8,132.4,801.2,129.8,797.9,128z M797.1,153.8c-1,2-2.4,3.5-4.2,4.7
		c-1.8,1.1-3.9,1.7-6.2,1.7c-2.3,0-4.4-0.6-6.2-1.7c-1.8-1.2-3.2-2.7-4.2-4.7c-1-2-1.5-4.3-1.5-6.8c0-2.5,0.5-4.7,1.5-6.7
		c1-2,2.4-3.6,4.2-4.7c1.9-1.2,3.9-1.8,6.2-1.8c2.3,0,4.3,0.6,6.2,1.7c1.8,1.1,3.2,2.7,4.2,4.7c1.1,2,1.6,4.2,1.5,6.8
		C798.7,149.5,798.2,151.8,797.1,153.8z"></path>
	<path class="st0 MybdreCX_33" width="9.8" height="59.2" d="M817.5 108.9 L827.3 108.9 L827.3 168.10000000000002 L817.5 168.10000000000002 Z"></path>
	<path class="st0 MybdreCX_34" d="M749.9,127c-2.1-1.3-4.8-1.9-8-1.9c-2.3,0-4.5,0.5-6.6,1.5c-2.1,1-4,2.2-5.5,3.8c-0.5,0.5-0.9,1.1-1.3,1.6
		l-0.1-6.1h-9.5v42.2c0.7,0,1.4,0,2.2,0c0.9,0,1.7,0,2.6,0h4.9v-25.4c0-1.3,0.2-2.5,0.7-3.5c0.5-1.1,1.2-2.1,2.1-2.9
		c0.9-0.9,2-1.5,3.2-1.9c1.2-0.5,2.6-0.7,4-0.7c1.8-0.1,3.3,0.2,4.5,0.9c1.2,0.6,2.1,1.7,2.7,3.1c0.6,1.4,0.9,3.2,0.9,5.4v25h9.8
		v-25.8c0-3.8-0.5-7-1.6-9.6C753.7,130.2,752.1,128.3,749.9,127z"></path>
	<path class="st0 MybdreCX_35" d="M478.8,66.1c3.3-1.3,6.1-3.2,8.4-5.7c2.3-2.5,4.2-5.5,5.4-8.9c1.3-3.5,1.9-7.3,1.9-11.4
		c0-4.2-0.6-7.9-1.9-11.4c-1.3-3.4-3.1-6.4-5.4-8.9s-5.2-4.4-8.5-5.8c-3.3-1.3-6.9-2-11-2h-22.5v56h22.5
		C471.8,68.1,475.5,67.5,478.8,66.1z M455.6,58.5V21.7h11.8c2.6,0,4.9,0.4,7,1.3c2.1,0.9,3.8,2.1,5.3,3.7s2.5,3.5,3.3,5.8
		c0.8,2.2,1.2,4.8,1.2,7.6s-0.4,5.4-1.2,7.7c-0.7,2.3-1.8,4.2-3.3,5.8c-1.4,1.5-3.1,2.7-5.2,3.6s-4.4,1.3-7,1.3H455.6z"></path>
	<path class="st0 MybdreCX_36" width="9.8" height="42.2" d="M581 26 L590.8 26 L590.8 68.2 L581 68.2 Z"></path>
	<path class="st0 MybdreCX_37" d="M79,68.1L92.9,47.8L107,68.1L119.8,68.1L99.6,40.4L119,12.1L107,12.1L93.8,32.2L80.2,12.1L67.4,12.1L
		87,39.5L67,68.1Z"></path>
	<path class="st0 MybdreCX_38" d="M27.7,126.7c1.6-1.7,3.5-2.9,5.6-3.8c2.2-0.9,4.5-1.4,7-1.4c2.5,0,4.9,0.6,7.1,1.7c2.3,1.1,4.5,2.7,6.6,4.9
		l6.6-7.1c-1.4-1.9-3.2-3.6-5.4-5c-2.1-1.4-4.5-2.6-7-3.4s-5.2-1.2-7.9-1.2c-3.9,0-7.6,0.7-11,2.2c-3.4,1.4-6.4,3.5-9,6.1
		c-2.6,2.6-4.6,5.7-6,9.1c-1.4,3.5-2.2,7.2-2.2,11.3c0,4.2,0.7,8.1,2,11.7c1.4,3.5,3.3,6.6,5.8,9.2c2.5,2.6,5.4,4.5,8.7,5.9
		c3.4,1.4,7,2.1,11,2.1c2.7,0,5.3-0.3,7.9-1c2.6-0.7,5-1.6,7.1-2.8c2.1-1.2,3.8-2.5,5.1-3.9l-5.1-8.2c-1.1,1.2-2.4,2.2-3.8,3.1
		s-3,1.6-4.6,2.1c-1.7,0.4-3.3,0.6-5,0.6c-2.8,0-5.3-0.4-7.6-1.3c-2.2-0.9-4.2-2.1-5.8-3.8c-1.6-1.7-2.9-3.6-3.8-5.9
		c-0.9-2.3-1.3-4.9-1.3-7.8c0-2.8,0.5-5.3,1.4-7.5C24.9,130.3,26.1,128.4,27.7,126.7z"></path>
	<path class="st0 MybdreCX_39" d="M99.3,128c-3.3-1.9-7-2.9-11.2-2.9c-4.2,0-8,1-11.3,2.9c-3.3,1.9-5.9,4.5-7.8,7.8c-1.9,3.3-2.8,7.1-2.8,11.3
		s0.9,8,2.8,11.3c1.9,3.3,4.5,5.9,7.8,7.8c3.3,1.9,7.1,2.8,11.3,2.8c4.2,0,7.9-0.9,11.2-2.8c3.3-1.9,5.9-4.5,7.8-7.8
		c1.9-3.3,2.9-7.1,2.9-11.3s-1-8-2.9-11.3C105.2,132.4,102.6,129.8,99.3,128z M98.5,153.8c-1,2-2.4,3.5-4.2,4.7
		c-1.8,1.1-3.9,1.7-6.2,1.7c-2.3,0-4.4-0.6-6.2-1.7c-1.8-1.2-3.2-2.7-4.2-4.7c-1-2-1.5-4.3-1.5-6.8c0-2.5,0.5-4.7,1.5-6.7
		c1-2,2.4-3.6,4.2-4.7c1.9-1.2,3.9-1.8,6.2-1.8c2.3,0,4.3,0.6,6.2,1.7s3.2,2.7,4.2,4.7c1.1,2,1.6,4.2,1.5,6.8
		C100,149.5,99.5,151.8,98.5,153.8z"></path>
	<path class="st0 MybdreCX_40" d="M585.8,17c1.9,0,3.4-0.5,4.6-1.6c1.1-1.1,1.7-2.4,1.7-4.1c0-1.8-0.6-3.2-1.7-4.2c-1.1-1-2.6-1.5-4.6-1.5
		c-1.9,0-3.4,0.5-4.6,1.6c-1.1,1-1.7,2.4-1.7,4.1c0,1.8,0.5,3.2,1.6,4.2C582.3,16.5,583.8,17,585.8,17z"></path>
	<path class="st0 MybdreCX_41" d="M855.5,68.1L865.2,68.1L865.2,35.1L874.4,35.1L874.4,26L865.2,26L865.2,15.3L855.5,15.3L855.5,26L
		847.1,26L847.1,35.1L855.5,35.1Z"></path>
	<path class="st0 MybdreCX_42" d="M788.7,42.8c-3.1,0-5.8,0.3-8.2,0.9c-2.3,0.5-4.3,1.4-5.9,2.5c-1.5,1.1-2.7,2.5-3.5,4.2
		c-0.8,1.7-1.2,3.6-1.2,5.8c0,2.6,0.6,4.8,1.8,6.7c1.3,1.9,3,3.3,5.1,4.4c2.1,1.1,4.6,1.6,7.3,1.6c2,0,4-0.4,5.8-1.2
		c1.9-0.8,3.7-1.9,5.3-3.3c0.3-0.3,0.6-0.5,0.9-0.8v4.5h9.1v-29c0-3-0.7-5.6-2-7.7c-1.3-2.1-3.2-3.7-5.7-4.8
		c-2.4-1.1-5.3-1.6-8.6-1.6c-3.5,0-6.8,0.7-9.8,2.1c-3,1.4-5.8,3.4-8.3,6.1l6.1,6.1c1.5-1.9,3.2-3.3,5-4.2c1.8-0.9,3.8-1.4,6.1-1.4
		c2.4,0,4.3,0.7,5.8,2c1.5,1.3,2.3,3.1,2.3,5.4v1.6H788.7z M794.5,57.7c-1.2,1.1-2.6,1.9-4.2,2.5c-1.5,0.6-3.2,0.9-5,0.9
		c-1.2,0-2.3-0.2-3.2-0.6c-0.9-0.4-1.6-1-2.2-1.8c-0.5-0.8-0.8-1.7-0.8-2.8c0-1,0.2-1.9,0.6-2.6c0.4-0.7,1-1.4,1.8-1.9
		c0.8-0.5,1.8-0.9,2.9-1.2c1.1-0.3,2.4-0.4,3.8-0.4h7.9v6.3C795.6,56.7,795.1,57.2,794.5,57.7z"></path>
	<path class="st0 MybdreCX_43" d="M607.9,68.1L617.6,68.1L617.6,35.1L626.8,35.1L626.8,26L617.6,26L617.6,15.3L607.9,15.3L607.9,26L
		599.6,26L599.6,35.1L607.9,35.1Z"></path>
	<path class="st0 MybdreCX_44" width="9.8" height="59.2" d="M677.6 8.9 L687.4 8.9 L687.4 68.10000000000001 L677.6 68.10000000000001 Z"></path>
	<path class="st0 MybdreCX_45" d="M377.9,115.3L368.1,115.3L368.1,126L359.8,126L359.8,135.1L368.1,135.1L368.1,168.1L377.9,168.1L
		377.9,135.1L387.1,135.1L387.1,126L377.9,126Z"></path>
	<path class="st0 MybdreCX_46" d="M149.8,127c-2.1-1.3-4.8-1.9-8-1.9c-2.3,0-4.5,0.5-6.6,1.5c-2.1,1-4,2.2-5.5,3.8c-0.5,0.5-0.9,1.1-1.3,1.6
		l-0.1-6.1h-9.5v42.2c0.7,0,1.4,0,2.2,0c0.9,0,1.7,0,2.6,0h4.9v-25.4c0-1.3,0.2-2.5,0.7-3.5c0.5-1.1,1.2-2.1,2.1-2.9
		c0.9-0.9,2-1.5,3.2-1.9c1.2-0.5,2.6-0.7,4-0.7c1.8-0.1,3.3,0.2,4.5,0.9c1.2,0.6,2.1,1.7,2.7,3.1c0.6,1.4,0.9,3.2,0.9,5.4v25h9.8
		v-25.8c0-3.8-0.5-7-1.6-9.6C153.6,130.2,152,128.3,149.8,127z"></path>
	<path class="st0 MybdreCX_47" d="M324.3,45.6c0-1.4,0.3-2.7,0.8-3.9c0.5-1.2,1.2-2.3,2.1-3.2c0.9-0.9,1.9-1.6,3.1-2.1c1.2-0.5,2.5-0.8,3.9-0.8
		c0.9,0,1.7,0.1,2.5,0.3c0.9,0.2,1.6,0.4,2.2,0.7l2.6-10.7c-0.5-0.2-1.2-0.4-2.1-0.6c-0.8-0.2-1.7-0.2-2.6-0.2c-2,0-4,0.5-5.9,1.5
		c-1.9,1-3.5,2.3-5,4c-0.7,0.8-1.3,1.8-1.8,2.7l-0.1-7.3h-9.6v42.2h9.8V45.6z"></path>
	<path class="st0 MybdreCX_48" d="M299.1,151.3c0,1.3-0.2,2.6-0.7,3.8c-0.5,1.2-1.1,2.2-2,3c-0.9,0.8-1.9,1.4-3,1.9c-1.1,0.4-2.4,0.6-3.8,0.6
		c-2.8,0-5-1-6.6-2.9c-1.5-1.9-2.3-4.5-2.3-7.8V126h-9.8v26c0,3.5,0.6,6.5,1.8,9c1.2,2.5,2.9,4.5,5.1,5.8c2.2,1.4,4.9,2.1,7.9,2.1
		c2.3,0,4.6-0.5,6.6-1.4c2.1-1,3.9-2.2,5.4-3.8c0.6-0.6,1.1-1.3,1.6-1.9l0.1,6.3h9.5V126h-9.8V151.3z"></path>
	<path class="st0 MybdreCX_49" width="9.8" height="59.2" d="M348.2 8.9 L358 8.9 L358 68.10000000000001 L348.2 68.10000000000001 Z"></path>
	<path class="st0 MybdreCX_50" d="M333.1,135.6c1.9-1.2,4-1.8,6.4-1.8c1.3,0,2.7,0.3,4.1,0.8c1.4,0.5,2.8,1.3,4,2.2c1.2,0.9,2.2,1.9,3,3l5.4-6.6
		c-1.7-2.5-4.1-4.5-7.2-5.9c-3.1-1.5-6.5-2.2-10.2-2.2c-3.9,0-7.5,1-10.6,2.9c-3.1,1.9-5.6,4.5-7.4,7.8s-2.7,7-2.7,11.2
		c0,4.2,0.9,7.9,2.7,11.2c1.8,3.3,4.3,5.9,7.4,7.8s6.7,2.9,10.6,2.9c3.5,0,6.8-0.7,10-2.2s5.7-3.4,7.4-5.8l-5.4-6.6
		c-1,1.3-2.1,2.3-3.4,3.2c-1.2,0.9-2.4,1.5-3.7,2c-1.3,0.4-2.6,0.6-4.1,0.6c-2.3,0-4.4-0.6-6.2-1.8c-1.9-1.2-3.4-2.7-4.5-4.7
		c-1.1-2-1.6-4.2-1.6-6.7c0-2.5,0.5-4.7,1.6-6.7C329.8,138.3,331.3,136.7,333.1,135.6z"></path>
	<path class="st0 MybdreCX_51" d="M176,51.6c1.3-3.5,1.9-7.3,1.9-11.4c0-4.2-0.6-7.9-1.9-11.4c-1.3-3.4-3.1-6.4-5.4-8.9
		c-2.3-2.5-5.2-4.4-8.5-5.8c-3.3-1.3-6.9-2-11-2h-22.5v56h22.5c4.1,0,7.7-0.7,11-2c3.3-1.3,6.1-3.2,8.4-5.7
		C172.9,58,174.7,55,176,51.6z M166.2,47.8c-0.7,2.3-1.8,4.2-3.3,5.8c-1.4,1.5-3.1,2.7-5.2,3.6s-4.4,1.3-7,1.3h-11.8V21.7h11.8
		c2.6,0,4.9,0.4,7,1.3c2.1,0.9,3.8,2.1,5.3,3.7s2.5,3.5,3.3,5.8c0.8,2.2,1.2,4.8,1.2,7.6S167,45.5,166.2,47.8z"></path>
	<path class="st0 MybdreCX_52" d="M283.8,68.9c4.2,0,7.9-0.9,11.2-2.8c3.3-1.9,5.9-4.5,7.8-7.8c1.9-3.3,2.9-7.1,2.9-11.3s-1-8-2.9-11.3
		c-1.9-3.3-4.5-5.9-7.8-7.8c-3.3-1.9-7-2.9-11.2-2.9c-4.2,0-8,1-11.3,2.9c-3.3,1.9-5.9,4.5-7.8,7.8c-1.9,3.3-2.8,7.1-2.8,11.3
		s0.9,8,2.8,11.3c1.9,3.3,4.5,5.9,7.8,7.8C275.9,68,279.6,68.9,283.8,68.9z M273.4,40.3c1-2,2.4-3.6,4.2-4.7
		c1.9-1.2,3.9-1.8,6.2-1.8c2.3,0,4.3,0.6,6.2,1.7c1.8,1.1,3.2,2.7,4.2,4.7c1.1,2,1.6,4.2,1.5,6.8c0.1,2.5-0.5,4.8-1.5,6.8
		c-1,2-2.4,3.5-4.2,4.7c-1.8,1.1-3.9,1.7-6.2,1.7c-2.3,0-4.4-0.6-6.2-1.7c-1.8-1.2-3.2-2.7-4.2-4.7c-1-2-1.5-4.3-1.5-6.8
		S272.4,42.3,273.4,40.3z"></path>
	<path class="st0 MybdreCX_53" d="M220.6,115.3L210.8,115.3L210.8,126L202.5,126L202.5,135.1L210.8,135.1L210.8,168.1L220.6,168.1L
		220.6,135.1L229.8,135.1L229.8,126L220.6,126Z"></path>
	<path class="st0 MybdreCX_54" d="M194.7,148.3c-1-1.1-2.4-2.1-4.2-3c-1.8-0.9-3.9-1.6-6.6-2.3c-1.9-0.4-3.4-0.9-4.6-1.4c-1.2-0.5-2-0.9-2.6-1.3
		c-0.5-0.4-1-0.8-1.3-1.4c-0.3-0.6-0.4-1.2-0.5-1.9c0-0.7,0.1-1.3,0.4-1.8c0.3-0.6,0.7-1.1,1.3-1.4c0.5-0.4,1.2-0.6,2-0.8
		c0.8-0.2,1.7-0.3,2.7-0.3c1.1,0,2.2,0.2,3.4,0.6c1.2,0.4,2.4,1,3.6,1.8c1.2,0.7,2.3,1.6,3.3,2.6l5.4-6c-1.2-1.4-2.7-2.6-4.4-3.5
		c-1.7-1-3.6-1.8-5.6-2.3c-2-0.5-4-0.8-6.2-0.8c-2.9,0-5.5,0.5-7.8,1.6c-2.3,1.1-4.2,2.5-5.7,4.4c-1.4,1.9-2.1,4-2.1,6.4
		c0,1.5,0.2,3,0.6,4.2c0.4,1.2,1.1,2.4,2,3.4c1.1,1.2,2.6,2.3,4.5,3.4c2,1,4.4,1.8,7.3,2.6c1.8,0.4,3.3,0.9,4.4,1.4
		c1.1,0.4,1.9,0.8,2.5,1.1c1,0.7,1.4,1.8,1.4,3c0,0.7-0.2,1.3-0.5,1.9c-0.3,0.6-0.7,1.1-1.2,1.5c-0.5,0.4-1.2,0.7-1.9,1
		c-0.7,0.2-1.5,0.3-2.4,0.3c-2.2,0-4.3-0.4-6.2-1.2c-2-0.9-3.8-2.2-5.4-3.9l-6.3,5.4c1.9,2.3,4.3,4.2,7.2,5.4c3,1.2,6.3,1.8,10,1.8
		c3,0,5.8-0.6,8.2-1.7s4.3-2.6,5.7-4.6c1.4-2,2.2-4.2,2.2-6.7c0-1.6-0.2-3-0.6-4.3C196.5,150.4,195.8,149.3,194.7,148.3z"></path>
	<path class="st0 MybdreCX_55" d="M259.5,12.1h-10.8l-9.8,33c-0.4,1.4-0.7,2.5-1,3.4c-0.2,0.9-0.4,1.6-0.5,2.2c-0.1,0.5-0.2,1.1-0.3,1.7
		c-0.2-1-0.5-2-0.8-3c-0.4-1.4-0.9-2.8-1.4-4.2L225.5,21h-8.8l-9.5,24.2c-0.3,0.9-0.6,1.8-0.9,2.8c-0.3,1-0.6,2.3-1,3.8
		c-0.1,0.3-0.2,0.7-0.3,1.1c-0.2-1-0.4-2.1-0.6-3.2c-0.3-1.7-0.7-3.1-1.1-4.5l-10.1-33.2h-10.7l17.5,56h7.4l13.1-32.7l13.7,32.7h7.5
		L259.5,12.1z"></path>
	<path class="st0 MybdreCX_56" d="M259.7,125.1c-2,0-4,0.5-5.9,1.5c-1.9,1-3.5,2.3-5,4c-0.7,0.8-1.3,1.8-1.8,2.7l-0.1-7.3h-9.6v42.2h9.8v-22.6
		c0-1.4,0.3-2.7,0.8-3.9c0.5-1.2,1.2-2.3,2.1-3.2c0.9-0.9,1.9-1.6,3.1-2.1c1.2-0.5,2.5-0.8,3.9-0.8c0.9,0,1.7,0.1,2.5,0.3
		c0.9,0.2,1.6,0.4,2.2,0.7l2.6-10.7c-0.5-0.2-1.2-0.4-2.1-0.6C261.5,125.2,260.6,125.1,259.7,125.1z"></path>
</g>
<style data-made-with="vivus-instant">.MybdreCX_0{stroke-dasharray:53 55;stroke-dashoffset:54;animation:MybdreCX_draw 2000ms linear 0ms forwards;}.MybdreCX_1{stroke-dasharray:117 119;stroke-dashoffset:118;animation:MybdreCX_draw 2000ms linear 17ms forwards;}.MybdreCX_2{stroke-dasharray:49 51;stroke-dashoffset:50;animation:MybdreCX_draw 2000ms linear 35ms forwards;}.MybdreCX_3{stroke-dasharray:80 82;stroke-dashoffset:81;animation:MybdreCX_draw 2000ms linear 53ms forwards;}.MybdreCX_4{stroke-dasharray:81 83;stroke-dashoffset:82;animation:MybdreCX_draw 2000ms linear 71ms forwards;}.MybdreCX_5{stroke-dasharray:49 51;stroke-dashoffset:50;animation:MybdreCX_draw 2000ms linear 89ms forwards;}.MybdreCX_6{stroke-dasharray:117 119;stroke-dashoffset:118;animation:MybdreCX_draw 2000ms linear 107ms forwards;}.MybdreCX_7{stroke-dasharray:81 83;stroke-dashoffset:82;animation:MybdreCX_draw 2000ms linear 125ms forwards;}.MybdreCX_8{stroke-dasharray:80 82;stroke-dashoffset:81;animation:MybdreCX_draw 2000ms linear 142ms forwards;}.MybdreCX_9{stroke-dasharray:80 82;stroke-dashoffset:81;animation:MybdreCX_draw 2000ms linear 160ms forwards;}.MybdreCX_10{stroke-dasharray:80 82;stroke-dashoffset:81;animation:MybdreCX_draw 2000ms linear 178ms forwards;}.MybdreCX_11{stroke-dasharray:80 82;stroke-dashoffset:81;animation:MybdreCX_draw 2000ms linear 196ms forwards;}.MybdreCX_12{stroke-dasharray:81 83;stroke-dashoffset:82;animation:MybdreCX_draw 2000ms linear 214ms forwards;}.MybdreCX_13{stroke-dasharray:198 200;stroke-dashoffset:199;animation:MybdreCX_draw 2000ms linear 232ms forwards;}.MybdreCX_14{stroke-dasharray:332 334;stroke-dashoffset:333;animation:MybdreCX_draw 2000ms linear 250ms forwards;}.MybdreCX_15{stroke-dasharray:247 249;stroke-dashoffset:248;animation:MybdreCX_draw 2000ms linear 267ms forwards;}.MybdreCX_16{stroke-dasharray:39 41;stroke-dashoffset:40;animation:MybdreCX_draw 2000ms linear 285ms forwards;}.MybdreCX_17{stroke-dasharray:105 107;stroke-dashoffset:106;animation:MybdreCX_draw 2000ms linear 303ms forwards;}.MybdreCX_18{stroke-dasharray:191 193;stroke-dashoffset:192;animation:MybdreCX_draw 2000ms linear 321ms forwards;}.MybdreCX_19{stroke-dasharray:104 106;stroke-dashoffset:105;animation:MybdreCX_draw 2000ms linear 339ms forwards;}.MybdreCX_20{stroke-dasharray:39 41;stroke-dashoffset:40;animation:MybdreCX_draw 2000ms linear 357ms forwards;}.MybdreCX_21{stroke-dasharray:225 227;stroke-dashoffset:226;animation:MybdreCX_draw 2000ms linear 375ms forwards;}.MybdreCX_22{stroke-dasharray:219 221;stroke-dashoffset:220;animation:MybdreCX_draw 2000ms linear 392ms forwards;}.MybdreCX_23{stroke-dasharray:283 285;stroke-dashoffset:284;animation:MybdreCX_draw 2000ms linear 410ms forwards;}.MybdreCX_24{stroke-dasharray:259 261;stroke-dashoffset:260;animation:MybdreCX_draw 2000ms linear 428ms forwards;}.MybdreCX_25{stroke-dasharray:219 221;stroke-dashoffset:220;animation:MybdreCX_draw 2000ms linear 446ms forwards;}.MybdreCX_26{stroke-dasharray:240 242;stroke-dashoffset:241;animation:MybdreCX_draw 2000ms linear 464ms forwards;}.MybdreCX_27{stroke-dasharray:144 146;stroke-dashoffset:145;animation:MybdreCX_draw 2000ms linear 482ms forwards;}.MybdreCX_28{stroke-dasharray:332 334;stroke-dashoffset:333;animation:MybdreCX_draw 2000ms linear 500ms forwards;}.MybdreCX_29{stroke-dasharray:232 234;stroke-dashoffset:233;animation:MybdreCX_draw 2000ms linear 517ms forwards;}.MybdreCX_30{stroke-dasharray:259 261;stroke-dashoffset:260;animation:MybdreCX_draw 2000ms linear 535ms forwards;}.MybdreCX_31{stroke-dasharray:283 285;stroke-dashoffset:284;animation:MybdreCX_draw 2000ms linear 553ms forwards;}.MybdreCX_32{stroke-dasharray:219 221;stroke-dashoffset:220;animation:MybdreCX_draw 2000ms linear 571ms forwards;}.MybdreCX_33{stroke-dasharray:138 140;stroke-dashoffset:139;animation:MybdreCX_draw 2000ms linear 589ms forwards;}.MybdreCX_34{stroke-dasharray:225 227;stroke-dashoffset:226;animation:MybdreCX_draw 2000ms linear 607ms forwards;}.MybdreCX_35{stroke-dasharray:306 308;stroke-dashoffset:307;animation:MybdreCX_draw 2000ms linear 625ms forwards;}.MybdreCX_36{stroke-dasharray:104 106;stroke-dashoffset:105;animation:MybdreCX_draw 2000ms linear 642ms forwards;}.MybdreCX_37{stroke-dasharray:285 287;stroke-dashoffset:286;animation:MybdreCX_draw 2000ms linear 660ms forwards;}.MybdreCX_38{stroke-dasharray:244 246;stroke-dashoffset:245;animation:MybdreCX_draw 2000ms linear 678ms forwards;}.MybdreCX_39{stroke-dasharray:219 221;stroke-dashoffset:220;animation:MybdreCX_draw 2000ms linear 696ms forwards;}.MybdreCX_40{stroke-dasharray:39 41;stroke-dashoffset:40;animation:MybdreCX_draw 2000ms linear 714ms forwards;}.MybdreCX_41{stroke-dasharray:161 163;stroke-dashoffset:162;animation:MybdreCX_draw 2000ms linear 732ms forwards;}.MybdreCX_42{stroke-dasharray:240 242;stroke-dashoffset:241;animation:MybdreCX_draw 2000ms linear 750ms forwards;}.MybdreCX_43{stroke-dasharray:161 163;stroke-dashoffset:162;animation:MybdreCX_draw 2000ms linear 767ms forwards;}.MybdreCX_44{stroke-dasharray:139 141;stroke-dashoffset:140;animation:MybdreCX_draw 2000ms linear 785ms forwards;}.MybdreCX_45{stroke-dasharray:161 163;stroke-dashoffset:162;animation:MybdreCX_draw 2000ms linear 803ms forwards;}.MybdreCX_46{stroke-dasharray:225 227;stroke-dashoffset:226;animation:MybdreCX_draw 2000ms linear 821ms forwards;}.MybdreCX_47{stroke-dasharray:144 146;stroke-dashoffset:145;animation:MybdreCX_draw 2000ms linear 839ms forwards;}.MybdreCX_48{stroke-dasharray:225 227;stroke-dashoffset:226;animation:MybdreCX_draw 2000ms linear 857ms forwards;}.MybdreCX_49{stroke-dasharray:138 140;stroke-dashoffset:139;animation:MybdreCX_draw 2000ms linear 875ms forwards;}.MybdreCX_50{stroke-dasharray:191 193;stroke-dashoffset:192;animation:MybdreCX_draw 2000ms linear 892ms forwards;}.MybdreCX_51{stroke-dasharray:305 307;stroke-dashoffset:306;animation:MybdreCX_draw 2000ms linear 910ms forwards;}.MybdreCX_52{stroke-dasharray:219 221;stroke-dashoffset:220;animation:MybdreCX_draw 2000ms linear 928ms forwards;}.MybdreCX_53{stroke-dasharray:161 163;stroke-dashoffset:162;animation:MybdreCX_draw 2000ms linear 946ms forwards;}.MybdreCX_54{stroke-dasharray:206 208;stroke-dashoffset:207;animation:MybdreCX_draw 2000ms linear 964ms forwards;}.MybdreCX_55{stroke-dasharray:386 388;stroke-dashoffset:387;animation:MybdreCX_draw 2000ms linear 982ms forwards;}.MybdreCX_56{stroke-dasharray:144 146;stroke-dashoffset:145;animation:MybdreCX_draw 2000ms linear 1000ms forwards;}@keyframes MybdreCX_draw{100%{stroke-dashoffset:0;}}@keyframes MybdreCX_fade{0%{stroke-opacity:1;}94.44444444444444%{stroke-opacity:1;}100%{stroke-opacity:0;}}</style></svg>
