<?xml version="1.0" encoding="utf-8"?>
<!-- Generator: Adobe Illustrator 24.1.2, SVG Export Plug-In . SVG Version: 6.00 Build 0)  -->
<svg version="1.1" id="Layer_1" xmlns="http://www.w3.org/2000/svg" xmlns:xlink="http://www.w3.org/1999/xlink" x="0px" y="0px"
	 viewBox="0 0 987.9 191.8" style="enable-background:new 0 0 987.9 191.8;" xml:space="preserve">
  <style type="text/css">
    .st0{fill:#fff;}
  </style>
<g>
	<path class="st0" d="M579.6,112.1h-42.7v9.6h16v46.4h10.3v-46.4h16.4V112.1z"/>
	<path class="st0" d="M557.2,72.6c-1,1.8-2.4,3.2-4.3,4.1c-1.9,0.9-4.2,1.4-7,1.4c-2.3,0-4.7-0.4-7-1.1s-4.2-1.7-5.8-2.9l-3.5,7.4
		c1.9,1.5,4.4,2.7,7.5,3.7s6.3,1.4,9.4,1.4c3.5,0,6.6-0.5,9.3-1.4c2.7-1,5-2.3,7-4.2c1.9-1.8,3.4-4,4.3-6.6c1-2.6,1.5-5.6,1.5-9V26
		h-9.5l-0.1,5.4c-0.5-0.6-1.1-1.2-1.8-1.8c-1-0.9-2.1-1.6-3.4-2.3c-1.3-0.7-2.7-1.2-4.2-1.6s-3-0.6-4.6-0.6c-3.8,0-7.3,1-10.4,2.9
		c-3.1,1.9-5.5,4.5-7.3,7.8s-2.6,7-2.6,11.2s0.9,7.9,2.6,11.2c1.8,3.3,4.3,5.8,7.4,7.7c3.1,1.8,6.6,2.7,10.6,2.7
		c2.3,0,4.5-0.5,6.7-1.4s4-2.1,5.4-3.6c0.5-0.5,0.9-1,1.3-1.5v4C558.7,68.7,558.2,70.9,557.2,72.6z M553.1,58.5
		c-1.9,1.1-4,1.7-6.5,1.7c-2.3,0-4.5-0.6-6.3-1.7c-1.8-1.1-3.3-2.7-4.3-4.6c-1-2-1.5-4.2-1.5-6.8s0.5-4.8,1.5-6.8
		c1.1-2,2.5-3.6,4.3-4.7c1.9-1.2,4-1.8,6.3-1.8c2.5,0,4.6,0.6,6.4,1.7c1.9,1.1,3.3,2.7,4.3,4.7c1.1,2,1.6,4.3,1.6,6.9
		c0,2.6-0.5,4.8-1.5,6.8S555,57.3,553.1,58.5z"/>
	<path class="st0" d="M612.9,131c-1.8-1.9-3.8-3.3-6.2-4.4c-2.3-1.1-4.9-1.6-7.8-1.6c-3.1,0-6,0.6-8.6,1.7s-4.9,2.6-6.8,4.6
		c-1.9,2-3.4,4.3-4.5,7s-1.6,5.7-1.6,9c0,4.2,0.9,7.9,2.8,11.2c1.9,3.2,4.6,5.7,7.9,7.6c3.4,1.8,7.3,2.7,11.8,2.7c2,0,4-0.3,6-0.8
		s3.9-1.3,5.8-2.2c1.9-1,3.5-2.1,5-3.4l-4.8-6.7c-1.9,1.7-3.7,2.8-5.4,3.4c-1.7,0.6-3.5,1-5.4,1c-2.8,0-5.3-0.6-7.4-1.7
		c-2.1-1.1-3.8-2.7-5-4.7c-0.7-1.3-1.2-2.8-1.5-4.5h31.1l0.1-3.5c0.1-3-0.4-5.7-1.4-8.2C616,135,614.7,132.8,612.9,131z
		 M592.4,135.3c1.8-1,4-1.5,6.6-1.5c1.7,0,3.3,0.4,4.6,1.1c1.4,0.7,2.6,1.7,3.5,3c0.9,1.2,1.4,2.6,1.6,4.2v0.5h-21.5
		c0.2-1.1,0.5-2.1,1-3C589.2,137.7,590.5,136.2,592.4,135.3z"/>
	<path class="st0" d="M509.9,5.7c-1.9,0-3.4,0.5-4.6,1.6c-1.1,1-1.7,2.4-1.7,4.1c0,1.8,0.5,3.2,1.6,4.2c1.1,1,2.7,1.4,4.6,1.4
		s3.4-0.5,4.6-1.6c1.1-1.1,1.7-2.4,1.7-4.1c0-1.8-0.6-3.2-1.7-4.2C513.4,6.2,511.9,5.7,509.9,5.7z"/>
	<path class="st0" d="M505.1,26h9.8v42.2h-9.8V26z"/>
	<path class="st0" d="M639.6,135.6c1.9-1.2,4-1.8,6.4-1.8c1.3,0,2.7,0.3,4.1,0.8c1.4,0.5,2.8,1.3,4,2.2s2.2,1.9,3,3l5.4-6.6
		c-1.7-2.5-4.1-4.5-7.2-5.9c-3.1-1.5-6.5-2.2-10.2-2.2c-3.9,0-7.5,1-10.6,2.9s-5.6,4.5-7.4,7.8c-1.8,3.3-2.7,7-2.7,11.2
		s0.9,7.9,2.7,11.2s4.3,5.9,7.4,7.8c3.1,1.9,6.7,2.9,10.6,2.9c3.5,0,6.8-0.7,10-2.2s5.7-3.4,7.4-5.8l-5.4-6.6
		c-1,1.3-2.1,2.3-3.4,3.2c-1.2,0.9-2.4,1.5-3.7,2c-1.3,0.4-2.6,0.6-4.1,0.6c-2.3,0-4.4-0.6-6.2-1.8c-1.9-1.2-3.4-2.7-4.5-4.7
		s-1.6-4.2-1.6-6.7s0.5-4.7,1.6-6.7C636.4,138.3,637.8,136.7,639.6,135.6z"/>
	<path class="st0" d="M395.7,126h9.8v42.2h-9.8V126z"/>
	<path class="st0" d="M400.5,105.7c-1.9,0-3.4,0.5-4.6,1.6c-1.1,1-1.7,2.4-1.7,4.1c0,1.8,0.5,3.2,1.6,4.2s2.7,1.4,4.6,1.4
		s3.4-0.5,4.6-1.6c1.1-1.1,1.7-2.4,1.7-4.1c0-1.8-0.6-3.2-1.7-4.2C404,106.2,402.5,105.7,400.5,105.7z"/>
	<path class="st0" d="M498.9,127c-2.1-1.3-4.8-1.9-8-1.9c-2.3,0-4.5,0.5-6.6,1.5s-4,2.2-5.5,3.8c-0.5,0.5-0.9,1.1-1.3,1.6l-0.1-6.1
		h-9.5v42.2c0.7,0,1.4,0,2.2,0c0.9,0,1.7,0,2.6,0h4.9v-25.4c0-1.3,0.2-2.5,0.7-3.5c0.5-1.1,1.2-2.1,2.1-2.9c0.9-0.9,2-1.5,3.2-1.9
		c1.2-0.5,2.6-0.7,4-0.7c1.8-0.1,3.3,0.2,4.5,0.9c1.2,0.6,2.1,1.7,2.7,3.1c0.6,1.4,0.9,3.2,0.9,5.4v25h9.8v-25.8
		c0-3.8-0.5-7-1.6-9.6C502.7,130.2,501.1,128.3,498.9,127z"/>
	<path class="st0" d="M448.3,128c-3.3-1.9-7-2.9-11.2-2.9s-8,1-11.3,2.9s-5.9,4.5-7.8,7.8s-2.8,7.1-2.8,11.3s0.9,8,2.8,11.3
		s4.5,5.9,7.8,7.8c3.3,1.9,7.1,2.8,11.3,2.8c4.2,0,7.9-0.9,11.2-2.8c3.3-1.9,5.9-4.5,7.8-7.8s2.9-7.1,2.9-11.3s-1-8-2.9-11.3
		C454.2,132.4,451.6,129.8,448.3,128z M447.5,153.8c-1,2-2.4,3.5-4.2,4.7c-1.8,1.1-3.9,1.7-6.2,1.7c-2.3,0-4.4-0.6-6.2-1.7
		c-1.8-1.2-3.2-2.7-4.2-4.7s-1.5-4.3-1.5-6.8s0.5-4.7,1.5-6.7s2.4-3.6,4.2-4.7c1.9-1.2,3.9-1.8,6.2-1.8c2.3,0,4.3,0.6,6.2,1.7
		c1.8,1.1,3.2,2.7,4.2,4.7c1.1,2,1.6,4.2,1.5,6.8C449.1,149.5,448.6,151.8,447.5,153.8z"/>
	<path class="st0" d="M399.1,30.8c-0.7-0.7-1.5-1.4-2.4-2.1c-1.5-1.1-3.2-2-5.1-2.6s-3.8-1-5.8-1c-3.7,0-7.1,1-10.1,2.9
		c-2.9,1.9-5.3,4.5-7,7.8s-2.6,7.1-2.6,11.3c0,4.3,0.9,8.1,2.6,11.4c1.8,3.3,4.1,5.8,7,7.8c3,1.9,6.4,2.8,10.2,2.8
		c1.9,0,3.8-0.3,5.6-0.9c1.8-0.6,3.4-1.5,4.8-2.5c1.2-0.8,2.2-1.8,3-2.8l0.1,5.3h9.5V8.9h-9.8L399.1,30.8L399.1,30.8z M397.9,54.1
		c-1,2-2.3,3.6-4.1,4.8c-1.8,1.1-3.8,1.7-6.1,1.7c-2.3,0-4.4-0.6-6.2-1.7c-1.7-1.2-3.1-2.8-4.1-4.8c-1-2.1-1.5-4.5-1.5-7.1
		s0.5-5,1.5-7s2.4-3.6,4.1-4.8c1.8-1.2,3.8-1.8,6.2-1.8c2.3,0,4.3,0.6,6.1,1.8c1.8,1.2,3.1,2.8,4.1,4.8s1.5,4.4,1.5,7
		S398.9,52.1,397.9,54.1z"/>
	<path class="st0" d="M891.7,68.1V42.8c0-1.3,0.2-2.5,0.7-3.5c0.5-1.1,1.2-2.1,2.1-2.9c0.9-0.9,2-1.5,3.2-1.9c1.2-0.5,2.6-0.7,4-0.7
		c1.8-0.1,3.3,0.2,4.5,0.9c1.2,0.6,2.1,1.7,2.7,3.1c0.6,1.4,0.9,3.2,0.9,5.4v25h9.8V42.4c0-3.8-0.5-7-1.6-9.6s-2.7-4.5-4.9-5.8
		c-2.1-1.3-4.8-1.9-8-1.9c-2.3,0-4.5,0.5-6.6,1.5s-4,2.2-5.5,3.8c-0.5,0.5-0.9,1-1.3,1.5v-23H882v59.2c0.7,0,1.4,0,2.2,0
		c0.9,0,1.7,0,2.6,0H891.7z"/>
	<path class="st0" d="M868.5,128c-3.3-1.9-7-2.9-11.2-2.9s-8,1-11.3,2.9s-5.9,4.5-7.8,7.8c-1.9,3.3-2.8,7.1-2.8,11.3s0.9,8,2.8,11.3
		c1.9,3.3,4.5,5.9,7.8,7.8c3.3,1.9,7.1,2.8,11.3,2.8s7.9-0.9,11.2-2.8c3.3-1.9,5.9-4.5,7.8-7.8c1.9-3.3,2.9-7.1,2.9-11.3
		s-1-8-2.9-11.3C874.4,132.4,871.8,129.8,868.5,128z M867.7,153.8c-1,2-2.4,3.5-4.2,4.7c-1.8,1.1-3.9,1.7-6.2,1.7s-4.4-0.6-6.2-1.7
		c-1.8-1.2-3.2-2.7-4.2-4.7s-1.5-4.3-1.5-6.8s0.5-4.7,1.5-6.7s2.4-3.6,4.2-4.7c1.9-1.2,3.9-1.8,6.2-1.8s4.3,0.6,6.2,1.7
		c1.8,1.1,3.2,2.7,4.2,4.7c1.1,2,1.6,4.2,1.5,6.8C869.3,149.5,868.7,151.8,867.7,153.8z"/>
	<path class="st0" d="M659.5,26.7c-2.4-1.1-5.3-1.6-8.6-1.6c-3.5,0-6.8,0.7-9.8,2.1s-5.8,3.4-8.3,6.1l6.1,6.1c1.5-1.9,3.2-3.3,5-4.2
		s3.8-1.4,6.1-1.4c2.4,0,4.3,0.7,5.8,2s2.3,3.1,2.3,5.4v1.6h-7.4c-3.1,0-5.8,0.3-8.2,0.9c-2.3,0.5-4.3,1.4-5.9,2.5
		c-1.5,1.1-2.7,2.5-3.5,4.2s-1.2,3.6-1.2,5.8c0,2.6,0.6,4.8,1.8,6.7c1.3,1.9,3,3.3,5.1,4.4s4.6,1.6,7.3,1.6c2,0,4-0.4,5.8-1.2
		c1.9-0.8,3.7-1.9,5.3-3.3c0.3-0.3,0.6-0.5,0.9-0.8v4.5h9.1v-29c0-3-0.7-5.6-2-7.7C663.8,29.4,661.9,27.8,659.5,26.7z M656.4,57.7
		c-1.2,1.1-2.6,1.9-4.2,2.5c-1.5,0.6-3.2,0.9-5,0.9c-1.2,0-2.3-0.2-3.2-0.6c-0.9-0.4-1.6-1-2.2-1.8c-0.5-0.8-0.8-1.7-0.8-2.8
		c0-1,0.2-1.9,0.6-2.6c0.4-0.7,1-1.4,1.8-1.9s1.8-0.9,2.9-1.2c1.1-0.3,2.4-0.4,3.8-0.4h7.9v6.3C657.6,56.7,657,57.2,656.4,57.7z"/>
	<path class="st0" d="M840.1,36.6l2.6-10.7c-0.5-0.2-1.2-0.4-2.1-0.6c-0.8-0.2-1.7-0.2-2.6-0.2c-2,0-4,0.5-5.9,1.5s-3.5,2.3-5,4
		c-0.7,0.8-1.3,1.8-1.8,2.7l-0.1-7.3h-9.6v42.2h9.8V45.6c0-1.4,0.3-2.7,0.8-3.9s1.2-2.3,2.1-3.2c0.9-0.9,1.9-1.6,3.1-2.1
		c1.2-0.5,2.5-0.8,3.9-0.8c0.9,0,1.7,0.1,2.5,0.3C838.7,36.1,839.4,36.3,840.1,36.6z"/>
	<path class="st0" d="M919.4,131.3c-0.5-0.6-1.1-1.2-1.8-1.8c-1-0.9-2.1-1.6-3.4-2.3c-1.3-0.7-2.7-1.2-4.2-1.6s-3-0.6-4.6-0.6
		c-3.8,0-7.3,1-10.4,2.9c-3.1,1.9-5.5,4.5-7.3,7.8s-2.6,7-2.6,11.2s0.9,7.9,2.6,11.2c1.8,3.3,4.3,5.8,7.4,7.7
		c3.1,1.8,6.6,2.7,10.6,2.7c2.3,0,4.5-0.5,6.7-1.4s4-2.1,5.4-3.6c0.5-0.5,0.9-1,1.3-1.5v4c0,2.6-0.5,4.8-1.4,6.6
		c-1,1.8-2.4,3.2-4.3,4.1c-1.9,0.9-4.2,1.4-7,1.4c-2.3,0-4.7-0.4-7-1.1c-2.3-0.7-4.2-1.7-5.8-2.9l-3.5,7.4c1.9,1.5,4.4,2.7,7.5,3.7
		s6.3,1.4,9.4,1.4c3.5,0,6.6-0.5,9.3-1.4c2.7-1,5-2.3,7-4.2c1.9-1.8,3.4-4,4.3-6.6c1-2.6,1.5-5.6,1.5-9V126h-9.5L919.4,131.3z
		 M913.7,158.5c-1.9,1.1-4,1.7-6.5,1.7c-2.3,0-4.5-0.6-6.3-1.7c-1.8-1.1-3.3-2.7-4.3-4.6c-1-2-1.5-4.2-1.5-6.8s0.5-4.8,1.5-6.8
		c1.1-2,2.5-3.6,4.3-4.7c1.9-1.2,4-1.8,6.3-1.8c2.5,0,4.6,0.6,6.4,1.7c1.9,1.1,3.3,2.7,4.3,4.7c1.1,2,1.6,4.3,1.6,6.9
		c0,2.6-0.5,4.8-1.5,6.8S915.6,157.3,913.7,158.5z"/>
	<path class="st0" d="M970.4,126l-9.9,27.8c-0.4,1.1-0.8,2.2-1.2,3.3c-0.1-0.2-0.1-0.3-0.2-0.5c-0.4-1.2-0.7-2.1-1.1-2.8L946.3,126
		H935l19.3,43.2l-7.5,17.3H957l7.1-18.4l17.5-42.2L970.4,126L970.4,126z"/>
	<path class="st0" d="M701.2,127c-2.1-1.3-4.8-1.9-8-1.9c-2.3,0-4.5,0.5-6.6,1.5s-4,2.2-5.5,3.8c-0.5,0.5-0.9,1-1.3,1.5v-23.1H670
		V168c0.7,0,1.4,0,2.2,0c0.9,0,1.7,0,2.6,0h4.9v-25.4c0-1.3,0.2-2.5,0.7-3.5c0.5-1.1,1.2-2.1,2.1-2.9c0.9-0.9,2-1.5,3.2-1.9
		c1.2-0.5,2.6-0.7,4-0.7c1.8-0.1,3.3,0.2,4.5,0.9c1.2,0.6,2.1,1.7,2.7,3.1c0.6,1.4,0.9,3.2,0.9,5.4v25h9.8v-25.8
		c0-3.8-0.5-7-1.6-9.6C705,130.2,703.3,128.3,701.2,127z"/>
	<path class="st0" d="M734.5,44.1h22.2v-9.2h-22.2V21.6h26.3v-9.5h-36.6v56h36.9v-9.4h-26.6V44.1z"/>
	<path class="st0" d="M797.9,128c-3.3-1.9-7-2.9-11.2-2.9s-8,1-11.3,2.9s-5.9,4.5-7.8,7.8c-1.9,3.3-2.8,7.1-2.8,11.3s0.9,8,2.8,11.3
		c1.9,3.3,4.5,5.9,7.8,7.8c3.3,1.9,7.1,2.8,11.3,2.8s7.9-0.9,11.2-2.8c3.3-1.9,5.9-4.5,7.8-7.8c1.9-3.3,2.9-7.1,2.9-11.3
		s-1-8-2.9-11.3C803.8,132.4,801.2,129.8,797.9,128z M797.1,153.8c-1,2-2.4,3.5-4.2,4.7c-1.8,1.1-3.9,1.7-6.2,1.7s-4.4-0.6-6.2-1.7
		c-1.8-1.2-3.2-2.7-4.2-4.7s-1.5-4.3-1.5-6.8s0.5-4.7,1.5-6.7s2.4-3.6,4.2-4.7c1.9-1.2,3.9-1.8,6.2-1.8s4.3,0.6,6.2,1.7
		c1.8,1.1,3.2,2.7,4.2,4.7c1.1,2,1.6,4.2,1.5,6.8C798.7,149.5,798.2,151.8,797.1,153.8z"/>
	<path class="st0" d="M817.5,108.9h9.8v59.2h-9.8V108.9z"/>
	<path class="st0" d="M749.9,127c-2.1-1.3-4.8-1.9-8-1.9c-2.3,0-4.5,0.5-6.6,1.5s-4,2.2-5.5,3.8c-0.5,0.5-0.9,1.1-1.3,1.6l-0.1-6.1
		h-9.5v42.2c0.7,0,1.4,0,2.2,0c0.9,0,1.7,0,2.6,0h4.9v-25.4c0-1.3,0.2-2.5,0.7-3.5c0.5-1.1,1.2-2.1,2.1-2.9c0.9-0.9,2-1.5,3.2-1.9
		c1.2-0.5,2.6-0.7,4-0.7c1.8-0.1,3.3,0.2,4.5,0.9c1.2,0.6,2.1,1.7,2.7,3.1c0.6,1.4,0.9,3.2,0.9,5.4v25h9.8v-25.8
		c0-3.8-0.5-7-1.6-9.6C753.7,130.2,752.1,128.3,749.9,127z"/>
	<path class="st0" d="M478.8,66.1c3.3-1.3,6.1-3.2,8.4-5.7s4.2-5.5,5.4-8.9c1.3-3.5,1.9-7.3,1.9-11.4c0-4.2-0.6-7.9-1.9-11.4
		c-1.3-3.4-3.1-6.4-5.4-8.9s-5.2-4.4-8.5-5.8c-3.3-1.3-6.9-2-11-2h-22.5v56h22.5C471.8,68.1,475.5,67.5,478.8,66.1z M455.6,58.5
		V21.7h11.8c2.6,0,4.9,0.4,7,1.3s3.8,2.1,5.3,3.7s2.5,3.5,3.3,5.8c0.8,2.2,1.2,4.8,1.2,7.6s-0.4,5.4-1.2,7.7
		c-0.7,2.3-1.8,4.2-3.3,5.8c-1.4,1.5-3.1,2.7-5.2,3.6s-4.4,1.3-7,1.3C467.5,58.5,455.6,58.5,455.6,58.5z"/>
	<path class="st0" d="M581,26h9.8v42.2H581V26z"/>
	<path class="st0" d="M79,68.1l13.9-20.3L107,68.1h12.8L99.6,40.4L119,12.1h-12L93.8,32.2L80.2,12.1H67.4L87,39.5L67,68.1H79z"/>
	<path class="st0" d="M27.7,126.7c1.6-1.7,3.5-2.9,5.6-3.8c2.2-0.9,4.5-1.4,7-1.4s4.9,0.6,7.1,1.7c2.3,1.1,4.5,2.7,6.6,4.9l6.6-7.1
		c-1.4-1.9-3.2-3.6-5.4-5c-2.1-1.4-4.5-2.6-7-3.4s-5.2-1.2-7.9-1.2c-3.9,0-7.6,0.7-11,2.2c-3.4,1.4-6.4,3.5-9,6.1s-4.6,5.7-6,9.1
		c-1.4,3.5-2.2,7.2-2.2,11.3c0,4.2,0.7,8.1,2,11.7c1.4,3.5,3.3,6.6,5.8,9.2c2.5,2.6,5.4,4.5,8.7,5.9c3.4,1.4,7,2.1,11,2.1
		c2.7,0,5.3-0.3,7.9-1c2.6-0.7,5-1.6,7.1-2.8s3.8-2.5,5.1-3.9l-5.1-8.2c-1.1,1.2-2.4,2.2-3.8,3.1s-3,1.6-4.6,2.1
		c-1.7,0.4-3.3,0.6-5,0.6c-2.8,0-5.3-0.4-7.6-1.3c-2.2-0.9-4.2-2.1-5.8-3.8c-1.6-1.7-2.9-3.6-3.8-5.9c-0.9-2.3-1.3-4.9-1.3-7.8
		c0-2.8,0.5-5.3,1.4-7.5C24.9,130.3,26.1,128.4,27.7,126.7z"/>
	<path class="st0" d="M99.3,128c-3.3-1.9-7-2.9-11.2-2.9s-8,1-11.3,2.9s-5.9,4.5-7.8,7.8s-2.8,7.1-2.8,11.3s0.9,8,2.8,11.3
		s4.5,5.9,7.8,7.8c3.3,1.9,7.1,2.8,11.3,2.8c4.2,0,7.9-0.9,11.2-2.8c3.3-1.9,5.9-4.5,7.8-7.8s2.9-7.1,2.9-11.3s-1-8-2.9-11.3
		C105.2,132.4,102.6,129.8,99.3,128z M98.5,153.8c-1,2-2.4,3.5-4.2,4.7c-1.8,1.1-3.9,1.7-6.2,1.7c-2.3,0-4.4-0.6-6.2-1.7
		c-1.8-1.2-3.2-2.7-4.2-4.7s-1.5-4.3-1.5-6.8s0.5-4.7,1.5-6.7s2.4-3.6,4.2-4.7c1.9-1.2,3.9-1.8,6.2-1.8c2.3,0,4.3,0.6,6.2,1.7
		s3.2,2.7,4.2,4.7c1.1,2,1.6,4.2,1.5,6.8C100,149.5,99.5,151.8,98.5,153.8z"/>
	<path class="st0" d="M585.8,17c1.9,0,3.4-0.5,4.6-1.6c1.1-1.1,1.7-2.4,1.7-4.1c0-1.8-0.6-3.2-1.7-4.2c-1.1-1-2.6-1.5-4.6-1.5
		c-1.9,0-3.4,0.5-4.6,1.6c-1.1,1-1.7,2.4-1.7,4.1c0,1.8,0.5,3.2,1.6,4.2C582.3,16.5,583.8,17,585.8,17z"/>
	<path class="st0" d="M855.5,68.1h9.7v-33h9.2V26h-9.2V15.3h-9.7V26h-8.4v9.1h8.4V68.1z"/>
	<path class="st0" d="M788.7,42.8c-3.1,0-5.8,0.3-8.2,0.9c-2.3,0.5-4.3,1.4-5.9,2.5c-1.5,1.1-2.7,2.5-3.5,4.2s-1.2,3.6-1.2,5.8
		c0,2.6,0.6,4.8,1.8,6.7c1.3,1.9,3,3.3,5.1,4.4s4.6,1.6,7.3,1.6c2,0,4-0.4,5.8-1.2c1.9-0.8,3.7-1.9,5.3-3.3c0.3-0.3,0.6-0.5,0.9-0.8
		v4.5h9.1v-29c0-3-0.7-5.6-2-7.7s-3.2-3.7-5.7-4.8c-2.4-1.1-5.3-1.6-8.6-1.6c-3.5,0-6.8,0.7-9.8,2.1s-5.8,3.4-8.3,6.1l6.1,6.1
		c1.5-1.9,3.2-3.3,5-4.2s3.8-1.4,6.1-1.4c2.4,0,4.3,0.7,5.8,2s2.3,3.1,2.3,5.4v1.6L788.7,42.8L788.7,42.8z M794.5,57.7
		c-1.2,1.1-2.6,1.9-4.2,2.5c-1.5,0.6-3.2,0.9-5,0.9c-1.2,0-2.3-0.2-3.2-0.6c-0.9-0.4-1.6-1-2.2-1.8c-0.5-0.8-0.8-1.7-0.8-2.8
		c0-1,0.2-1.9,0.6-2.6c0.4-0.7,1-1.4,1.8-1.9s1.8-0.9,2.9-1.2c1.1-0.3,2.4-0.4,3.8-0.4h7.9v6.3C795.6,56.7,795.1,57.2,794.5,57.7z"
		/>
	<path class="st0" d="M607.9,68.1h9.7v-33h9.2V26h-9.2V15.3h-9.7V26h-8.3v9.1h8.3V68.1z"/>
	<path class="st0" d="M677.6,8.9h9.8v59.2h-9.8V8.9z"/>
	<path class="st0" d="M377.9,115.3h-9.8V126h-8.3v9.1h8.3v33h9.8v-33h9.2V126h-9.2V115.3z"/>
	<path class="st0" d="M149.8,127c-2.1-1.3-4.8-1.9-8-1.9c-2.3,0-4.5,0.5-6.6,1.5s-4,2.2-5.5,3.8c-0.5,0.5-0.9,1.1-1.3,1.6l-0.1-6.1
		h-9.5v42.2c0.7,0,1.4,0,2.2,0c0.9,0,1.7,0,2.6,0h4.9v-25.4c0-1.3,0.2-2.5,0.7-3.5c0.5-1.1,1.2-2.1,2.1-2.9c0.9-0.9,2-1.5,3.2-1.9
		c1.2-0.5,2.6-0.7,4-0.7c1.8-0.1,3.3,0.2,4.5,0.9c1.2,0.6,2.1,1.7,2.7,3.1c0.6,1.4,0.9,3.2,0.9,5.4v25h9.8v-25.8
		c0-3.8-0.5-7-1.6-9.6C153.6,130.2,152,128.3,149.8,127z"/>
	<path class="st0" d="M324.3,45.6c0-1.4,0.3-2.7,0.8-3.9s1.2-2.3,2.1-3.2s1.9-1.6,3.1-2.1s2.5-0.8,3.9-0.8c0.9,0,1.7,0.1,2.5,0.3
		c0.9,0.2,1.6,0.4,2.2,0.7l2.6-10.7c-0.5-0.2-1.2-0.4-2.1-0.6c-0.8-0.2-1.7-0.2-2.6-0.2c-2,0-4,0.5-5.9,1.5s-3.5,2.3-5,4
		c-0.7,0.8-1.3,1.8-1.8,2.7L324,26h-9.6v42.2h9.8V45.6H324.3z"/>
	<path class="st0" d="M299.1,151.3c0,1.3-0.2,2.6-0.7,3.8s-1.1,2.2-2,3s-1.9,1.4-3,1.9c-1.1,0.4-2.4,0.6-3.8,0.6c-2.8,0-5-1-6.6-2.9
		c-1.5-1.9-2.3-4.5-2.3-7.8V126h-9.8v26c0,3.5,0.6,6.5,1.8,9c1.2,2.5,2.9,4.5,5.1,5.8c2.2,1.4,4.9,2.1,7.9,2.1
		c2.3,0,4.6-0.5,6.6-1.4c2.1-1,3.9-2.2,5.4-3.8c0.6-0.6,1.1-1.3,1.6-1.9l0.1,6.3h9.5V126h-9.8L299.1,151.3L299.1,151.3z"/>
	<path class="st0" d="M348.2,8.9h9.8v59.2h-9.8V8.9z"/>
	<path class="st0" d="M333.1,135.6c1.9-1.2,4-1.8,6.4-1.8c1.3,0,2.7,0.3,4.1,0.8s2.8,1.3,4,2.2s2.2,1.9,3,3l5.4-6.6
		c-1.7-2.5-4.1-4.5-7.2-5.9c-3.1-1.5-6.5-2.2-10.2-2.2c-3.9,0-7.5,1-10.6,2.9s-5.6,4.5-7.4,7.8s-2.7,7-2.7,11.2s0.9,7.9,2.7,11.2
		c1.8,3.3,4.3,5.9,7.4,7.8s6.7,2.9,10.6,2.9c3.5,0,6.8-0.7,10-2.2s5.7-3.4,7.4-5.8l-5.4-6.6c-1,1.3-2.1,2.3-3.4,3.2
		c-1.2,0.9-2.4,1.5-3.7,2c-1.3,0.4-2.6,0.6-4.1,0.6c-2.3,0-4.4-0.6-6.2-1.8c-1.9-1.2-3.4-2.7-4.5-4.7s-1.6-4.2-1.6-6.7
		s0.5-4.7,1.6-6.7C329.8,138.3,331.3,136.7,333.1,135.6z"/>
	<path class="st0" d="M176,51.6c1.3-3.5,1.9-7.3,1.9-11.4c0-4.2-0.6-7.9-1.9-11.4c-1.3-3.4-3.1-6.4-5.4-8.9
		c-2.3-2.5-5.2-4.4-8.5-5.8c-3.3-1.3-6.9-2-11-2h-22.5v56h22.5c4.1,0,7.7-0.7,11-2s6.1-3.2,8.4-5.7C172.9,58,174.7,55,176,51.6z
		 M166.2,47.8c-0.7,2.3-1.8,4.2-3.3,5.8c-1.4,1.5-3.1,2.7-5.2,3.6s-4.4,1.3-7,1.3h-11.8V21.7h11.8c2.6,0,4.9,0.4,7,1.3
		s3.8,2.1,5.3,3.7s2.5,3.5,3.3,5.8c0.8,2.2,1.2,4.8,1.2,7.6S167,45.5,166.2,47.8z"/>
	<path class="st0" d="M283.8,68.9c4.2,0,7.9-0.9,11.2-2.8c3.3-1.9,5.9-4.5,7.8-7.8s2.9-7.1,2.9-11.3s-1-8-2.9-11.3s-4.5-5.9-7.8-7.8
		s-7-2.9-11.2-2.9s-8,1-11.3,2.9s-5.9,4.5-7.8,7.8s-2.8,7.1-2.8,11.3s0.9,8,2.8,11.3s4.5,5.9,7.8,7.8
		C275.9,68,279.6,68.9,283.8,68.9z M273.4,40.3c1-2,2.4-3.6,4.2-4.7c1.9-1.2,3.9-1.8,6.2-1.8c2.3,0,4.3,0.6,6.2,1.7
		c1.8,1.1,3.2,2.7,4.2,4.7c1.1,2,1.6,4.2,1.5,6.8c0.1,2.5-0.5,4.8-1.5,6.8s-2.4,3.5-4.2,4.7c-1.8,1.1-3.9,1.7-6.2,1.7
		c-2.3,0-4.4-0.6-6.2-1.7c-1.8-1.2-3.2-2.7-4.2-4.7s-1.5-4.3-1.5-6.8S272.4,42.3,273.4,40.3z"/>
	<path class="st0" d="M220.6,115.3h-9.8V126h-8.3v9.1h8.3v33h9.8v-33h9.2V126h-9.2V115.3z"/>
	<path class="st0" d="M194.7,148.3c-1-1.1-2.4-2.1-4.2-3s-3.9-1.6-6.6-2.3c-1.9-0.4-3.4-0.9-4.6-1.4c-1.2-0.5-2-0.9-2.6-1.3
		c-0.5-0.4-1-0.8-1.3-1.4c-0.3-0.6-0.4-1.2-0.5-1.9c0-0.7,0.1-1.3,0.4-1.8c0.3-0.6,0.7-1.1,1.3-1.4c0.5-0.4,1.2-0.6,2-0.8
		s1.7-0.3,2.7-0.3c1.1,0,2.2,0.2,3.4,0.6c1.2,0.4,2.4,1,3.6,1.8c1.2,0.7,2.3,1.6,3.3,2.6l5.4-6c-1.2-1.4-2.7-2.6-4.4-3.5
		c-1.7-1-3.6-1.8-5.6-2.3s-4-0.8-6.2-0.8c-2.9,0-5.5,0.5-7.8,1.6s-4.2,2.5-5.7,4.4c-1.4,1.9-2.1,4-2.1,6.4c0,1.5,0.2,3,0.6,4.2
		c0.4,1.2,1.1,2.4,2,3.4c1.1,1.2,2.6,2.3,4.5,3.4c2,1,4.4,1.8,7.3,2.6c1.8,0.4,3.3,0.9,4.4,1.4c1.1,0.4,1.9,0.8,2.5,1.1
		c1,0.7,1.4,1.8,1.4,3c0,0.7-0.2,1.3-0.5,1.9c-0.3,0.6-0.7,1.1-1.2,1.5s-1.2,0.7-1.9,1c-0.7,0.2-1.5,0.3-2.4,0.3
		c-2.2,0-4.3-0.4-6.2-1.2c-2-0.9-3.8-2.2-5.4-3.9l-6.3,5.4c1.9,2.3,4.3,4.2,7.2,5.4c3,1.2,6.3,1.8,10,1.8c3,0,5.8-0.6,8.2-1.7
		s4.3-2.6,5.7-4.6s2.2-4.2,2.2-6.7c0-1.6-0.2-3-0.6-4.3C196.5,150.4,195.8,149.3,194.7,148.3z"/>
	<path class="st0" d="M259.5,12.1h-10.8l-9.8,33c-0.4,1.4-0.7,2.5-1,3.4c-0.2,0.9-0.4,1.6-0.5,2.2c-0.1,0.5-0.2,1.1-0.3,1.7
		c-0.2-1-0.5-2-0.8-3c-0.4-1.4-0.9-2.8-1.4-4.2L225.5,21h-8.8l-9.5,24.2c-0.3,0.9-0.6,1.8-0.9,2.8c-0.3,1-0.6,2.3-1,3.8
		c-0.1,0.3-0.2,0.7-0.3,1.1c-0.2-1-0.4-2.1-0.6-3.2c-0.3-1.7-0.7-3.1-1.1-4.5L193.2,12h-10.7L200,68h7.4l13.1-32.7L234.2,68h7.5
		L259.5,12.1z"/>
	<path class="st0" d="M259.7,125.1c-2,0-4,0.5-5.9,1.5s-3.5,2.3-5,4c-0.7,0.8-1.3,1.8-1.8,2.7l-0.1-7.3h-9.6v42.2h9.8v-22.6
		c0-1.4,0.3-2.7,0.8-3.9s1.2-2.3,2.1-3.2c0.9-0.9,1.9-1.6,3.1-2.1c1.2-0.5,2.5-0.8,3.9-0.8c0.9,0,1.7,0.1,2.5,0.3
		c0.9,0.2,1.6,0.4,2.2,0.7l2.6-10.7c-0.5-0.2-1.2-0.4-2.1-0.6C261.5,125.2,260.6,125.1,259.7,125.1z"/>
</g>
</svg>
