<svg width="122" height="41" viewBox="0 0 122 41" fill="none" xmlns="http://www.w3.org/2000/svg">
<path d="M0.52 10.95H4.33L10.93 26.1L17.56 10.95H21.34L11.17 33H10.72L0.52 10.95ZM23.2333 19.23H26.5933V33H23.2333V19.23ZM24.8833 16.65C24.2633 16.65 23.7433 16.44 23.3233 16.02C22.9033 15.6 22.6933 15.08 22.6933 14.46C22.6933 13.9 22.9033 13.42 23.3233 13.02C23.7433 12.62 24.2633 12.42 24.8833 12.42C25.4833 12.42 25.9933 12.62 26.4133 13.02C26.8333 13.42 27.0433 13.9 27.0433 14.46C27.0433 15.08 26.8333 15.6 26.4133 16.02C26.0133 16.44 25.5033 16.65 24.8833 16.65ZM35.8192 33.3C34.8592 33.3 33.8592 33.18 32.8192 32.94C31.7992 32.68 31.0692 32.38 30.6292 32.04L31.7092 29.49C32.9092 30.33 34.2792 30.75 35.8192 30.75C37.3592 30.75 38.1292 30.3 38.1292 29.4C38.1292 29 37.9692 28.69 37.6492 28.47C37.3292 28.25 36.7592 27.99 35.9392 27.69L34.7992 27.27C33.5992 26.79 32.6492 26.22 31.9492 25.56C31.2492 24.88 30.8992 23.99 30.8992 22.89C30.8992 21.63 31.3892 20.65 32.3692 19.95C33.3692 19.23 34.6992 18.87 36.3592 18.87C37.1792 18.87 37.9792 18.96 38.7592 19.14C39.5592 19.32 40.1692 19.55 40.5892 19.83L39.4192 22.41C39.1592 22.15 38.7392 21.93 38.1592 21.75C37.5992 21.55 36.9692 21.45 36.2692 21.45C34.8492 21.45 34.1392 21.88 34.1392 22.74C34.1392 23.22 34.3292 23.59 34.7092 23.85C35.0892 24.09 35.7092 24.36 36.5692 24.66C36.6492 24.68 36.9592 24.79 37.4992 24.99C38.7792 25.49 39.7292 26.06 40.3492 26.7C40.9692 27.34 41.2792 28.16 41.2792 29.16C41.2792 30.52 40.7592 31.55 39.7192 32.25C38.6992 32.95 37.3992 33.3 35.8192 33.3ZM44.8837 19.23H48.2437V33H44.8837V19.23ZM46.5337 16.65C45.9137 16.65 45.3937 16.44 44.9737 16.02C44.5537 15.6 44.3437 15.08 44.3437 14.46C44.3437 13.9 44.5537 13.42 44.9737 13.02C45.3937 12.62 45.9137 12.42 46.5337 12.42C47.1337 12.42 47.6437 12.62 48.0637 13.02C48.4837 13.42 48.6937 13.9 48.6937 14.46C48.6937 15.08 48.4837 15.6 48.0637 16.02C47.6637 16.44 47.1537 16.65 46.5337 16.65ZM59.1496 33.3C57.7296 33.3 56.4696 32.98 55.3696 32.34C54.2696 31.7 53.4196 30.83 52.8196 29.73C52.2196 28.63 51.9196 27.41 51.9196 26.07C51.9196 24.75 52.2096 23.54 52.7896 22.44C53.3896 21.34 54.2396 20.47 55.3396 19.83C56.4396 19.19 57.7096 18.87 59.1496 18.87C60.5896 18.87 61.8496 19.19 62.9296 19.83C64.0296 20.47 64.8696 21.34 65.4496 22.44C66.0496 23.54 66.3496 24.75 66.3496 26.07C66.3496 27.41 66.0496 28.63 65.4496 29.73C64.8496 30.83 63.9996 31.7 62.8996 32.34C61.8196 32.98 60.5696 33.3 59.1496 33.3ZM59.2396 30.66C60.3996 30.66 61.3096 30.23 61.9696 29.37C62.6496 28.51 62.9896 27.43 62.9896 26.13C62.9896 24.83 62.6296 23.74 61.9096 22.86C61.1896 21.96 60.2396 21.51 59.0596 21.51C57.9196 21.51 56.9996 21.95 56.2996 22.83C55.6196 23.71 55.2796 24.81 55.2796 26.13C55.2796 27.41 55.6496 28.49 56.3896 29.37C57.1296 30.23 58.0796 30.66 59.2396 30.66ZM69.8097 19.23H72.9897L73.0197 21.75C73.3997 20.91 73.9997 20.22 74.8197 19.68C75.6397 19.14 76.5997 18.87 77.6997 18.87C79.1197 18.87 80.2097 19.17 80.9697 19.77C81.7297 20.35 82.2397 21.17 82.4997 22.23C82.7597 23.29 82.8897 24.67 82.8897 26.37V33H79.6497V26.46C79.6497 24.72 79.4797 23.47 79.1397 22.71C78.7997 21.93 78.0997 21.54 77.0397 21.54C76.4397 21.54 75.8297 21.73 75.2097 22.11C74.5897 22.47 74.0697 23 73.6497 23.7C73.2497 24.4 73.0497 25.22 73.0497 26.16V33H69.8097V19.23ZM88.2355 24.03H98.5255V26.91H88.2355V24.03Z" fill="white"/>
<path d="M102 4H107.532L111.945 13.4665L109.179 19.3699L102 4Z" fill="white"/>
<path d="M111.945 27.4287L107.984 37H102.452L109.179 21.1781L111.945 27.4287Z" fill="white"/>
<path d="M116.572 14.4922L121.215 4L121.706 4L114.391 20.5L121.706 37H121.215L116.572 26.5078L113.9 20.5L116.572 14.4922Z" fill="white"/>
<path d="M115.302 14.4922L119.945 4L120.435 4L113.121 20.5L120.435 37H119.945L115.302 26.5078L112.63 20.5L115.302 14.4922Z" fill="white"/>
<path d="M113.946 14.4922L118.589 4L119.079 4L111.765 20.5L119.079 37H118.589L113.946 26.5078L111.274 20.5L113.946 14.4922Z" fill="white"/>
<path d="M112.589 14.4922L117.233 4L117.723 4L110.408 20.5L117.723 37H117.233L112.589 26.5078L109.918 20.5L112.589 14.4922Z" fill="white"/>
</svg>
