<svg width="12" height="8" viewBox="0 0 12 8" fill="none" xmlns="http://www.w3.org/2000/svg">
<path d="M11.0074 1.10531e-06L9.375 2.6875C10.0662 2.6875 10.6765 2.94792 11.2059 3.46875C11.7353 3.98958 12 4.61111 12 5.33333C12 6.08333 11.7279 6.71528 11.1838 7.22917C10.6397 7.74306 9.97059 8 9.17647 8C8.38235 8 7.71323 7.74306 7.16912 7.22917C6.625 6.71528 6.35294 6.08333 6.35294 5.33333C6.35294 5.09722 6.38971 4.86806 6.46323 4.64583C6.53676 4.42361 6.63235 4.21528 6.75 4.02083L9.17647 9.45252e-07L11.0074 1.10531e-06ZM4.65441 5.49921e-07L3.02206 2.6875C3.71323 2.6875 4.32353 2.94792 4.85294 3.46875C5.38235 3.98958 5.64706 4.61111 5.64706 5.33333C5.64706 6.08333 5.375 6.71528 4.83088 7.22917C4.28676 7.74305 3.61765 8 2.82353 8C2.02941 8 1.36029 7.74305 0.816175 7.22917C0.272058 6.71528 -1.14374e-06 6.08333 -1.07817e-06 5.33333C-1.05753e-06 5.09722 0.0330872 4.86805 0.0992637 4.64583C0.16544 4.42361 0.257352 4.21528 0.374999 4.02083L2.82353 3.8986e-07L4.65441 5.49921e-07Z" fill="white"/>
</svg>
