<svg width="105" height="16" viewBox="0 0 105 16" fill="none" xmlns="http://www.w3.org/2000/svg">
<path d="M104.707 8.70711C105.098 8.31658 105.098 7.68342 104.707 7.29289L98.3431 0.928932C97.9526 0.538408 97.3195 0.538408 96.9289 0.928932C96.5384 1.31946 96.5384 1.95262 96.9289 2.34315L102.586 8L96.9289 13.6569C96.5384 14.0474 96.5384 14.6805 96.9289 15.0711C97.3195 15.4616 97.9526 15.4616 98.3431 15.0711L104.707 8.70711ZM0 9H2V7H0V9ZM6 9H10V7H6V9ZM14 9H18V7H14V9ZM22 9H26V7H22V9ZM30 9H34V7H30V9ZM38 9H42V7H38V9ZM46 9H50V7H46V9ZM54 9H58V7H54V9ZM62 9H66V7H62V9ZM70 9H74V7H70V9ZM78 9H82V7H78V9ZM86 9H90V7H86V9ZM94 9H98V7H94V9ZM102 9H104V7H102V9Z" fill="black" fill-opacity="0.5"/>
</svg>
