<svg width="106" height="16" viewBox="0 0 106 16" fill="none" xmlns="http://www.w3.org/2000/svg">
<path d="M0.292893 7.29289C-0.0976311 7.68342 -0.0976311 8.31658 0.292893 8.70711L6.65685 15.0711C7.04738 15.4616 7.68054 15.4616 8.07107 15.0711C8.46159 14.6805 8.46159 14.0474 8.07107 13.6569L2.41421 8L8.07107 2.34315C8.46159 1.95262 8.46159 1.31946 8.07107 0.928932C7.68054 0.538408 7.04738 0.538408 6.65685 0.928932L0.292893 7.29289ZM105.707 8.70711C106.098 8.31658 106.098 7.68342 105.707 7.29289L99.3431 0.928932C98.9526 0.538408 98.3195 0.538408 97.9289 0.928932C97.5384 1.31946 97.5384 1.95262 97.9289 2.34315L103.586 8L97.9289 13.6569C97.5384 14.0474 97.5384 14.6805 97.9289 15.0711C98.3195 15.4616 98.9526 15.4616 99.3431 15.0711L105.707 8.70711ZM1 9H3V7H1V9ZM7 9H11V7H7V9ZM15 9H19V7H15V9ZM23 9H27V7H23V9ZM31 9H35V7H31V9ZM39 9H43V7H39V9ZM47 9H51V7H47V9ZM55 9H59V7H55V9ZM63 9H67V7H63V9ZM71 9H75V7H71V9ZM79 9H83V7H79V9ZM87 9H91V7H87V9ZM95 9H99V7H95V9ZM103 9H105V7H103V9Z" fill="black" fill-opacity="0.5"/>
</svg>
