<svg width="88" height="88" viewBox="0 0 88 88" fill="none" xmlns="http://www.w3.org/2000/svg">
<path d="M6.25769 8.03428C5.85356 8.03428 5.3686 7.87276 5.04529 7.54972L0.512791 3.02098C-0.133821 2.36869 -0.133821 1.23806 0.512791 0.591979C1.1594 -0.0540972 2.29097 -0.0540972 2.9438 0.591979L7.47009 5.12072C8.1167 5.77301 8.1167 6.90365 7.47009 7.54972C7.14678 7.87276 6.74265 8.03428 6.25769 8.03428Z" fill="white"/>
<path d="M81.7435 8.03428C81.3394 8.03428 80.8544 7.87276 80.5311 7.54972C79.8783 6.90365 79.8783 5.77301 80.5311 5.12072L85.0574 0.591979C85.704 -0.0540972 86.8418 -0.0540972 87.4884 0.591979C88.135 1.23806 88.135 2.36869 87.4884 3.02098L82.9559 7.54972C82.5518 7.87276 82.1477 8.03428 81.7435 8.03428Z" fill="white"/>
<path d="M1.72519 88.0001C1.32106 88.0001 0.836097 87.8386 0.512791 87.5155C-0.133821 86.8695 -0.133821 85.7388 0.512791 85.0865L5.04529 80.5578C5.69191 79.9117 6.82348 79.9117 7.47009 80.5578C8.1167 81.2039 8.1167 82.3345 7.47009 82.9868L2.9438 87.5155C2.6205 87.8386 2.21015 88.0001 1.72519 88.0001Z" fill="white"/>
<path d="M86.2698 88.0001C85.8657 88.0001 85.3807 87.8386 85.0574 87.5155L80.5311 82.9868C79.8783 82.3345 79.8783 81.2039 80.5311 80.5578C81.1777 79.9117 82.3093 79.9117 82.9559 80.5578L87.4884 85.0865C88.135 85.7388 88.135 86.8695 87.4884 87.5155C87.1651 87.8386 86.6802 88.0001 86.2698 88.0001Z" fill="white"/>
<path d="M21.9564 9.00784C21.3844 9.00784 20.8186 8.68481 20.4953 8.20025L17.1814 2.61541C16.6965 1.80161 16.939 0.751731 17.7472 0.267175C18.5555 -0.217382 19.6062 0.0248955 20.0912 0.832492L23.4113 6.33657C23.8963 7.14416 23.6538 8.20025 22.8455 8.68481C22.603 8.92709 22.2797 9.00784 21.9564 9.00784Z" fill="white"/>
<path d="M36.8411 9.73716C36.0328 9.73716 35.3054 9.17185 35.1437 8.36425L33.8443 2.04637C33.6826 1.07726 34.2484 0.1889 35.2246 0.02738C36.1945 -0.134138 37.0836 0.431179 37.2452 1.40029L38.5384 7.71196C38.7001 8.68729 38.1343 9.57565 37.1644 9.73716C37.0027 9.73716 36.9219 9.73716 36.8411 9.73716Z" fill="white"/>
<path d="M37.1645 25.1941C36.4371 25.1941 35.7905 24.7095 35.548 23.9827L33.5211 17.9133C33.1978 17.0249 33.6828 16.0496 34.6527 15.7266C35.548 15.4035 36.5179 15.8881 36.8412 16.8634L38.8619 22.9328C39.1852 23.8212 38.7002 24.7903 37.7303 25.1133C37.4878 25.1941 37.3262 25.1941 37.1645 25.1941Z" fill="white"/>
<path d="M66.0445 9.01107C65.7212 9.01107 65.3979 8.93031 65.1554 8.76879C64.3472 8.28423 64.1047 7.22815 64.5896 6.42055L67.9098 0.916476C68.3947 0.10888 69.4455 -0.133398 70.2537 0.351159C71.062 0.835717 71.3045 1.88559 70.8195 2.6994L67.5056 8.20347C67.1823 8.68803 66.6103 9.01107 66.0445 9.01107Z" fill="white"/>
<path d="M51.1593 9.73716C51.0785 9.73716 50.9169 9.73716 50.836 9.73716C49.8661 9.57565 49.3003 8.60653 49.462 7.71196L50.7552 1.40029C50.9169 0.431179 51.8868 -0.134138 52.7759 0.02738C53.7458 0.1889 54.3178 1.15801 54.1499 2.04637L52.8567 8.36425C52.695 9.17185 51.9676 9.73716 51.1593 9.73716Z" fill="white"/>
<path d="M50.8362 25.1947C50.6745 25.1947 50.5129 25.1947 50.2704 25.1139C49.3813 24.7909 48.8963 23.8218 49.2196 22.9334L51.2403 16.864C51.5636 15.9694 52.5335 15.4849 53.4226 15.7272C54.3179 16.0502 54.8029 17.0255 54.5604 17.9139L52.5335 23.9833C52.2102 24.7101 51.5636 25.1947 50.8362 25.1947Z" fill="white"/>
<path d="M18.6363 87.9991C18.313 87.9991 17.9897 87.9183 17.7472 87.7568C16.939 87.2723 16.6965 86.2224 17.1814 85.4148L20.4953 79.9107C20.9803 79.0969 22.0373 78.8546 22.8455 79.3392C23.6538 79.83 23.8963 80.8798 23.4113 81.6874L20.0912 87.1915C19.7679 87.6761 19.2021 87.9991 18.6363 87.9991Z" fill="white"/>
<path d="M35.5479 87.9989C35.467 87.9989 35.3054 87.9989 35.2246 87.9989C34.2484 87.8374 33.6826 86.8682 33.8443 85.9799L35.1437 79.6682C35.3054 78.6929 36.2753 78.1276 37.1644 78.2891C38.1343 78.4506 38.7001 79.4197 38.5384 80.3143L37.2452 86.626C37.0836 87.4336 36.3561 87.9989 35.5479 87.9989Z" fill="white"/>
<path d="M35.1432 72.3836C34.9816 72.3836 34.7329 72.3836 34.5712 72.3029C33.6821 71.9798 33.1972 71.0045 33.4396 70.1162L35.4665 64.0468C35.7898 63.1584 36.7598 62.6739 37.6488 62.9969C38.5379 63.3199 39.0229 64.289 38.7804 65.1774L36.7598 71.253C36.5173 71.8991 35.8707 72.3836 35.1432 72.3836Z" fill="white"/>
<path d="M69.3646 87.9991C68.7988 87.9991 68.2331 87.6761 67.9098 87.1915L64.5896 81.6874C64.1047 80.8798 64.3472 79.83 65.1554 79.3392C65.9637 78.8546 67.0144 79.0969 67.5056 79.9107L70.8195 85.4148C71.3045 86.2224 71.062 87.2723 70.2537 87.7568C69.9304 87.9183 69.6879 87.9991 69.3646 87.9991Z" fill="white"/>
<path d="M52.4526 87.9989C51.6443 87.9989 50.9169 87.4336 50.7552 86.626L49.462 80.3143C49.3003 79.339 49.8661 78.4506 50.836 78.2891C51.8059 78.1276 52.695 78.6929 52.8567 79.6682L54.1499 85.9799C54.3178 86.949 53.7458 87.8374 52.7759 87.9989C52.695 87.9989 52.5334 87.9989 52.4526 87.9989Z" fill="white"/>
<path d="M52.8568 72.3804C52.1294 72.3804 51.4828 71.8959 51.2403 71.169L49.2196 65.0934C48.8963 64.2051 49.3813 63.2359 50.2704 62.9129C51.1595 62.5899 52.1294 63.0744 52.4527 63.9628L54.4796 70.0322C54.8029 70.9205 54.3179 71.8959 53.3418 72.2189C53.261 72.3804 53.0185 72.3804 52.8568 72.3804Z" fill="white"/>
<path d="M70.6581 72.3813C70.2539 72.3813 69.769 72.2198 69.4457 71.8968L64.9132 67.3618C64.2666 66.7157 64.2666 65.5851 64.9132 64.9328C65.5598 64.2867 66.6914 64.2867 67.3442 64.9328L71.8705 69.4678C72.5171 70.1138 72.5171 71.2507 71.8705 71.8968C71.5472 72.2198 71.0622 72.3813 70.6581 72.3813Z" fill="white"/>
<path d="M80.7734 23.6601C80.2076 23.6601 79.6356 23.3371 79.3123 22.8525C78.8273 22.0387 79.0698 20.9888 79.8781 20.5043L85.3805 17.1869C86.1888 16.6962 87.2457 16.9446 87.7307 17.7522C88.2157 18.5598 87.9732 19.6159 87.1649 20.1005L81.6625 23.4178C81.3392 23.5794 81.0159 23.6601 80.7734 23.6601Z" fill="white"/>
<path d="M79.9586 38.5475C79.1504 38.5475 78.4229 37.9821 78.2613 37.1745C78.0996 36.1992 78.6654 35.3109 79.6353 35.1493L85.946 33.8572C86.9222 33.6895 87.8113 34.261 87.9729 35.2301C88.1346 36.1992 87.5688 37.0938 86.5989 37.2553L80.2882 38.5475C80.2073 38.5475 80.0457 38.5475 79.9586 38.5475Z" fill="white"/>
<path d="M64.5088 38.8733C63.7813 38.8733 63.1347 38.3887 62.8922 37.6619C62.5689 36.7735 63.0539 35.7982 64.0238 35.4752L70.092 33.45C70.9811 33.1269 71.951 33.6115 72.2743 34.506C72.5976 35.3944 72.1127 36.3635 71.1427 36.6866L65.0745 38.7118C64.9129 38.8733 64.7512 38.8733 64.5088 38.8733Z" fill="white"/>
<path d="M86.2696 71.0884C85.9463 71.0884 85.623 71.0014 85.3805 70.8399L79.8781 67.5225C79.0698 67.038 78.8273 65.9881 79.3123 65.1743C79.7973 64.3667 80.8542 64.1244 81.6625 64.609L87.1649 67.9263C87.9732 68.4171 88.2157 69.467 87.7307 70.2746C87.4074 70.7591 86.8416 71.0884 86.2696 71.0884Z" fill="white"/>
<path d="M86.2693 54.1731C86.1885 54.1731 86.0269 54.1731 85.946 54.1731L79.6353 52.8747C78.6654 52.7132 78.0996 51.7441 78.2613 50.8495C78.4229 49.8804 79.3929 49.3151 80.2882 49.4766L86.5989 50.7688C87.5688 50.9303 88.1346 51.9056 87.9729 52.794C87.8113 53.6015 87.0838 54.1731 86.2693 54.1731Z" fill="white"/>
<path d="M70.6578 54.6588C70.4962 54.6588 70.3345 54.6588 70.0921 54.578L64.0239 52.5528C63.1348 52.2298 62.6498 51.2607 62.8923 50.3661C63.2156 49.4778 64.1855 48.9932 65.0746 49.3162L71.1428 51.3414C72.0319 51.6645 72.5169 52.6336 72.2744 53.5219C72.0319 54.1742 71.3853 54.6588 70.6578 54.6588Z" fill="white"/>
<path d="M7.22712 23.6601C6.90381 23.6601 6.58051 23.5794 6.33803 23.4178L0.835607 20.1005C0.0273431 19.6159 -0.215136 18.5598 0.269822 17.7522C0.754782 16.9446 1.80553 16.6962 2.62001 17.1869L8.11621 20.5043C8.92448 20.9888 9.17317 22.0387 8.682 22.8525C8.43952 23.4178 7.87373 23.6601 7.22712 23.6601Z" fill="white"/>
<path d="M8.03545 38.5475C7.95462 38.5475 7.79297 38.5475 7.71214 38.5475L1.40145 37.2553C0.431536 37.0938 -0.134251 36.1185 0.0274032 35.2301C0.189055 34.261 1.15897 33.6895 2.04807 33.8572L8.35875 35.1493C9.33489 35.3109 9.90067 36.28 9.73902 37.1745C9.57737 37.9821 8.84371 38.5475 8.03545 38.5475Z" fill="white"/>
<path d="M23.4913 38.8726C23.3297 38.8726 23.0872 38.8726 22.9256 38.7918L16.8574 36.7728C15.9683 36.4436 15.4833 35.4745 15.7258 34.5861C16.0491 33.6916 17.019 33.207 17.9081 33.53L23.9763 35.5552C24.8654 35.8783 25.3504 36.8536 25.1079 37.742C24.8654 38.388 24.2188 38.8726 23.4913 38.8726Z" fill="white"/>
<path d="M1.7247 71.0884C1.15891 71.0884 0.593128 70.7591 0.269822 70.2746C-0.215136 69.467 0.0273431 68.4171 0.835607 67.9263L6.33803 64.609C7.14629 64.1244 8.19704 64.3667 8.682 65.1743C9.17317 65.9881 8.92448 67.038 8.11621 67.5225L2.62001 70.8399C2.37131 71.0014 2.04801 71.0884 1.7247 71.0884Z" fill="white"/>
<path d="M1.72476 54.1731C0.916494 54.1731 0.189055 53.6015 0.0274032 52.794C-0.134251 51.8248 0.431536 50.9303 1.40145 50.7688L7.71214 49.4766C8.68206 49.3151 9.57737 49.8804 9.73902 50.8495C9.90067 51.8248 9.33489 52.7132 8.35875 52.8747L2.04807 54.1731C1.96724 54.1731 1.88641 54.1731 1.72476 54.1731Z" fill="white"/>
<path d="M17.3427 54.6585C16.6153 54.6585 15.9687 54.1739 15.7262 53.4409C15.3967 52.5525 15.8879 51.5834 16.8578 51.2604L22.926 49.2352C23.8151 48.9121 24.785 49.3967 25.1083 50.2851C25.4316 51.1796 24.9467 52.1487 23.9767 52.4718L17.9085 54.497C17.7469 54.5777 17.5852 54.6585 17.3427 54.6585Z" fill="white"/>
<path d="M38.4571 41.8674C37.568 41.8674 36.6789 41.5444 36.0323 40.8176L31.4998 36.2826C30.1257 34.9097 30.1257 32.723 31.4998 31.4308C32.8738 30.0517 35.0624 30.0517 36.3556 31.4308L40.8819 35.9596C42.2621 37.3387 42.2621 39.5192 40.8819 40.8176C40.2353 41.5444 39.3462 41.8674 38.4571 41.8674Z" fill="white"/>
<path d="M49.5431 41.8674C48.654 41.8674 47.7649 41.5444 47.1121 40.8176C45.738 39.4384 45.738 37.2579 47.1121 35.9596L51.6446 31.4308C53.0186 30.0517 55.2072 30.0517 56.5004 31.4308C57.8744 32.8037 57.8744 34.9905 56.5004 36.2826L51.9679 40.8176C51.3213 41.5444 50.4322 41.8674 49.5431 41.8674Z" fill="white"/>
<path d="M33.9246 57.5721C33.0355 57.5721 32.1464 57.2491 31.4998 56.516C30.1257 55.1431 30.1257 52.9564 31.4998 51.6643L36.0323 47.1293C37.4063 45.7564 39.5886 45.7564 40.8819 47.1293C42.2621 48.5084 42.2621 50.6889 40.8819 51.9873L36.3556 56.516C35.6281 57.2491 34.8137 57.5721 33.9246 57.5721Z" fill="white"/>
<path d="M54.0694 57.5721C53.1803 57.5721 52.2912 57.2491 51.6446 56.516L47.1121 51.9873C45.738 50.6082 45.738 48.4277 47.1121 47.1293C48.4923 45.7564 50.6747 45.7564 51.9679 47.1293L56.5004 51.6643C57.8744 53.0372 57.8744 55.2239 56.5004 56.516C55.8538 57.2491 54.9647 57.5721 54.0694 57.5721Z" fill="white"/>
<path d="M17.3429 72.3813C16.9387 72.3813 16.4538 72.2198 16.1305 71.8968C15.4839 71.2507 15.4839 70.1138 16.1305 69.4678L20.6568 64.9328C21.3034 64.2867 22.4412 64.2867 23.0878 64.9328C23.7344 65.5851 23.7344 66.7157 23.0878 67.3618L18.5553 71.8968C18.232 72.2198 17.8278 72.3813 17.3429 72.3813Z" fill="white"/>
<path d="M21.8691 23.6596C21.465 23.6596 20.9801 23.4981 20.6568 23.1751L16.1305 18.6401C15.4839 17.994 15.4839 16.8634 16.1305 16.2111C16.7771 15.565 17.9087 15.565 18.5553 16.2111L23.0878 20.7461C23.7344 21.3922 23.7344 22.529 23.0878 23.1751C22.7645 23.4981 22.3603 23.6596 21.8691 23.6596Z" fill="white"/>
<path d="M66.1256 23.6596C65.7214 23.6596 65.2365 23.4981 64.9132 23.1751C64.2666 22.529 64.2666 21.3922 64.9132 20.7461L69.4457 16.2111C70.0923 15.565 71.2239 15.565 71.8705 16.2111C72.5171 16.8634 72.5171 17.994 71.8705 18.6401L67.3442 23.1751C66.9338 23.4981 66.5297 23.6596 66.1256 23.6596Z" fill="white"/>
</svg>
