<svg width="200" height="40" viewBox="0 0 200 40" fill="none" xmlns="http://www.w3.org/2000/svg">
<g clip-path="url(#clip0_532_5)">
<path d="M171.304 -0.142048H179.483L186.006 11.3731L181.917 18.5541L171.304 -0.142048Z" fill="#737373"/>
<path d="M186.006 28.357L180.151 39.9997H171.972L181.917 20.7536L186.006 28.357Z" fill="#737373"/>
<path d="M192.846 12.3459L199.71 -0.416992L200.435 -0.416992L189.621 19.6539L200.435 39.7248H199.71L192.846 26.9619L188.896 19.6539L192.846 12.3459Z" fill="#737373"/>
<path d="M190.968 12.3459L197.832 -0.416992L198.557 -0.416992L187.744 19.6539L198.557 39.7248H197.832L190.968 26.9619L187.019 19.6539L190.968 12.3459Z" fill="#737373"/>
<path d="M188.963 12.3459L195.827 -0.416992L196.552 -0.416992L185.739 19.6539L196.552 39.7248H195.827L188.963 26.9619L185.014 19.6539L188.963 12.3459Z" fill="#737373"/>
<path d="M186.958 12.3459L193.822 -0.416992L194.547 -0.416992L183.734 19.6539L194.547 39.7248H193.822L186.958 26.9619L183.009 19.6539L186.958 12.3459Z" fill="#737373"/>
<path d="M25.4465 0.842011H32.1858L22.4255 39.294H9.7603L0 0.842011H6.73926L14.6405 33.7928H17.5453L25.4465 0.842011ZM37.1676 39.294V11.2269H43.5002V39.294H37.1676ZM37.1676 6.45544V0H43.5002V6.45544H37.1676ZM71.3408 17.0087C66.7703 16.4099 63.4588 16.1105 61.4062 16.1105C59.3537 16.1105 57.9205 16.3538 57.1071 16.8403C56.3325 17.2894 55.9452 18.0191 55.9452 19.0295C55.9452 20.0399 56.3712 20.751 57.2233 21.1626C58.1139 21.5742 60.167 22.0608 63.3815 22.6221C66.635 23.146 68.9397 23.988 70.2951 25.1481C71.6505 26.3083 72.3285 28.3665 72.3285 31.3229C72.3285 34.2793 71.3408 36.4498 69.3655 37.8345C67.4292 39.2192 64.5824 39.9115 60.8253 39.9115C58.4625 39.9115 55.4804 39.5933 51.8784 38.9572L50.0774 38.6765L50.3098 33.5683C54.9575 34.1671 58.3079 34.4664 60.3605 34.4664C62.4131 34.4664 63.8655 34.2232 64.7178 33.7367C65.6084 33.2502 66.054 32.4456 66.054 31.3229C66.054 30.2002 65.6282 29.433 64.7759 29.0214C63.9625 28.5723 61.968 28.1046 58.7919 27.6181C55.6547 27.0942 53.3502 26.2895 51.8784 25.2043C50.4066 24.119 49.6707 22.1356 49.6707 19.2541C49.6707 16.3725 50.6777 14.2207 52.6917 12.7986C54.7445 11.3766 57.3589 10.6655 60.5348 10.6655C63.0138 10.6655 66.054 10.9649 69.656 11.5637L71.457 11.9005L71.3408 17.0087ZM78.4142 39.294V11.2269H84.7467V39.294H78.4142ZM78.4142 6.45544V0H84.7467V6.45544H78.4142ZM93.9964 14.2581C96.0106 11.8256 99.3413 10.6094 103.989 10.6094C108.637 10.6094 111.948 11.8256 113.924 14.2581C115.938 16.6906 116.945 20.3393 116.945 25.2043C116.945 30.0693 115.977 33.7367 114.04 36.2066C112.103 38.6765 108.753 39.9115 103.989 39.9115C99.2251 39.9115 95.8752 38.6765 93.9383 36.2066C92.0019 33.7367 91.0334 30.0693 91.0334 25.2043C91.0334 20.3393 92.0211 16.6906 93.9964 14.2581ZM98.7603 32.5017C99.6515 33.9987 101.394 34.7471 103.989 34.7471C106.584 34.7471 108.327 33.9987 109.218 32.5017C110.109 31.0048 110.554 28.5536 110.554 25.1481C110.554 21.7427 110.07 19.3289 109.102 17.9068C108.172 16.4848 106.468 15.7737 103.989 15.7737C101.511 15.7737 99.7869 16.4848 98.8184 17.9068C97.8889 19.3289 97.4241 21.7427 97.4241 25.1481C97.4241 28.5536 97.8697 31.0048 98.7603 32.5017ZM129.568 39.294H123.235V11.2269H129.51V12.967C132.337 11.3953 135.009 10.6094 137.527 10.6094C141.4 10.6094 144.034 11.6759 145.429 13.809C146.861 15.9047 147.578 19.385 147.578 24.25V39.294H141.304V24.4184C141.304 21.3872 140.955 19.2354 140.258 17.963C139.599 16.6906 138.224 16.0544 136.133 16.0544C134.158 16.0544 132.26 16.4286 130.439 17.1771L129.568 17.5139V39.294ZM153.79 26.9444V21.3872H171.161V26.9444H153.79Z" fill="#737373"/>
</g>
<defs>
<clipPath id="clip0_532_5">
<rect width="200" height="40" fill="white"/>
</clipPath>
</defs>
</svg>
