<svg width="128" height="30" viewBox="0 0 128 30" fill="none" xmlns="http://www.w3.org/2000/svg">
<path d="M3.49854 22.2699L14.5435 4.96031L16.1048 7.61004L7.25729 21.3771C7.25729 21.3771 4.0768 21.9819 3.49854 22.2699Z" fill="white"/>
<path d="M20.2684 2.77141L8.50058 21.1467C8.50058 21.1467 10.5245 20.9739 10.8715 21.0027L21.3382 4.81631L20.2684 2.77141Z" fill="white"/>
<path d="M24.721 1.67696L12.346 21.2619C12.346 21.2619 22.1188 20.8299 27.1208 21.6939C27.1208 21.6939 37.3273 23.134 34.6094 26.2445C34.6094 26.2445 33.4529 27.5118 29.405 28.4046C29.405 28.4046 36.749 28.059 37.7899 24.5741C37.7899 24.5741 38.2236 23.5084 37.6164 22.558L24.721 1.67696Z" fill="white"/>
<path d="M6.76575 24.1708H7.66206C8.06685 24.1708 8.67404 24.286 8.67404 25.6397C8.67404 26.3885 8.41382 27.195 7.66206 27.195H6.76575V24.1708ZM5.84052 28.0014H7.7488C9.22339 28.0014 9.59927 26.5613 9.59927 25.5821C9.59927 24.6893 9.28122 23.3644 7.80663 23.3644H5.84052V28.0014Z" fill="white"/>
<path d="M11.7967 24.43L12.346 26.2733H11.2184L11.7967 24.43ZM10.9871 27.051H12.6352L12.9243 28.0014H13.9363L12.3749 23.3644H11.2762L9.7149 28.0014H10.698L10.9871 27.051Z" fill="white"/>
<path d="M17.7529 24.1996H15.4109V25.1789H17.5794V25.9853H15.4109V27.195H17.8686V28.0014H14.5146V23.3644H17.7818V24.1996H17.7529Z" fill="white"/>
<path d="M20.7021 25.4957H22.5525V28.0014H21.9453L21.8586 27.4254C21.6273 27.7134 21.2803 28.1166 20.4708 28.1166C19.401 28.1166 18.4468 27.3102 18.4468 25.6973C18.4468 24.43 19.1118 23.2492 20.6153 23.2492C21.9743 23.2492 22.4947 24.1708 22.5525 24.8045H21.6273C21.6273 24.6316 21.3092 24.0556 20.6731 24.0556C20.0081 24.0556 19.401 24.5452 19.401 25.7261C19.401 26.9934 20.066 27.3102 20.7021 27.3102C20.9045 27.3102 21.5695 27.2238 21.7719 26.3021H20.731V25.4957H20.7021Z" fill="white"/>
<path d="M26.9474 26.3885C26.9474 27.5982 26.2534 28.1454 25.1258 28.1454C24.721 28.1454 24.1138 28.0302 23.7091 27.5694C23.4777 27.2814 23.3621 26.907 23.3621 26.4461V23.3644H24.3162V26.3885C24.3162 27.0222 24.6632 27.3102 25.0969 27.3102C25.733 27.3102 25.9932 26.9934 25.9932 26.4173V23.3644H26.9474V26.3885Z" fill="white"/>
<path d="M109.466 10.087H107.471V11.7286H104.927C104.089 11.0086 102.816 10.5478 101.371 10.5478C98.8552 10.5478 96.8024 11.959 96.8024 13.7159C96.8024 15.4728 98.8552 16.8841 101.371 16.8841C102.845 16.8841 104.146 16.3945 104.985 15.6456H107.471V17.4889H97.8143V19.073H107.471V22.0395H109.495L109.466 10.087ZM101.371 15.2712C100.041 15.2712 98.942 14.58 98.942 13.7159C98.942 12.8519 100.041 12.1607 101.371 12.1607C102.73 12.1607 103.799 12.8519 103.799 13.7159C103.799 14.58 102.73 15.2712 101.371 15.2712ZM105.91 14.0615C105.939 13.9463 105.939 13.8311 105.939 13.7159C105.939 13.5719 105.939 13.4567 105.91 13.3415H107.471V14.0615H105.91Z" fill="white"/>
<path d="M121.957 10.087C121.957 10.1158 121.957 14.4648 121.957 17.9785C120.28 17.9497 119.037 17.7193 118.459 17.1433C117.071 15.7032 116.839 14.58 116.666 13.3415C116.608 12.9671 116.608 12.2471 116.608 12.2471V10.375H114.584V12.2471C114.584 12.2471 114.584 12.9671 114.526 13.3415C114.353 14.5512 114.44 15.9048 112.878 17.2585C112.127 17.9209 111.201 18.3818 110.594 18.5834L112.011 19.937C113.457 19.2746 114.237 18.5546 114.758 17.8345C115.018 17.4601 115.278 17.1145 115.596 16.3081C115.885 17.1145 116.146 17.4889 116.464 17.8057C118.054 19.361 119.586 19.7354 121.928 19.6778V22.0395H123.952V10.087H121.957Z" fill="white"/>
<path d="M52.1021 19.6778C51.6395 19.6778 51.3215 19.2746 51.3215 18.8138V10.7206H57.0463V12.3335H53.3165V18.0937H58.4631V10.087H60.487V14.6952H61.7303V10.087H63.7543V22.0683H61.7592V16.2793H60.516V22.0683H58.492V19.7066L52.1021 19.6778Z" fill="white"/>
<path d="M78.1243 10.4326H66.5011V12.0167H76.9099V15.9048H66.1541V17.4889H71.5899V22.0395H73.5849V17.5177H79.3965V15.9336H78.9339V11.0374C78.9339 11.0662 78.9339 11.0086 78.9339 11.0374C78.876 10.5766 78.5291 10.4326 78.1243 10.4326Z" fill="white"/>
<path d="M95.2411 12.4775H94.1713V10.087H92.1473V14.7528H90.7017V11.6134C90.7017 11.1238 90.239 10.7782 89.8053 10.7782H81.7674V12.3911H88.6777V14.7816H85.902V13.1399H83.907V14.7816H81.4493V16.3657H92.1473V17.6041C91.0775 17.1433 89.6897 16.8841 88.1283 16.8841C84.8033 16.8841 82.0854 18.1225 82.0854 19.6778C82.0854 21.2331 84.7744 22.4715 88.1283 22.4715C91.4534 22.4715 94.1134 21.2331 94.1424 19.7066V14.0904H95.2122L95.2411 12.4775ZM88.1573 20.8011C86.2779 20.8011 84.7455 20.3114 84.7455 19.6778C84.7455 19.0442 86.2779 18.5546 88.1573 18.5546C90.0366 18.5546 91.5691 19.0442 91.5691 19.6778C91.5401 20.3114 90.0366 20.8011 88.1573 20.8011Z" fill="white"/>
<path d="M51.7262 24.6893H52.478C52.796 24.6893 53.3454 24.7757 53.3454 25.7261C53.3454 26.2733 53.143 26.8206 52.5069 26.8206H51.7552V24.6893H51.7262ZM50.9745 27.3966H52.5936C53.8369 27.3966 54.155 26.3885 54.155 25.6973C54.155 25.0925 53.8947 24.142 52.6226 24.142H50.9745V27.3966Z" fill="white"/>
<path d="M56.0055 24.8621L56.4681 26.1581H55.5139L56.0055 24.8621ZM55.3115 26.7342H56.6994L56.9307 27.3966H57.7692L56.4392 24.142H55.5429L54.2128 27.3966H55.0224L55.3115 26.7342Z" fill="white"/>
<path d="M61.0364 24.7181H59.0414V25.4093H60.8629V25.9853H59.0414V26.8206H61.1231V27.3966H58.2896V24.142H61.0364V24.7181Z" fill="white"/>
<path d="M63.494 25.6397H65.0554V27.3966H64.5349L64.4482 26.9934C64.2458 27.195 63.9567 27.483 63.2916 27.483C62.3953 27.483 61.5858 26.907 61.5858 25.7837C61.5858 24.8909 62.164 24.0556 63.4073 24.0556C64.5638 24.0556 64.9975 24.7181 65.0554 25.1501H64.2747C64.2747 25.0349 64.0145 24.6029 63.4651 24.6029C62.9158 24.6029 62.3953 24.9485 62.3953 25.7837C62.3953 26.6766 62.9447 26.907 63.494 26.907C63.6675 26.907 64.2458 26.8494 64.3904 26.1869H63.523V25.6397H63.494Z" fill="white"/>
<path d="M68.7852 26.2445C68.7852 27.1086 68.2069 27.483 67.2528 27.483C66.9058 27.483 66.3854 27.3966 66.0673 27.0798C65.8649 26.8782 65.7782 26.6189 65.7782 26.3021V24.142H66.5878V26.2733C66.5878 26.7342 66.8769 26.9358 67.2528 26.9358C67.8021 26.9358 68.0045 26.7054 68.0045 26.3021V24.142H68.8141V26.2445H68.7852Z" fill="white"/>
<path d="M74.5968 27.3966H73.874V24.6605L73.18 27.3966H72.4283L71.7344 24.6605V27.3966H71.0115V24.142H72.1392L72.8042 26.7054L73.4692 24.142H74.5968V27.3966Z" fill="white"/>
<path d="M78.0954 24.7181H76.1003V25.4093H77.9219V25.9853H76.1003V26.8206H78.1821V27.3966H75.3486V24.142H78.0954V24.7181Z" fill="white"/>
<path d="M80.3795 27.3966H79.5988V24.7181H78.4712V24.142H81.5071V24.7181H80.3795V27.3966Z" fill="white"/>
<path d="M82.7504 25.5821V24.7181H83.7335C84.1961 24.7181 84.2828 24.9773 84.2828 25.1501C84.2828 25.4669 84.0804 25.5821 83.6756 25.5821H82.7504ZM81.9987 27.3966H82.7504V26.1293H83.56C84.1383 26.1293 84.1672 26.3021 84.1672 26.7342C84.1672 27.0798 84.1961 27.2526 84.2539 27.3966H85.1213V27.3102C84.9478 27.2526 84.9478 27.1374 84.9478 26.6477C84.9478 26.0429 84.7744 25.9277 84.4852 25.8125C84.8611 25.6973 85.0635 25.3805 85.0635 25.0349C85.0635 24.7469 84.89 24.1132 83.878 24.1132H81.9987V27.3966Z" fill="white"/>
<path d="M86.2489 25.7549C86.2489 24.8333 86.8561 24.6029 87.2609 24.6029C87.6946 24.6029 88.2729 24.8333 88.2729 25.7549C88.2729 26.6766 87.6657 26.907 87.2609 26.907C86.8561 26.907 86.2489 26.6766 86.2489 25.7549ZM85.4683 25.7549C85.4683 27.2814 86.7694 27.483 87.2609 27.483C87.7524 27.483 89.0535 27.3102 89.0535 25.7549C89.0535 24.2284 87.7524 24.0268 87.2609 24.0268C86.7694 24.0556 85.4683 24.2284 85.4683 25.7549Z" fill="white"/>
<path d="M90.4703 25.6685V24.7181H91.0775C91.569 24.7181 91.7714 24.8621 91.7714 25.1789C91.7714 25.3229 91.7714 25.6973 91.1931 25.6973H90.4703V25.6685ZM90.4703 26.2157H91.3666C92.3786 26.2157 92.5521 25.4669 92.5521 25.1789C92.5521 24.5452 92.1184 24.142 91.3955 24.142H89.6896V27.3966H90.4703V26.2157Z" fill="white"/>
<path d="M93.7664 25.7549C93.7664 24.8333 94.3447 24.6029 94.7784 24.6029C95.2121 24.6029 95.7904 24.8333 95.7904 25.7549C95.7904 26.6766 95.1832 26.907 94.7784 26.907C94.3736 26.907 93.7664 26.6766 93.7664 25.7549ZM92.9858 25.7549C92.9858 27.2814 94.2869 27.483 94.7784 27.483C95.2699 27.483 96.571 27.3102 96.571 25.7549C96.571 24.2284 95.2699 24.0268 94.7784 24.0268C94.2869 24.0556 92.9858 24.2284 92.9858 25.7549Z" fill="white"/>
<path d="M97.9878 26.8206H99.8383V27.4254H97.2072V24.142H97.9878V26.8206Z" fill="white"/>
<path d="M101.111 27.3966H100.33V24.142H101.111V27.3966Z" fill="white"/>
<path d="M103.424 27.3966H102.643V24.7181H101.515V24.142H104.551V24.7181H103.424V27.3966Z" fill="white"/>
<path d="M106.026 24.8621L106.488 26.1581H105.534L106.026 24.8621ZM105.332 26.7342H106.72L106.951 27.3966H107.79L106.459 24.142H105.563L104.233 27.3966H105.043L105.332 26.7342Z" fill="white"/>
<path d="M110.565 24.142H111.288V27.3966H110.507L108.975 25.0637V27.3966H108.252V24.142H109.062L110.536 26.4173V24.142H110.565Z" fill="white"/>
<path d="M115.885 25.2077C115.827 25.0061 115.712 24.6317 115.047 24.6317C114.671 24.6317 114.122 24.8621 114.122 25.7837C114.122 26.3597 114.382 26.907 115.047 26.907C115.48 26.907 115.77 26.7054 115.885 26.3021H116.666C116.521 27.0222 115.972 27.5118 115.047 27.5118C114.064 27.5118 113.341 26.9358 113.341 25.8125C113.341 24.6605 114.093 24.0844 115.047 24.0844C116.174 24.0844 116.608 24.7469 116.666 25.2365H115.885V25.2077Z" fill="white"/>
<path d="M117.967 27.3966H117.186V24.142H117.967V27.3966Z" fill="white"/>
<path d="M120.28 27.3966H119.499V24.7181H118.372V24.142H121.437V24.7181H120.28V27.3966Z" fill="white"/>
<path d="M123.634 27.3966H122.853V26.1581L121.552 24.1132H122.478L123.258 25.5245L124.01 24.1132H124.906L123.663 26.1581V27.3966H123.634Z" fill="white"/>
<path d="M43.775 10.5766L43.9485 27.7134" stroke="white" stroke-width="3" stroke-miterlimit="10"/>
</svg>
