<svg width="55" height="55" viewBox="0 0 55 55" fill="none" xmlns="http://www.w3.org/2000/svg">
<path d="M52 42.6559C52 45.6557 49.2872 48.3631 44.3582 50.2746C39.8346 52.033 33.8477 53 27.5 53C21.1523 53 15.1654 52.033 10.6418 50.2746C5.71282 48.3631 3 45.6557 3 42.6559C3 38.2484 8.89336 34.5605 18.3793 33.0179C18.7296 32.9598 19.0884 33.0445 19.3769 33.2534C19.6653 33.4624 19.8597 33.7785 19.9173 34.1322C19.9748 34.4858 19.8909 34.8481 19.684 35.1393C19.477 35.4305 19.1639 35.6267 18.8136 35.6849C14.8045 36.3348 11.4035 37.4074 8.99359 38.7836C6.84873 40.0024 5.67273 41.3786 5.67273 42.6559C5.67273 46.2718 14.6375 50.3015 27.5 50.3015C40.3625 50.3015 49.3273 46.2718 49.3273 42.6559C49.3273 41.3786 48.1513 40.0024 46.0175 38.7814C43.6076 37.4052 40.211 36.3325 36.1975 35.6826C35.8475 35.626 35.5341 35.4313 35.3263 35.1413C35.1185 34.8514 35.0333 34.49 35.0894 34.1366C35.1455 33.7833 35.3384 33.4669 35.6256 33.2571C35.9127 33.0473 36.2707 32.9613 36.6207 33.0179C46.1066 34.5605 52 38.2484 52 42.6559Z" fill="white"/>
<path d="M36.854 38L35.0857 40.6572L43.7437 39.5261C41.9965 38.8257 39.6313 38.3252 36.854 38ZM14.5506 38.5793C10.5405 39.4245 8 40.8094 8 42.8664C8.00165 43.3092 8.12278 43.7466 8.35513 44.1486L22.2506 42.3336L14.5506 38.5793ZM46.6742 41.6667L27.3348 44.1857L32.4351 48.8225C40.8105 48.223 47 46.085 47 42.8664C47 42.4374 46.8844 42.0385 46.6742 41.6667ZM24.0671 44.6205L10.9998 46.3274C14.4538 48.0371 20.5502 49 27.5 49C27.9212 49 28.3328 48.9905 28.7475 48.9835L24.0671 44.6205Z" fill="white"/>
<path d="M27.0013 1C18.7613 1 12 7.58568 12 15.6192C12 18.7322 13.0196 21.6324 14.7404 24.0089L14.6889 23.9304L24.4246 40.3753L24.4651 40.4282C24.8493 40.9177 25.2234 41.3035 25.6637 41.588C26.1035 41.872 26.6494 42.043 27.1848 41.9906C28.2555 41.8859 28.9116 41.1469 29.5339 40.3224L29.5668 40.2795L40.3015 22.4272L40.308 22.4153C40.5598 21.9708 40.7453 21.5188 40.903 21.0781C41.6271 19.3451 41.9997 17.4911 42 15.6192C42.0005 7.58568 35.2412 1 27.0013 1ZM27.0018 3.05C34.0993 3.05 39.9026 8.70849 39.9026 15.6192C39.9026 17.2824 39.5649 18.8696 38.9537 20.3268L38.9426 20.3525L38.9335 20.3782C38.797 20.7605 38.6489 21.1122 38.473 21.4234L27.8293 39.1226C27.3379 39.7618 26.979 39.9505 26.976 39.951C26.9745 39.951 26.9689 39.9732 26.8223 39.8779C26.6803 39.7865 26.4381 39.5607 26.156 39.2061L16.4799 22.8634L16.4531 22.8258C14.9709 20.7783 14.0979 18.2966 14.0979 15.6197C14.0979 8.70899 19.9038 3.05049 27.0013 3.05049M27.0013 7.37081C22.3171 7.37081 18.5374 11.0509 18.5374 15.6197C18.5374 20.1885 22.3171 23.8686 27.0013 23.8686C31.6849 23.8686 35.4636 20.1885 35.4636 15.6192C35.4636 11.0509 31.6854 7.37081 27.0013 7.37081ZM27.0013 9.4208C30.5753 9.4208 33.3657 12.1411 33.3657 15.6197C33.3657 19.0983 30.5758 21.8186 27.0013 21.8186C23.4262 21.8186 20.6353 19.0978 20.6353 15.6192C20.6353 12.1416 23.4262 9.4208 27.0013 9.4208Z" fill="white"/>
<path d="M27.164 10.168L31.412 19H29.864L29.108 17.272H25.064L24.308 19H22.808L27.032 10.168H27.164ZM26.564 13.924L25.604 16.06H28.58L27.632 13.936L27.116 12.724H27.092L26.564 13.924Z" fill="white"/>
</svg>
