<svg width="50" height="50" viewBox="0 0 50 50" fill="none" xmlns="http://www.w3.org/2000/svg">
<path fill-rule="evenodd" clip-rule="evenodd" d="M31.945 25.2577C26.195 31.026 20.575 36.6543 15.085 42.1427C14.7976 42.4447 14.6374 42.8457 14.6374 43.2627C14.6374 43.6796 14.7976 44.0806 15.085 44.3827C15.8625 45.2477 17.0925 45.1727 17.6525 44.5827C23.3425 38.8777 29.295 32.9152 35.51 26.6952C36.0033 26.2902 36.25 25.8118 36.25 25.2602C36.25 24.7085 36.0033 24.2152 35.51 23.7802L16.8025 5.51516C16.4434 5.18564 15.97 5.00892 15.4828 5.02246C14.9956 5.03599 14.5328 5.23872 14.1925 5.58766C13.2975 6.48516 13.6425 7.37016 14.0475 7.79016C20.0227 13.6047 25.9894 19.4281 31.9475 25.2602" fill="white"/>
</svg>
