<svg width="92" height="52" viewBox="0 0 92 52" fill="none" xmlns="http://www.w3.org/2000/svg">
<path d="M44.1995 41.9272H41.1757C40.8586 41.9272 40.6068 42.1814 40.6068 42.4962C40.6068 42.8109 40.8586 43.0941 41.1757 43.0941H44.1995C44.5142 43.0941 44.766 42.8424 44.766 42.4962C44.766 42.1814 44.5457 41.9272 44.1995 41.9272Z" fill="white"/>
<path d="M60.1706 3.13129C60.0133 3.13129 59.8244 3.06835 59.6985 2.94246L57.9336 1.17758C57.6819 0.923376 57.6819 0.48276 57.9336 0.23098C58.1854 -0.0208003 58.626 -0.0208003 58.8802 0.23098L60.6427 1.99586C60.8945 2.25006 60.8945 2.69068 60.6427 2.94246C60.5168 3.06835 60.3595 3.13129 60.1706 3.13129Z" fill="white"/>
<path d="M89.5635 3.13129C89.4062 3.13129 89.2173 3.06835 89.0914 2.94246C88.8372 2.69068 88.8372 2.25006 89.0914 1.99586L90.8539 0.23098C91.1057 -0.0208003 91.5487 -0.0208003 91.8005 0.23098C92.0523 0.48276 92.0523 0.923376 91.8005 1.17758L90.0356 2.94246C89.8783 3.06835 89.7209 3.13129 89.5635 3.13129Z" fill="white"/>
<path d="M58.4057 34.2939C58.2484 34.2939 58.0595 34.231 57.9336 34.1051C57.6819 33.8533 57.6819 33.4127 57.9336 33.1585L59.6985 31.3936C59.9503 31.1418 60.3909 31.1418 60.6427 31.3936C60.8945 31.6454 60.8945 32.086 60.6427 32.3402L58.8802 34.1051C58.7544 34.231 58.5946 34.2939 58.4057 34.2939Z" fill="white"/>
<path d="M91.326 34.2939C91.1686 34.2939 90.9798 34.231 90.8539 34.1051L89.0914 32.3402C88.8372 32.086 88.8372 31.6454 89.0914 31.3936C89.3432 31.1418 89.7838 31.1418 90.0356 31.3936L91.8005 33.1585C92.0523 33.4127 92.0523 33.8533 91.8005 34.1051C91.6746 34.231 91.4858 34.2939 91.326 34.2939Z" fill="white"/>
<path d="M66.2836 3.51138C66.0609 3.51138 65.8405 3.38549 65.7147 3.19665L64.4243 1.02021C64.2354 0.703061 64.3299 0.293918 64.6446 0.105083C64.9593 -0.0837521 65.3685 0.010665 65.5573 0.325391L66.8501 2.47036C67.0389 2.78509 66.9445 3.19665 66.6298 3.38549C66.5354 3.47991 66.4095 3.51138 66.2836 3.51138Z" fill="white"/>
<path d="M72.0793 3.79464C71.7646 3.79464 71.4813 3.57433 71.4184 3.2596L70.9124 0.797483C70.8495 0.419813 71.0698 0.0736155 71.4499 0.0106702C71.8275 -0.0522746 72.1737 0.168033 72.2367 0.545703L72.7402 3.0054C72.8032 3.38549 72.5829 3.73169 72.2052 3.79464C72.1422 3.79464 72.1108 3.79464 72.0793 3.79464Z" fill="white"/>
<path d="M72.2052 9.818C71.922 9.818 71.6702 9.62916 71.5758 9.34591L70.7866 6.98063C70.6607 6.63443 70.8495 6.25434 71.2272 6.12845C71.5758 6.00256 71.9535 6.19139 72.0793 6.57148L72.8662 8.93677C72.992 9.28296 72.8032 9.66063 72.4255 9.78652C72.3311 9.818 72.2682 9.818 72.2052 9.818Z" fill="white"/>
<path d="M83.4506 3.5114C83.3247 3.5114 83.1988 3.47993 83.1044 3.41698C82.7897 3.22815 82.6953 2.81658 82.8841 2.50186L84.1769 0.356885C84.3657 0.0421592 84.7749 -0.0522579 85.0896 0.136577C85.4043 0.325412 85.4988 0.734555 85.3099 1.0517L84.0196 3.19667C83.8937 3.38551 83.6709 3.5114 83.4506 3.5114Z" fill="white"/>
<path d="M77.6548 3.79464C77.6233 3.79464 77.5604 3.79464 77.5289 3.79464C77.1512 3.73169 76.9309 3.35402 76.9939 3.0054L77.4974 0.545703C77.5604 0.168033 77.9381 -0.0522746 78.2843 0.0106702C78.6619 0.0736155 78.8847 0.451286 78.8193 0.797483L78.3157 3.2596C78.2528 3.57433 77.9695 3.79464 77.6548 3.79464Z" fill="white"/>
<path d="M77.5289 9.81801C77.466 9.81801 77.403 9.81801 77.3086 9.78653C76.9624 9.66064 76.7736 9.28297 76.8995 8.93678L77.6863 6.57149C77.8122 6.22288 78.1899 6.03404 78.5361 6.12846C78.8847 6.25435 79.0735 6.63444 78.9791 6.98064L78.1899 9.34592C78.064 9.62917 77.8122 9.81801 77.5289 9.81801Z" fill="white"/>
<path d="M64.9908 34.2939C64.8649 34.2939 64.739 34.2625 64.6446 34.1995C64.3299 34.0107 64.2354 33.6015 64.4243 33.2868L65.7147 31.1418C65.9035 30.8247 66.3151 30.7303 66.6298 30.9191C66.9445 31.1104 67.0389 31.5195 66.8501 31.8342L65.5573 33.9792C65.4314 34.168 65.2111 34.2939 64.9908 34.2939Z" fill="white"/>
<path d="M71.5757 34.2939C71.5443 34.2939 71.4813 34.2939 71.4499 34.2939C71.0698 34.231 70.8495 33.8533 70.9124 33.5071L71.4184 31.0474C71.4813 30.6673 71.859 30.447 72.2052 30.51C72.5829 30.5729 72.8032 30.9506 72.7402 31.2992L72.2367 33.7589C72.1737 34.0736 71.8905 34.2939 71.5757 34.2939Z" fill="white"/>
<path d="M71.4184 28.2076C71.3555 28.2076 71.2586 28.2076 71.1957 28.1762C70.8495 28.0503 70.6607 27.6702 70.7551 27.324L71.5443 24.9587C71.6702 24.6125 72.0479 24.4237 72.3941 24.5496C72.7403 24.6754 72.9291 25.0531 72.8347 25.3993L72.0479 27.767C71.9535 28.0188 71.7017 28.2076 71.4184 28.2076Z" fill="white"/>
<path d="M84.7434 34.2939C84.5231 34.2939 84.3028 34.168 84.1769 33.9792L82.8841 31.8342C82.6953 31.5195 82.7897 31.1104 83.1044 30.9191C83.4192 30.7303 83.8283 30.8247 84.0196 31.1418L85.3099 33.2868C85.4988 33.6015 85.4043 34.0107 85.0896 34.1995C84.9637 34.2625 84.8693 34.2939 84.7434 34.2939Z" fill="white"/>
<path d="M78.1584 34.2939C77.8436 34.2939 77.5604 34.0736 77.4974 33.7589L76.9939 31.2992C76.9309 30.9191 77.1512 30.5729 77.5289 30.51C77.9066 30.447 78.2528 30.6673 78.3157 31.0474L78.8193 33.5071C78.8847 33.8848 78.6619 34.231 78.2843 34.2939C78.2528 34.2939 78.1898 34.2939 78.1584 34.2939Z" fill="white"/>
<path d="M78.3157 28.2076C78.0325 28.2076 77.7807 28.0188 77.6863 27.7355L76.8995 25.3678C76.7736 25.0216 76.9624 24.644 77.3086 24.5181C77.6548 24.3922 78.0325 24.581 78.1584 24.9272L78.9476 27.2925C79.0735 27.6387 78.8847 28.0188 78.5046 28.1447C78.4731 28.2076 78.3787 28.2076 78.3157 28.2076Z" fill="white"/>
<path d="M85.247 28.2076C85.0896 28.2076 84.9008 28.1447 84.7749 28.0188L83.01 26.2515C82.7582 25.9997 82.7582 25.5591 83.01 25.3049C83.2618 25.0531 83.7024 25.0531 83.9566 25.3049L85.7191 27.0722C85.9708 27.324 85.9708 27.767 85.7191 28.0188C85.5932 28.1447 85.4043 28.2076 85.247 28.2076Z" fill="white"/>
<path d="M89.1859 9.22002C88.9656 9.22002 88.7429 9.09413 88.617 8.90529C88.4281 8.58815 88.5226 8.179 88.8373 7.99017L90.9798 6.69737C91.2946 6.50612 91.7061 6.60296 91.895 6.91768C92.0838 7.23241 91.9894 7.64397 91.6746 7.83281L89.5321 9.1256C89.4062 9.18855 89.2803 9.22002 89.1859 9.22002Z" fill="white"/>
<path d="M88.8687 15.0231C88.554 15.0231 88.2707 14.8028 88.2078 14.488C88.1448 14.1079 88.3651 13.7617 88.7428 13.6988L91.2001 13.1952C91.5802 13.1299 91.9264 13.3526 91.9893 13.7303C92.0523 14.1079 91.832 14.4566 91.4543 14.5195L88.997 15.0231C88.9655 15.0231 88.9026 15.0231 88.8687 15.0231Z" fill="white"/>
<path d="M82.8526 15.149C82.5694 15.149 82.3176 14.9601 82.2232 14.6769C82.0973 14.3307 82.2861 13.9506 82.6638 13.8247L85.0266 13.0355C85.3728 12.9096 85.7505 13.0984 85.8764 13.447C86.0023 13.7932 85.8135 14.1709 85.4358 14.2968L83.0729 15.086C83.01 15.149 82.947 15.149 82.8526 15.149Z" fill="white"/>
<path d="M91.326 27.7041C91.2001 27.7041 91.0742 27.6702 90.9798 27.6072L88.8373 26.3144C88.5226 26.1256 88.4281 25.7165 88.617 25.3993C88.8058 25.0846 89.2174 24.9902 89.5321 25.179L91.6746 26.4718C91.9894 26.6631 92.0838 27.0722 91.895 27.3869C91.7691 27.5758 91.5488 27.7041 91.326 27.7041Z" fill="white"/>
<path d="M91.326 21.1118C91.2945 21.1118 91.2316 21.1118 91.2001 21.1118L88.7428 20.6058C88.3651 20.5429 88.1448 20.1652 88.2078 19.8166C88.2707 19.4389 88.6484 19.2186 88.997 19.2815L91.4543 19.7851C91.832 19.848 92.0523 20.2281 91.9893 20.5743C91.9264 20.8891 91.6431 21.1118 91.326 21.1118Z" fill="white"/>
<path d="M85.247 21.3006C85.184 21.3006 85.1211 21.3006 85.0267 21.2692L82.6638 20.4799C82.3176 20.354 82.1288 19.9764 82.2232 19.6277C82.3491 19.2815 82.7268 19.0927 83.073 19.2186L85.4358 20.0078C85.782 20.1337 85.9708 20.5114 85.8764 20.8576C85.782 21.1118 85.5302 21.3006 85.247 21.3006Z" fill="white"/>
<path d="M60.5483 9.22002C60.4224 9.22002 60.2965 9.18855 60.2021 9.1256L58.0596 7.83281C57.7448 7.64397 57.6504 7.23241 57.8393 6.91768C58.0281 6.60296 58.4372 6.50612 58.7544 6.69737L60.8945 7.99017C61.2092 8.179 61.3061 8.58815 61.1148 8.90529C61.0204 9.1256 60.8001 9.22002 60.5483 9.22002Z" fill="white"/>
<path d="M60.863 15.0231C60.8315 15.0231 60.7686 15.0231 60.7371 15.0231L58.2798 14.5195C57.9022 14.4566 57.6819 14.0765 57.7448 13.7303C57.8077 13.3526 58.1854 13.1299 58.5316 13.1952L60.9889 13.6988C61.369 13.7617 61.5893 14.1394 61.5263 14.488C61.4634 14.8028 61.1777 15.0231 60.863 15.0231Z" fill="white"/>
<path d="M66.8816 15.149C66.8186 15.149 66.7242 15.149 66.6613 15.1175L64.2984 14.3307C63.9522 14.2024 63.7634 13.8247 63.8578 13.4785C63.9837 13.1299 64.3613 12.941 64.7075 13.0669L67.0704 13.8562C67.4166 13.982 67.6054 14.3621 67.511 14.7083C67.4166 14.9601 67.1648 15.149 66.8816 15.149Z" fill="white"/>
<path d="M58.4058 27.7041C58.1855 27.7041 57.9651 27.5758 57.8393 27.3869C57.6504 27.0722 57.7448 26.6631 58.0596 26.4718L60.2021 25.179C60.5168 24.9902 60.926 25.0846 61.1148 25.3993C61.3061 25.7165 61.2092 26.1256 60.8945 26.3144L58.7544 27.6072C58.6575 27.6702 58.5317 27.7041 58.4058 27.7041Z" fill="white"/>
<path d="M58.4057 21.1118C58.091 21.1118 57.8077 20.8891 57.7448 20.5743C57.6819 20.1967 57.9022 19.848 58.2798 19.7851L60.7371 19.2815C61.1148 19.2186 61.4634 19.4389 61.5263 19.8166C61.5893 20.1967 61.369 20.5429 60.9889 20.6058L58.5316 21.1118C58.5001 21.1118 58.4687 21.1118 58.4057 21.1118Z" fill="white"/>
<path d="M64.4872 21.3006C64.2039 21.3006 63.9521 21.1118 63.8577 20.8261C63.7294 20.4799 63.9207 20.1023 64.2983 19.9764L66.6612 19.1871C67.0074 19.0612 67.3851 19.2501 67.511 19.5963C67.6368 19.9449 67.448 20.3226 67.0703 20.4484L64.7075 21.2377C64.6445 21.2692 64.5816 21.3006 64.4872 21.3006Z" fill="white"/>
<path d="M72.7088 16.3159C72.3626 16.3159 72.0164 16.19 71.7646 15.9067L69.9997 14.1394C69.4647 13.6044 69.4647 12.7522 69.9997 12.2486C70.5348 11.7112 71.3869 11.7112 71.8905 12.2486L73.653 14.0135C74.1904 14.551 74.1904 15.4007 73.653 15.9067C73.4012 16.19 73.055 16.3159 72.7088 16.3159Z" fill="white"/>
<path d="M77.0254 16.3159C76.6792 16.3159 76.333 16.19 76.0788 15.9067C75.5437 15.3693 75.5437 14.5195 76.0788 14.0135L77.8436 12.2486C78.3787 11.7112 79.2309 11.7112 79.7344 12.2486C80.2695 12.7837 80.2695 13.6358 79.7344 14.1394L77.9695 15.9067C77.7178 16.19 77.3716 16.3159 77.0254 16.3159Z" fill="white"/>
<path d="M70.9439 22.436C70.5977 22.436 70.2515 22.3102 69.9997 22.0245C69.4647 21.4895 69.4647 20.6373 69.9997 20.1337L71.7646 18.3664C72.2996 17.8314 73.1494 17.8314 73.653 18.3664C74.1904 18.9039 74.1904 19.7536 73.653 20.2596L71.8905 22.0245C71.6072 22.3102 71.2901 22.436 70.9439 22.436Z" fill="white"/>
<path d="M78.7878 22.436C78.4416 22.436 78.0954 22.3102 77.8436 22.0245L76.0788 20.2596C75.5437 19.7221 75.5437 18.8724 76.0788 18.3664C76.6162 17.8314 77.466 17.8314 77.9695 18.3664L79.7344 20.1337C80.2695 20.6687 80.2695 21.5209 79.7344 22.0245C79.4826 22.3102 79.1364 22.436 78.7878 22.436Z" fill="white"/>
<path d="M50.5304 42.4647L54.4693 38.5209C54.721 38.2691 54.721 37.8285 54.4693 37.5743C54.2175 37.3226 53.7769 37.3226 53.5227 37.5743L49.5862 41.5181L45.6473 37.5743C45.3955 37.3226 44.9549 37.3226 44.7031 37.5743C44.4513 37.8285 44.4513 38.2691 44.7031 38.5209L48.6396 42.4647L44.6716 46.4375C44.4198 46.6917 44.4198 47.1323 44.6716 47.3841C44.7975 47.51 44.9863 47.5729 45.1437 47.5729C45.3011 47.5729 45.4899 47.51 45.6158 47.3841L49.5547 43.4427L53.5541 47.3841C53.68 47.51 53.8713 47.5729 54.0286 47.5729C54.186 47.5729 54.3748 47.51 54.5007 47.3841C54.7525 47.1323 54.7525 46.6917 54.5007 46.4375L50.5304 42.4647Z" fill="white"/>
<path d="M64.4872 28.2076C64.3299 28.2076 64.141 28.1447 64.0151 28.0188C63.7633 27.767 63.7633 27.324 64.0151 27.0722L65.7776 25.3049C66.0294 25.0531 66.4724 25.0531 66.7242 25.3049C66.976 25.5591 66.976 25.9997 66.7242 26.2515L64.9593 28.0188C64.8334 28.1447 64.6761 28.2076 64.4872 28.2076Z" fill="white"/>
<path d="M66.2497 9.22C66.0923 9.22 65.9035 9.15706 65.7776 9.03117L64.0151 7.26387C63.7633 7.01209 63.7633 6.57147 64.0151 6.31727C64.2669 6.06549 64.7075 6.06549 64.9593 6.31727L66.7242 8.08457C66.976 8.33635 66.976 8.77939 66.7242 9.03117C66.5983 9.15706 66.4409 9.22 66.2497 9.22Z" fill="white"/>
<path d="M83.4821 9.22C83.3247 9.22 83.1359 9.15706 83.01 9.03117C82.7582 8.77939 82.7582 8.33635 83.01 8.08457L84.7749 6.31727C85.0267 6.06549 85.4673 6.06549 85.7191 6.31727C85.9708 6.57147 85.9708 7.01209 85.7191 7.26387L83.9566 9.03117C83.7968 9.15706 83.6395 9.22 83.4821 9.22Z" fill="white"/>
<path d="M16.7603 46.1857C14.8696 46.1857 13.3565 44.5467 13.3565 42.4961C13.3565 40.4456 14.901 38.8042 16.7603 38.8042C18.6511 38.8042 20.1618 40.4771 20.1618 42.4961C20.1933 44.5467 18.6511 46.1857 16.7603 46.1857ZM20.8227 37.5114C20.445 37.5114 20.1618 37.7971 20.1618 38.1747V39.0584C19.2806 38.0803 18.0192 37.5114 16.7603 37.5114C14.1457 37.5114 12.0346 39.7508 12.0346 42.4961C12.0346 45.2391 14.1457 47.4785 16.7603 47.4785C18.0507 47.4785 19.2806 46.912 20.1618 45.9339V46.8176C20.1618 47.1638 20.4765 47.4785 20.8227 47.4785C21.1713 47.4785 21.486 47.1638 21.486 46.8176V38.1433C21.486 37.7971 21.2028 37.5114 20.8227 37.5114Z" fill="white"/>
<path d="M25.4226 34.1051C25.0764 34.1051 24.7616 34.4222 24.7616 34.7684V35.2091C24.7616 35.5891 25.0764 35.9039 25.4226 35.9039C25.8002 35.9039 26.1174 35.5891 26.1174 35.2091V34.7684C26.1174 34.4222 25.8002 34.1051 25.4226 34.1051Z" fill="white"/>
<path d="M25.4226 37.5114C25.0449 37.5114 24.7616 37.7971 24.7616 38.1747V46.849C24.7616 47.1952 25.0764 47.51 25.4226 47.51C25.8002 47.51 26.1174 47.2267 26.1174 46.849V38.1747C26.1174 37.7971 25.8317 37.5114 25.4226 37.5114Z" fill="white"/>
<path d="M33.5497 46.1857C31.6614 46.1857 30.1483 44.5467 30.1483 42.4961C30.1483 40.4456 31.6928 38.8042 33.5497 38.8042C35.4405 38.8042 36.9536 40.4771 36.9536 42.4961C36.9536 44.5467 35.4405 46.1857 33.5497 46.1857ZM37.6145 37.5114C37.2368 37.5114 36.9536 37.7971 36.9536 38.1747V39.0584C36.0699 38.0803 34.811 37.5114 33.5497 37.5114C30.9351 37.5114 28.8264 39.7508 28.8264 42.4961C28.8264 45.2391 30.9351 47.4785 33.5497 47.4785C34.8425 47.4785 36.0699 46.912 36.9536 45.9339V46.8176C36.9536 47.1638 37.2683 47.4785 37.6145 47.4785C37.9607 47.4785 38.2754 47.1638 38.2754 46.8176V38.1433C38.2754 37.7971 37.9922 37.5114 37.6145 37.5114Z" fill="white"/>
<path d="M4.72572 46.1542C2.86642 46.1542 1.35574 44.5152 1.35574 42.4961C1.35574 40.4771 2.86642 38.8695 4.72572 38.8695C6.58502 38.8695 8.12717 40.5085 8.12717 42.4961C8.0957 44.5152 6.58502 46.1542 4.72572 46.1542ZM8.79052 37.5114C8.41043 37.5114 8.0957 37.7971 8.0957 38.1747V39.0584C7.21447 38.0803 5.98704 37.5114 4.69425 37.5114C2.11108 37.5114 0 39.7508 0 42.4647C0 45.2076 2.11108 47.447 4.69425 47.447C5.98704 47.447 7.21447 46.8805 8.0957 45.9339V46.5634C8.0957 48.4566 6.61649 49.9382 4.69425 49.9382C4.22216 49.9382 3.78155 49.8438 3.30704 49.6549C2.83495 49.4661 2.48875 49.2143 2.2055 48.8681C2.07961 48.7083 1.92225 48.6454 1.76488 48.6139C1.57605 48.6139 1.41868 48.6769 1.29279 48.8028C1.00954 49.057 1.04101 49.4661 1.22985 49.7494C1.63899 50.1924 2.11108 50.5386 2.58317 50.7589L2.64611 50.8218C2.67759 50.8533 2.70906 50.8533 2.74053 50.8533L2.86642 50.9163C2.89789 50.9477 2.96084 50.9477 2.99231 50.9792C3.52977 51.2019 4.09627 51.2963 4.69425 51.2963C5.00897 51.2963 5.35517 51.2649 5.6699 51.2019H5.70137C6.01852 51.139 6.30177 51.0421 6.55355 50.9163C6.80533 50.8218 7.05711 50.6645 7.27742 50.5386C7.34036 50.5071 7.40331 50.4442 7.46625 50.4127L7.56067 50.3498C7.65509 50.2553 7.78098 50.1924 7.87539 50.0665C7.96981 49.9721 8.0957 49.8752 8.19012 49.7179C8.22159 49.6864 8.28454 49.6235 8.28454 49.6235C9.01083 48.7398 9.3885 47.7327 9.3885 46.6287V38.2377C9.41997 37.8285 9.13672 37.5114 8.79052 37.5114Z" fill="white"/>
</svg>
